Pretension2VF-Regular.ufo
<glyph name="ampersand" format="2">
  <advance width="1319"/>
  <unicode hex="0026"/>
  <outline>
    <contour>
      <point x="580" y="-20" type="qcurve" smooth="yes"/>
      <point x="433" y="-20"/>
      <point x="219" y="88"/>
      <point x="104" y="276"/>
      <point x="104" y="396" type="qcurve" smooth="yes"/>
      <point x="104" y="488"/>
      <point x="184" y="628"/>
      <point x="325" y="751"/>
      <point x="414" y="817" type="qcurve" smooth="yes"/>
      <point x="635" y="980" type="line" smooth="yes"/>
      <point x="695" y="1024"/>
      <point x="771" y="1115"/>
      <point x="771" y="1188" type="qcurve" smooth="yes"/>
      <point x="771" y="1244"/>
      <point x="674" y="1349"/>
      <point x="594" y="1349" type="qcurve" smooth="yes"/>
      <point x="539" y="1349"/>
      <point x="454" y="1293"/>
      <point x="406" y="1207"/>
      <point x="406" y="1161" type="qcurve" smooth="yes"/>
      <point x="406" y="1109"/>
      <point x="463" y="1002"/>
      <point x="552" y="892"/>
      <point x="601" y="832" type="qcurve" smooth="yes"/>
      <point x="1287" y="0" type="line"/>
      <point x="1070" y="0" type="line"/>
      <point x="505" y="678" type="line" smooth="yes"/>
      <point x="428" y="771"/>
      <point x="300" y="925"/>
      <point x="225" y="1076"/>
      <point x="225" y="1163" type="qcurve" smooth="yes"/>
      <point x="225" y="1264"/>
      <point x="316" y="1418"/>
      <point x="479" y="1504"/>
      <point x="588" y="1504" type="qcurve" smooth="yes"/>
      <point x="701" y="1504"/>
      <point x="864" y="1417"/>
      <point x="952" y="1274"/>
      <point x="952" y="1189" type="qcurve" smooth="yes"/>
      <point x="952" y="1082"/>
      <point x="844" y="925"/>
      <point x="754" y="858" type="qcurve" smooth="yes"/>
      <point x="456" y="637" type="line" smooth="yes"/>
      <point x="360" y="566"/>
      <point x="289" y="429"/>
      <point x="289" y="397" type="qcurve" smooth="yes"/>
      <point x="289" y="329"/>
      <point x="361" y="210"/>
      <point x="490" y="137"/>
      <point x="577" y="137" type="qcurve" smooth="yes"/>
      <point x="660" y="137"/>
      <point x="820" y="210"/>
      <point x="949" y="346"/>
      <point x="1026" y="538"/>
      <point x="1026" y="658" type="qcurve"/>
      <point x="1199" y="658" type="line"/>
      <point x="1199" y="510"/>
      <point x="1131" y="320"/>
      <point x="1044" y="210"/>
      <point x="1015" y="182" type="qcurve"/>
      <point x="1005" y="171"/>
      <point x="988" y="148"/>
      <point x="979" y="137" type="qcurve"/>
      <point x="906" y="58"/>
      <point x="687" y="-20"/>
    </contour>
  </outline>
</glyph>
<glyph name="period" format="2">
  <advance width="589"/>
  <unicode hex="002E"/>
  <outline>
    <contour>
      <point x="294" y="-13" type="qcurve" smooth="yes"/>
      <point x="239" y="-13"/>
      <point x="160" y="67"/>
      <point x="160" y="122" type="qcurve" smooth="yes"/>
      <point x="160" y="178"/>
      <point x="239" y="256"/>
      <point x="294" y="256" type="qcurve" smooth="yes"/>
      <point x="350" y="256"/>
      <point x="429" y="178"/>
      <point x="429" y="122" type="qcurve" smooth="yes"/>
      <point x="429" y="66"/>
      <point x="350" y="-13"/>
    </contour>
  </outline>
</glyph>
<glyph name="two" format="2">
  <advance width="1249"/>
  <unicode hex="0032"/>
  <anchor x="798" y="1490" name="m.uni030F_1"/>
  <outline>
    <contour>
      <point x="154" y="0" type="line"/>
      <point x="154" y="137" type="line"/>
      <point x="649" y="674" type="line" smooth="yes"/>
      <point x="732" y="764"/>
      <point x="842" y="900"/>
      <point x="898" y="1023"/>
      <point x="898" y="1092" type="qcurve" smooth="yes"/>
      <point x="898" y="1170"/>
      <point x="824" y="1284"/>
      <point x="698" y="1345"/>
      <point x="618" y="1345" type="qcurve" smooth="yes"/>
      <point x="533" y="1345"/>
      <point x="408" y="1276"/>
      <point x="340" y="1151"/>
      <point x="340" y="1067" type="qcurve"/>
      <point x="158" y="1067" type="line"/>
      <point x="158" y="1199"/>
      <point x="280" y="1399"/>
      <point x="490" y="1510"/>
      <point x="623" y="1510" type="qcurve" smooth="yes"/>
      <point x="756" y="1510"/>
      <point x="961" y="1399"/>
      <point x="1078" y="1211"/>
      <point x="1078" y="1094" type="qcurve" smooth="yes"/>
      <point x="1078" y="1013"/>
      <point x="1020" y="860"/>
      <point x="874" y="666"/>
      <point x="742" y="526" type="qcurve" smooth="yes"/>
      <point x="416" y="179" type="line"/>
      <point x="416" y="167" type="line"/>
      <point x="1103" y="167" type="line"/>
      <point x="1103" y="0" type="line"/>
    </contour>
  </outline>
</glyph>
<glyph name="six.ss01" format="2">
  <advance width="1191"/>
  <unicode hex="0036"/>
  <unicode hex="E06F"/>
  <outline>
    <contour>
      <point x="596" y="-20" type="qcurve" smooth="yes"/>
      <point x="458" y="-20"/>
      <point x="244" y="106"/>
      <point x="122" y="329"/>
      <point x="122" y="473" type="qcurve" smooth="yes"/>
      <point x="122" y="579"/>
      <point x="214" y="816"/>
      <point x="334" y="993" type="qcurve" smooth="yes"/>
      <point x="671" y="1490" type="line"/>
      <point x="876" y="1490" type="line"/>
      <point x="378" y="763" type="line"/>
      <point x="360" y="763" type="line"/>
      <point x="380" y="805"/>
      <point x="457" y="874"/>
      <point x="560" y="915"/>
      <point x="620" y="915" type="qcurve" smooth="yes"/>
      <point x="756" y="915"/>
      <point x="957" y="802"/>
      <point x="1069" y="597"/>
      <point x="1069" y="458" type="qcurve" smooth="yes"/>
      <point x="1069" y="320"/>
      <point x="946" y="104"/>
      <point x="733" y="-20"/>
    </contour>
    <contour>
      <point x="596" y="143" type="qcurve" smooth="yes"/>
      <point x="682" y="143"/>
      <point x="813" y="225"/>
      <point x="888" y="367"/>
      <point x="888" y="458" type="qcurve" smooth="yes"/>
      <point x="888" y="552"/>
      <point x="813" y="693"/>
      <point x="682" y="773"/>
      <point x="596" y="773" type="qcurve" smooth="yes"/>
      <point x="510" y="773"/>
      <point x="377" y="694"/>
      <point x="302" y="554"/>
      <point x="302" y="462" type="qcurve" smooth="yes"/>
      <point x="302" y="369"/>
      <point x="377" y="225"/>
      <point x="510" y="143"/>
    </contour>
  </outline>
</glyph>
<glyph name="H" format="2">
  <advance width="1522"/>
  <unicode hex="0048"/>
  <anchor x="822" y="0" name="m.uni0326"/>
  <anchor x="822" y="1490" name="m.uni030F_1"/>
  <anchor x="387" y="1" name="m.uni0327_3"/>
  <outline>
    <contour>
      <point x="180" y="0" type="line"/>
      <point x="180" y="1490" type="line"/>
      <point x="370" y="1490" type="line"/>
      <point x="370" y="846" type="line"/>
      <point x="1152" y="846" type="line"/>
      <point x="1152" y="1490" type="line"/>
      <point x="1342" y="1490" type="line"/>
      <point x="1342" y="0" type="line"/>
      <point x="1152" y="0" type="line"/>
      <point x="1152" y="678" type="line"/>
      <point x="370" y="678" type="line"/>
      <point x="370" y="0" type="line"/>
    </contour>
  </outline>
</glyph>
<glyph name="I" format="2">
  <advance width="550"/>
  <unicode hex="0049"/>
  <anchor x="383" y="0" name="m.uni0326"/>
  <anchor x="387" y="1490" name="m.uni030F_1"/>
  <anchor x="710" y="0" name="m.uni0328_4"/>
  <outline>
    <contour>
      <point x="370" y="1490" type="line"/>
      <point x="370" y="0" type="line"/>
      <point x="180" y="0" type="line"/>
      <point x="180" y="1490" type="line"/>
    </contour>
  </outline>
</glyph>
<glyph name="J" format="2">
  <advance width="1169"/>
  <unicode hex="004A"/>
  <anchor x="999" y="1490" name="m.uni030F_1"/>
  <outline>
    <contour>
      <point x="545" y="-20" type="qcurve" smooth="yes"/>
      <point x="348" y="-20"/>
      <point x="100" y="212"/>
      <point x="100" y="426" type="qcurve" smooth="yes"/>
      <point x="100" y="506" type="line"/>
      <point x="290" y="506" type="line"/>
      <point x="290" y="426" type="line" smooth="yes"/>
      <point x="290" y="290"/>
      <point x="430" y="147"/>
      <point x="545" y="147" type="qcurve" smooth="yes"/>
      <point x="659" y="147"/>
      <point x="799" y="290"/>
      <point x="799" y="426" type="qcurve" smooth="yes"/>
      <point x="799" y="1490" type="line"/>
      <point x="989" y="1490" type="line"/>
      <point x="989" y="426" type="line" smooth="yes"/>
      <point x="989" y="212"/>
      <point x="742" y="-20"/>
    </contour>
  </outline>
</glyph>
<glyph name="K" format="2">
  <advance width="1376"/>
  <unicode hex="004B"/>
  <anchor x="860" y="0" name="m.uni0326"/>
  <anchor x="860" y="1490" name="m.uni030F_1"/>
  <outline>
    <contour>
      <point x="310" y="426" type="line"/>
      <point x="310" y="629" type="line"/>
      <point x="361" y="699"/>
      <point x="462" y="827"/>
      <point x="568" y="949"/>
      <point x="624" y="1009" type="qcurve" smooth="yes"/>
      <point x="1069" y="1490" type="line"/>
      <point x="1318" y="1490" type="line"/>
      <point x="682" y="808" type="line"/>
      <point x="672" y="809" type="line"/>
    </contour>
    <contour>
      <point x="180" y="0" type="line"/>
      <point x="180" y="1490" type="line"/>
      <point x="370" y="1490" type="line"/>
      <point x="370" y="980" type="line"/>
      <point x="367" y="659" type="line"/>
      <point x="370" y="566" type="line"/>
      <point x="370" y="0" type="line"/>
    </contour>
    <contour>
      <point x="1094" y="0" type="line"/>
      <point x="555" y="758" type="line"/>
      <point x="673" y="906" type="line"/>
      <point x="1319" y="0" type="line"/>
    </contour>
  </outline>
</glyph>
<glyph name="V" format="2">
  <advance width="1413"/>
  <unicode hex="0056"/>
  <anchor x="950" y="0" name="m.uni0326"/>
  <anchor x="950" y="1490" name="m.uni030F_1"/>
  <outline>
    <contour>
      <point x="600" y="0" type="line"/>
      <point x="52" y="1490" type="line"/>
      <point x="252" y="1490" type="line"/>
      <point x="567" y="606" type="line" smooth="yes"/>
      <point x="594" y="530"/>
      <point x="675" y="276"/>
      <point x="729" y="90" type="qcurve"/>
      <point x="692" y="90" type="line"/>
      <point x="746" y="281"/>
      <point x="826" y="530"/>
      <point x="852" y="606" type="qcurve" smooth="yes"/>
      <point x="1159" y="1490" type="line"/>
      <point x="1361" y="1490" type="line"/>
      <point x="819" y="0" type="line"/>
    </contour>
  </outline>
</glyph>
<glyph name="W" format="2">
  <advance width="2018"/>
  <unicode hex="0057"/>
  <anchor x="1235" y="0" name="m.uni0326"/>
  <anchor x="1235" y="1490" name="m.uni030F_1"/>
  <outline>
    <contour>
      <point x="458" y="0" type="line"/>
      <point x="52" y="1490" type="line"/>
      <point x="246" y="1490" type="line"/>
      <point x="482" y="576" type="line" smooth="yes"/>
      <point x="501" y="503"/>
      <point x="535" y="352"/>
      <point x="567" y="197"/>
      <point x="581" y="115" type="qcurve"/>
      <point x="558" y="115" type="line"/>
      <point x="573" y="197"/>
      <point x="605" y="352"/>
      <point x="641" y="503"/>
      <point x="660" y="576" type="qcurve" smooth="yes"/>
      <point x="901" y="1490" type="line"/>
      <point x="1117" y="1490" type="line"/>
      <point x="1356" y="576" type="line"/>
      <point x="1376" y="503"/>
      <point x="1411" y="352"/>
      <point x="1445" y="197"/>
      <point x="1460" y="115" type="qcurve"/>
      <point x="1434" y="115" type="line"/>
      <point x="1449" y="197"/>
      <point x="1481" y="352"/>
      <point x="1517" y="503"/>
      <point x="1535" y="576" type="qcurve"/>
      <point x="1770" y="1490" type="line"/>
      <point x="1966" y="1490" type="line"/>
      <point x="1558" y="0" type="line"/>
      <point x="1337" y="0" type="line"/>
      <point x="1081" y="944" type="line" smooth="yes"/>
      <point x="1056" y="1036"/>
      <point x="1010" y="1253"/>
      <point x="988" y="1395" type="qcurve"/>
      <point x="1028" y="1395" type="line"/>
      <point x="1006" y="1261"/>
      <point x="964" y="1050"/>
      <point x="935" y="944" type="qcurve" smooth="yes"/>
      <point x="680" y="0" type="line"/>
    </contour>
  </outline>
</glyph>
<glyph name="bracketright" format="2">
  <advance width="747"/>
  <unicode hex="005D"/>
  <outline>
    <contour>
      <point x="123" y="-279" type="line"/>
      <point x="123" y="-126" type="line"/>
      <point x="349" y="-126" type="line"/>
      <point x="349" y="1428" type="line"/>
      <point x="123" y="1428" type="line"/>
      <point x="123" y="1581" type="line"/>
      <point x="521" y="1581" type="line"/>
      <point x="521" y="-279" type="line"/>
    </contour>
  </outline>
</glyph>
<glyph name="k" format="2">
  <advance width="1124"/>
  <unicode hex="006B"/>
  <anchor x="733" y="0" name="m.uni0326"/>
  <anchor x="415" y="1490" name="m.uni030F_1"/>
  <outline>
    <contour>
      <point x="327" y="402" type="line"/>
      <point x="327" y="625" type="line"/>
      <point x="360" y="625" type="line"/>
      <point x="838" y="1118" type="line"/>
      <point x="1061" y="1118" type="line"/>
      <point x="544" y="587" type="line"/>
      <point x="524" y="587" type="line"/>
    </contour>
    <contour>
      <point x="158" y="0" type="line"/>
      <point x="158" y="1490" type="line"/>
      <point x="338" y="1490" type="line"/>
      <point x="338" y="0" type="line"/>
    </contour>
    <contour>
      <point x="865" y="0" type="line"/>
      <point x="437" y="547" type="line"/>
      <point x="565" y="674" type="line"/>
      <point x="1096" y="0" type="line"/>
    </contour>
  </outline>
</glyph>
<glyph name="l.ss02" format="2">
  <advance width="564"/>
  <unicode hex="006C"/>
  <unicode hex="E050"/>
  <anchor x="459" y="0" name="m.uni0326"/>
  <anchor x="415" y="1490" name="m.uni030F_1"/>
  <outline>
    <contour>
      <point x="409" y="-8" type="qcurve" smooth="yes"/>
      <point x="283" y="-8"/>
      <point x="158" y="127"/>
      <point x="158" y="248" type="qcurve" smooth="yes"/>
      <point x="158" y="1490" type="line"/>
      <point x="338" y="1490" type="line"/>
      <point x="338" y="293" type="line" smooth="yes"/>
      <point x="338" y="216"/>
      <point x="375" y="153"/>
      <point x="431" y="153" type="qcurve" smooth="yes"/>
      <point x="460" y="153"/>
      <point x="490" y="157"/>
      <point x="503" y="161" type="qcurve"/>
      <point x="539" y="9" type="line"/>
      <point x="515" y="2"/>
      <point x="445" y="-8"/>
    </contour>
  </outline>
</glyph>
<glyph name="n" format="2">
  <advance width="1211"/>
  <unicode hex="006E"/>
  <anchor x="781" y="0" name="m.uni0326"/>
  <anchor x="781" y="1180" name="m.uni030F_1"/>
  <outline>
    <contour>
      <point x="338" y="670" type="qcurve" smooth="yes"/>
      <point x="338" y="0" type="line"/>
      <point x="158" y="0" type="line"/>
      <point x="158" y="1118" type="line"/>
      <point x="331" y="1118" type="line"/>
      <point x="332" y="847" type="line"/>
      <point x="307" y="847" type="line"/>
      <point x="358" y="1002"/>
      <point x="547" y="1132"/>
      <point x="674" y="1132" type="qcurve" smooth="yes"/>
      <point x="787" y="1132"/>
      <point x="958" y="1039"/>
      <point x="1053" y="852"/>
      <point x="1053" y="710" type="qcurve" smooth="yes"/>
      <point x="1053" y="0" type="line"/>
      <point x="872" y="0" type="line"/>
      <point x="872" y="695" type="line" smooth="yes"/>
      <point x="872" y="824"/>
      <point x="737" y="970"/>
      <point x="620" y="970" type="qcurve" smooth="yes"/>
      <point x="540" y="970"/>
      <point x="412" y="900"/>
      <point x="338" y="766"/>
    </contour>
  </outline>
</glyph>
<glyph name="s" format="2">
  <advance width="1081"/>
  <unicode hex="0073"/>
  <anchor x="756" y="0" name="m.uni0326"/>
  <anchor x="752" y="1180" name="m.uni030F_1"/>
  <anchor x="743" y="0" name="m.uni0327_3"/>
  <outline>
    <contour>
      <point x="538" y="-24" type="qcurve" smooth="yes"/>
      <point x="423" y="-24"/>
      <point x="244" y="43"/>
      <point x="128" y="175"/>
      <point x="108" y="271" type="qcurve"/>
      <point x="279" y="312" type="line"/>
      <point x="303" y="220"/>
      <point x="436" y="134"/>
      <point x="536" y="134" type="qcurve" smooth="yes"/>
      <point x="653" y="134"/>
      <point x="792" y="234"/>
      <point x="792" y="303" type="qcurve" smooth="yes"/>
      <point x="792" y="361"/>
      <point x="711" y="438"/>
      <point x="628" y="457" type="qcurve" smooth="yes"/>
      <point x="442" y="501" type="line" smooth="yes"/>
      <point x="290" y="537"/>
      <point x="142" y="688"/>
      <point x="142" y="806" type="qcurve" smooth="yes"/>
      <point x="142" y="902"/>
      <point x="250" y="1049"/>
      <point x="437" y="1132"/>
      <point x="556" y="1132" type="qcurve" smooth="yes"/>
      <point x="671" y="1132"/>
      <point x="832" y="1063"/>
      <point x="933" y="942"/>
      <point x="958" y="863" type="qcurve"/>
      <point x="795" y="821" type="line"/>
      <point x="772" y="881"/>
      <point x="665" y="979"/>
      <point x="557" y="979" type="qcurve" smooth="yes"/>
      <point x="457" y="979"/>
      <point x="324" y="887"/>
      <point x="324" y="817" type="qcurve" smooth="yes"/>
      <point x="324" y="755"/>
      <point x="414" y="680"/>
      <point x="512" y="657" type="qcurve" smooth="yes"/>
      <point x="681" y="617" type="line" smooth="yes"/>
      <point x="833" y="581"/>
      <point x="979" y="430"/>
      <point x="979" y="315" type="qcurve" smooth="yes"/>
      <point x="979" y="217"/>
      <point x="868" y="64"/>
      <point x="669" y="-24"/>
    </contour>
  </outline>
</glyph>
<glyph name="y" format="2">
  <advance width="1151"/>
  <unicode hex="0079"/>
  <anchor x="1278" y="0" name="m.uni0326"/>
  <anchor x="755" y="1180" name="m.uni030F_1"/>
  <anchor x="1134" y="0" name="m.uni0328_4"/>
  <outline>
    <contour>
      <point x="140" y="-405" type="qcurve"/>
      <point x="186" y="-249" type="line"/>
      <point x="205" y="-254" type="line" smooth="yes"/>
      <point x="260" y="-268"/>
      <point x="350" y="-255"/>
      <point x="422" y="-179"/>
      <point x="449" y="-99" type="qcurve" smooth="yes"/>
      <point x="481" y="-6" type="line"/>
      <point x="54" y="1118" type="line"/>
      <point x="251" y="1118" type="line"/>
      <point x="489" y="455" type="line" smooth="yes"/>
      <point x="527" y="351"/>
      <point x="579" y="147"/>
      <point x="608" y="51" type="qcurve"/>
      <point x="542" y="51" type="line"/>
      <point x="571" y="147"/>
      <point x="624" y="352"/>
      <point x="661" y="455" type="qcurve" smooth="yes"/>
      <point x="901" y="1118" type="line"/>
      <point x="1097" y="1118" type="line"/>
      <point x="606" y="-167" type="line" smooth="yes"/>
      <point x="572" y="-256"/>
      <point x="477" y="-371"/>
      <point x="351" y="-426"/>
      <point x="272" y="-426" type="qcurve" smooth="yes"/>
      <point x="224" y="-426"/>
      <point x="154" y="-412"/>
    </contour>
  </outline>
</glyph>
<glyph name="z" format="2">
  <advance width="1131"/>
  <unicode hex="007A"/>
  <anchor x="755" y="0" name="m.uni0326"/>
  <anchor x="757" y="1180" name="m.uni030F_1"/>
  <outline>
    <contour>
      <point x="126" y="0" type="line"/>
      <point x="126" y="134" type="line"/>
      <point x="753" y="940" type="line"/>
      <point x="753" y="951" type="line"/>
      <point x="146" y="951" type="line"/>
      <point x="146" y="1118" type="line"/>
      <point x="985" y="1118" type="line"/>
      <point x="985" y="975" type="line"/>
      <point x="376" y="178" type="line"/>
      <point x="376" y="167" type="line"/>
      <point x="1005" y="167" type="line"/>
      <point x="1005" y="0" type="line"/>
    </contour>
  </outline>
</glyph>
<glyph name="cent" format="2">
  <advance width="1170"/>
  <unicode hex="00A2"/>
  <anchor x="739" y="165" name="m.uni0326"/>
  <anchor x="739" y="1345" name="m.uni030F_1"/>
  <anchor x="739" y="165" name="m.uni0327_3"/>
  <outline>
    <contour>
      <point x="543" y="0" type="line"/>
      <point x="543" y="1490" type="line"/>
      <point x="661" y="1490" type="line"/>
      <point x="661" y="0" type="line"/>
    </contour>
    <contour>
      <point x="613" y="166" type="qcurve" smooth="yes"/>
      <point x="461" y="166"/>
      <point x="232" y="310"/>
      <point x="104" y="570"/>
      <point x="104" y="742" type="qcurve" smooth="yes"/>
      <point x="104" y="917"/>
      <point x="232" y="1178"/>
      <point x="461" y="1322"/>
      <point x="613" y="1322" type="qcurve" smooth="yes"/>
      <point x="694" y="1322"/>
      <point x="838" y="1280"/>
      <point x="957" y="1201"/>
      <point x="1043" y="1086"/>
      <point x="1066" y="1013" type="qcurve"/>
      <point x="893" y="964" type="line"/>
      <point x="881" y="1007"/>
      <point x="831" y="1079"/>
      <point x="760" y="1132"/>
      <point x="668" y="1161"/>
      <point x="613" y="1161" type="qcurve" smooth="yes"/>
      <point x="501" y="1161"/>
      <point x="357" y="1044"/>
      <point x="287" y="854"/>
      <point x="287" y="742" type="qcurve" smooth="yes"/>
      <point x="287" y="632"/>
      <point x="357" y="443"/>
      <point x="501" y="327"/>
      <point x="613" y="327" type="qcurve" smooth="yes"/>
      <point x="669" y="327"/>
      <point x="763" y="357"/>
      <point x="836" y="412"/>
      <point x="886" y="488"/>
      <point x="898" y="533" type="qcurve"/>
      <point x="1070" y="484" type="line"/>
      <point x="1048" y="409"/>
      <point x="961" y="292"/>
      <point x="841" y="209"/>
      <point x="695" y="166"/>
    </contour>
  </outline>
</glyph>
<glyph name="currency" format="2">
  <advance width="1484"/>
  <unicode hex="00A4"/>
  <outline>
    <contour>
      <point x="738" y="-20" type="qcurve" smooth="yes"/>
      <point x="614" y="-20"/>
      <point x="398" y="76"/>
      <point x="235" y="247"/>
      <point x="143" y="475"/>
      <point x="143" y="608" type="qcurve" smooth="yes"/>
      <point x="143" y="741"/>
      <point x="235" y="969"/>
      <point x="398" y="1139"/>
      <point x="614" y="1234"/>
      <point x="738" y="1234" type="qcurve" smooth="yes"/>
      <point x="861" y="1234"/>
      <point x="1078" y="1139"/>
      <point x="1242" y="969"/>
      <point x="1335" y="741"/>
      <point x="1335" y="608" type="qcurve" smooth="yes"/>
      <point x="1335" y="475"/>
      <point x="1242" y="246"/>
      <point x="1078" y="75"/>
      <point x="861" y="-20"/>
    </contour>
    <contour>
      <point x="738" y="142" type="qcurve" smooth="yes"/>
      <point x="858" y="142"/>
      <point x="1053" y="269"/>
      <point x="1168" y="481"/>
      <point x="1168" y="608" type="qcurve" smooth="yes"/>
      <point x="1168" y="737"/>
      <point x="1053" y="949"/>
      <point x="858" y="1074"/>
      <point x="738" y="1074" type="qcurve" smooth="yes"/>
      <point x="619" y="1074"/>
      <point x="422" y="949"/>
      <point x="305" y="737"/>
      <point x="305" y="608" type="qcurve" smooth="yes"/>
      <point x="305" y="481"/>
      <point x="422" y="269"/>
      <point x="619" y="142"/>
    </contour>
    <contour>
      <point x="1162" y="925" type="line"/>
      <point x="1044" y="1049" type="line"/>
      <point x="1244" y="1255" type="line"/>
      <point x="1366" y="1131" type="line"/>
    </contour>
    <contour>
      <point x="1244" y="-15" type="line"/>
      <point x="1044" y="191" type="line"/>
      <point x="1162" y="313" type="line"/>
      <point x="1366" y="109" type="line"/>
    </contour>
    <contour>
      <point x="238" y="-15" type="line"/>
      <point x="120" y="109" type="line"/>
      <point x="320" y="313" type="line"/>
      <point x="442" y="191" type="line"/>
    </contour>
    <contour>
      <point x="320" y="925" type="line"/>
      <point x="120" y="1131" type="line"/>
      <point x="238" y="1255" type="line"/>
      <point x="442" y="1049" type="line"/>
    </contour>
  </outline>
</glyph>
<glyph name="ordfeminine" format="2">
  <advance width="921"/>
  <unicode hex="00AA"/>
  <outline>
    <contour>
      <point x="583" y="862" type="qcurve" smooth="yes"/>
      <point x="583" y="1202" type="line" smooth="yes"/>
      <point x="583" y="1264"/>
      <point x="525" y="1330"/>
      <point x="466" y="1330" type="qcurve" smooth="yes"/>
      <point x="400" y="1330"/>
      <point x="326" y="1279"/>
      <point x="326" y="1230" type="qcurve"/>
      <point x="154" y="1246" type="line"/>
      <point x="154" y="1346"/>
      <point x="324" y="1478"/>
      <point x="466" y="1478" type="qcurve" smooth="yes"/>
      <point x="597" y="1478"/>
      <point x="757" y="1339"/>
      <point x="757" y="1202" type="qcurve" smooth="yes"/>
      <point x="757" y="888" type="line" smooth="yes"/>
      <point x="757" y="839"/>
      <point x="768" y="750"/>
      <point x="783" y="706" type="qcurve"/>
      <point x="607" y="706" type="line"/>
      <point x="596" y="741"/>
      <point x="583" y="822"/>
    </contour>
    <contour>
      <point x="627" y="1152" type="line"/>
      <point x="627" y="1036" type="line"/>
      <point x="481" y="1036" type="line" smooth="yes"/>
      <point x="395" y="1036"/>
      <point x="314" y="970"/>
      <point x="314" y="926" type="qcurve" smooth="yes"/>
      <point x="314" y="884"/>
      <point x="370" y="838"/>
      <point x="430" y="838" type="qcurve" smooth="yes"/>
      <point x="471" y="838"/>
      <point x="555" y="874"/>
      <point x="611" y="927"/>
      <point x="611" y="952" type="qcurve"/>
      <point x="629" y="834" type="line"/>
      <point x="607" y="787"/>
      <point x="490" y="692"/>
      <point x="386" y="692" type="qcurve" smooth="yes"/>
      <point x="267" y="692"/>
      <point x="136" y="817"/>
      <point x="136" y="920" type="qcurve" smooth="yes"/>
      <point x="136" y="1031"/>
      <point x="308" y="1152"/>
      <point x="481" y="1152" type="qcurve" smooth="yes"/>
    </contour>
  </outline>
</glyph>
<glyph name="three.sups" format="2">
  <advance width="887"/>
  <unicode hex="00B3"/>
  <outline>
    <contour>
      <point x="442" y="734" type="qcurve" smooth="yes"/>
      <point x="342" y="734"/>
      <point x="183" y="800"/>
      <point x="89" y="918"/>
      <point x="88" y="995" type="qcurve"/>
      <point x="253" y="995" type="line"/>
      <point x="255" y="937"/>
      <point x="363" y="868"/>
      <point x="442" y="868" type="qcurve" smooth="yes"/>
      <point x="526" y="868"/>
      <point x="634" y="945"/>
      <point x="634" y="1005" type="qcurve" smooth="yes"/>
      <point x="634" y="1064"/>
      <point x="519" y="1142"/>
      <point x="421" y="1142" type="qcurve" smooth="yes"/>
      <point x="346" y="1142" type="line"/>
      <point x="346" y="1262" type="line"/>
      <point x="421" y="1262" type="line" smooth="yes"/>
      <point x="501" y="1262"/>
      <point x="608" y="1333"/>
      <point x="608" y="1393" type="qcurve" smooth="yes"/>
      <point x="608" y="1448"/>
      <point x="518" y="1520"/>
      <point x="444" y="1520" type="qcurve" smooth="yes"/>
      <point x="371" y="1520"/>
      <point x="266" y="1449"/>
      <point x="263" y="1389" type="qcurve"/>
      <point x="108" y="1389" type="line"/>
      <point x="110" y="1467"/>
      <point x="199" y="1584"/>
      <point x="350" y="1650"/>
      <point x="444" y="1650" type="qcurve" smooth="yes"/>
      <point x="540" y="1650"/>
      <point x="685" y="1585"/>
      <point x="766" y="1473"/>
      <point x="766" y="1401" type="qcurve" smooth="yes"/>
      <point x="766" y="1323"/>
      <point x="660" y="1224"/>
      <point x="581" y="1210" type="qcurve"/>
      <point x="581" y="1204" type="line"/>
      <point x="686" y="1190"/>
      <point x="803" y="1076"/>
      <point x="803" y="993" type="qcurve" smooth="yes"/>
      <point x="803" y="919"/>
      <point x="710" y="801"/>
      <point x="547" y="734"/>
    </contour>
  </outline>
</glyph>
<glyph name="ordmasculine" format="2">
  <advance width="922"/>
  <unicode hex="00BA"/>
  <outline>
    <contour>
      <point x="114" y="1044" type="qcurve"/>
      <point x="114" y="1122" type="line" smooth="yes"/>
      <point x="114" y="1226"/>
      <point x="198" y="1387"/>
      <point x="355" y="1478"/>
      <point x="461" y="1478" type="qcurve" smooth="yes"/>
      <point x="622" y="1478"/>
      <point x="808" y="1277"/>
      <point x="808" y="1122" type="qcurve" smooth="yes"/>
      <point x="808" y="1044" type="line" smooth="yes"/>
      <point x="808" y="890"/>
      <point x="623" y="692"/>
      <point x="463" y="692" type="qcurve" smooth="yes"/>
      <point x="300" y="692"/>
      <point x="113" y="890"/>
    </contour>
    <contour>
      <point x="288" y="1122" type="qcurve" smooth="yes"/>
      <point x="288" y="1044" type="line" smooth="yes"/>
      <point x="288" y="956"/>
      <point x="375" y="838"/>
      <point x="463" y="838" type="qcurve" smooth="yes"/>
      <point x="549" y="838"/>
      <point x="633" y="955"/>
      <point x="633" y="1044" type="qcurve" smooth="yes"/>
      <point x="633" y="1122" type="line"/>
      <point x="632" y="1211"/>
      <point x="547" y="1330"/>
      <point x="461" y="1330" type="qcurve" smooth="yes"/>
      <point x="375" y="1330"/>
      <point x="288" y="1209"/>
    </contour>
  </outline>
</glyph>
<glyph name="eng" format="2">
  <advance width="1211"/>
  <unicode hex="014B"/>
  <anchor x="781" y="0" name="m.uni0326"/>
  <anchor x="781" y="1180" name="m.uni030F_1"/>
  <outline>
    <contour>
      <point x="658" y="-418" type="qcurve"/>
      <point x="658" y="-259" type="line"/>
      <point x="675" y="-262"/>
      <point x="716" y="-264"/>
      <point x="726" y="-264" type="qcurve" smooth="yes"/>
      <point x="810" y="-264"/>
      <point x="872" y="-215"/>
      <point x="872" y="-163" type="qcurve" smooth="yes"/>
      <point x="872" y="0" type="line"/>
      <point x="1053" y="0" type="line"/>
      <point x="1053" y="-171" type="line" smooth="yes"/>
      <point x="1053" y="-295"/>
      <point x="905" y="-427"/>
      <point x="762" y="-427" type="qcurve" smooth="yes"/>
      <point x="730" y="-427"/>
      <point x="673" y="-422"/>
    </contour>
    <contour>
      <point x="338" y="670" type="qcurve" smooth="yes"/>
      <point x="338" y="0" type="line"/>
      <point x="158" y="0" type="line"/>
      <point x="158" y="1118" type="line"/>
      <point x="331" y="1118" type="line"/>
      <point x="332" y="847" type="line"/>
      <point x="307" y="847" type="line"/>
      <point x="358" y="1002"/>
      <point x="547" y="1132"/>
      <point x="674" y="1132" type="qcurve" smooth="yes"/>
      <point x="787" y="1132"/>
      <point x="958" y="1039"/>
      <point x="1053" y="852"/>
      <point x="1053" y="710" type="qcurve" smooth="yes"/>
      <point x="1053" y="0" type="line"/>
      <point x="872" y="0" type="line"/>
      <point x="872" y="695" type="line" smooth="yes"/>
      <point x="872" y="824"/>
      <point x="737" y="970"/>
      <point x="620" y="970" type="qcurve" smooth="yes"/>
      <point x="540" y="970"/>
      <point x="412" y="900"/>
      <point x="338" y="766"/>
    </contour>
  </outline>
</glyph>
<glyph name="uni0182" format="2">
  <advance width="1344"/>
  <unicode hex="0182"/>
  <outline>
    <contour>
      <point x="180" y="0" type="line"/>
      <point x="180" y="1490" type="line"/>
      <point x="1087" y="1490" type="line"/>
      <point x="1087" y="1323" type="line"/>
      <point x="370" y="1323" type="line"/>
      <point x="370" y="870" type="line"/>
      <point x="738" y="870" type="line" smooth="yes"/>
      <point x="900" y="870"/>
      <point x="1124" y="765"/>
      <point x="1240" y="573"/>
      <point x="1240" y="443" type="qcurve" smooth="yes"/>
      <point x="1240" y="312"/>
      <point x="1124" y="112"/>
      <point x="900" y="0"/>
      <point x="738" y="0" type="qcurve" smooth="yes"/>
    </contour>
    <contour>
      <point x="370" y="165" type="line"/>
      <point x="738" y="165" type="line" smooth="yes"/>
      <point x="839" y="165"/>
      <point x="979" y="245"/>
      <point x="1052" y="374"/>
      <point x="1052" y="445" type="qcurve" smooth="yes"/>
      <point x="1052" y="551"/>
      <point x="890" y="703"/>
      <point x="738" y="703" type="qcurve" smooth="yes"/>
      <point x="370" y="703" type="line"/>
    </contour>
  </outline>
</glyph>
<glyph name="uni0183" format="2">
  <advance width="1254"/>
  <unicode hex="0183"/>
  <anchor x="677" y="0" name="m.uni0326"/>
  <anchor x="1042" y="1388" name="m.uni030F_1"/>
  <outline>
    <contour>
      <point x="251" y="1337" type="line"/>
      <point x="158" y="1490" type="line"/>
      <point x="995" y="1490" type="line"/>
      <point x="995" y="1337" type="line"/>
    </contour>
    <contour>
      <point x="677" y="-24" type="qcurve" smooth="yes"/>
      <point x="571" y="-24"/>
      <point x="441" y="49"/>
      <point x="371" y="142"/>
      <point x="352" y="173" type="qcurve"/>
      <point x="332" y="173" type="line"/>
      <point x="332" y="0" type="line"/>
      <point x="158" y="0" type="line"/>
      <point x="158" y="1490" type="line"/>
      <point x="338" y="1490" type="line"/>
      <point x="338" y="939" type="line"/>
      <point x="352" y="939" type="line"/>
      <point x="371" y="969"/>
      <point x="439" y="1060"/>
      <point x="567" y="1132"/>
      <point x="676" y="1132" type="qcurve" smooth="yes"/>
      <point x="816" y="1132"/>
      <point x="1029" y="992"/>
      <point x="1150" y="733"/>
      <point x="1150" y="556" type="qcurve" smooth="yes"/>
      <point x="1150" y="378"/>
      <point x="1030" y="118"/>
      <point x="817" y="-24"/>
    </contour>
    <contour>
      <point x="650" y="137" type="qcurve" smooth="yes"/>
      <point x="755" y="137"/>
      <point x="896" y="250"/>
      <point x="967" y="441"/>
      <point x="967" y="558" type="qcurve" smooth="yes"/>
      <point x="967" y="674"/>
      <point x="897" y="861"/>
      <point x="756" y="971"/>
      <point x="650" y="971" type="qcurve" smooth="yes"/>
      <point x="547" y="971"/>
      <point x="407" y="867"/>
      <point x="336" y="682"/>
      <point x="336" y="558" type="qcurve" smooth="yes"/>
      <point x="336" y="434"/>
      <point x="408" y="244"/>
      <point x="549" y="137"/>
    </contour>
  </outline>
</glyph>
<glyph name="uni0184" format="2">
  <advance width="1470"/>
  <unicode hex="0184"/>
  <outline>
    <contour>
      <point x="557" y="1490" type="line"/>
      <point x="557" y="1323" type="line"/>
      <point x="20" y="1323" type="line"/>
      <point x="20" y="1490" type="line"/>
    </contour>
    <contour>
      <point x="510" y="870" type="line"/>
      <point x="929" y="870" type="line" smooth="yes"/>
      <point x="1090" y="870"/>
      <point x="1313" y="765"/>
      <point x="1428" y="573"/>
      <point x="1428" y="443" type="qcurve" smooth="yes"/>
      <point x="1428" y="312"/>
      <point x="1313" y="112"/>
      <point x="1090" y="0"/>
      <point x="929" y="0" type="qcurve" smooth="yes"/>
      <point x="371" y="0" type="line"/>
      <point x="371" y="1490" type="line"/>
      <point x="561" y="1490" type="line"/>
      <point x="561" y="165" type="line"/>
      <point x="929" y="165" type="line" smooth="yes"/>
      <point x="1030" y="165"/>
      <point x="1169" y="245"/>
      <point x="1242" y="373"/>
      <point x="1242" y="445" type="qcurve" smooth="yes"/>
      <point x="1242" y="551"/>
      <point x="1080" y="703"/>
      <point x="929" y="703" type="qcurve" smooth="yes"/>
      <point x="510" y="703" type="line"/>
    </contour>
  </outline>
</glyph>
<glyph name="uni018A" format="2">
  <advance width="1758"/>
  <unicode hex="018A"/>
  <anchor x="1468" y="0" name="m.uni0326"/>
  <anchor x="1311" y="1490" name="m.uni030F_1"/>
  <outline>
    <contour>
      <point x="60" y="1114" type="line"/>
      <point x="60" y="1188" type="line" smooth="yes"/>
      <point x="60" y="1340"/>
      <point x="214" y="1490"/>
      <point x="368" y="1490" type="qcurve" smooth="yes"/>
      <point x="460" y="1490" type="line"/>
      <point x="460" y="1323" type="line"/>
      <point x="369" y="1323" type="line" smooth="yes"/>
      <point x="302" y="1323"/>
      <point x="238" y="1257"/>
      <point x="238" y="1186" type="qcurve" smooth="yes"/>
      <point x="238" y="1114" type="line"/>
    </contour>
    <contour>
      <point x="925" y="0" type="qcurve" smooth="yes"/>
      <point x="565" y="0" type="line"/>
      <point x="565" y="168" type="line"/>
      <point x="913" y="168" type="line" smooth="yes"/>
      <point x="1095" y="168"/>
      <point x="1334" y="307"/>
      <point x="1452" y="567"/>
      <point x="1452" y="748" type="qcurve" smooth="yes"/>
      <point x="1452" y="927"/>
      <point x="1335" y="1184"/>
      <point x="1104" y="1322"/>
      <point x="931" y="1322" type="qcurve" smooth="yes"/>
      <point x="557" y="1322" type="line"/>
      <point x="557" y="1490" type="line"/>
      <point x="944" y="1490" type="line" smooth="yes"/>
      <point x="1162" y="1490"/>
      <point x="1471" y="1312"/>
      <point x="1636" y="979"/>
      <point x="1636" y="748" type="qcurve" smooth="yes"/>
      <point x="1636" y="515"/>
      <point x="1470" y="180"/>
      <point x="1152" y="0"/>
    </contour>
    <contour>
      <point x="650" y="1490" type="line"/>
      <point x="650" y="0" type="line"/>
      <point x="460" y="0" type="line"/>
      <point x="460" y="1490" type="line"/>
    </contour>
  </outline>
</glyph>
<glyph name="uni018F" format="2">
  <advance width="1528"/>
  <unicode hex="018F"/>
  <outline>
    <contour>
      <point x="754" y="-20" type="qcurve" smooth="yes"/>
      <point x="621" y="-20"/>
      <point x="393" y="65"/>
      <point x="223" y="224"/>
      <point x="128" y="447"/>
      <point x="128" y="586" type="qcurve" smooth="yes"/>
      <point x="128" y="749" type="line"/>
      <point x="1295" y="749" type="line"/>
      <point x="1295" y="583" type="line"/>
      <point x="257" y="583" type="line"/>
      <point x="314" y="594" type="line"/>
      <point x="314" y="460"/>
      <point x="429" y="263"/>
      <point x="629" y="156"/>
      <point x="754" y="156" type="qcurve" smooth="yes"/>
      <point x="891" y="156"/>
      <point x="1102" y="291"/>
      <point x="1221" y="554"/>
      <point x="1221" y="744" type="qcurve" smooth="yes"/>
      <point x="1221" y="935"/>
      <point x="1095" y="1198"/>
      <point x="882" y="1334"/>
      <point x="750" y="1334" type="qcurve" smooth="yes"/>
      <point x="672" y="1334"/>
      <point x="540" y="1292"/>
      <point x="434" y="1211"/>
      <point x="357" y="1096"/>
      <point x="334" y="1023" type="qcurve"/>
      <point x="138" y="1023" type="line"/>
      <point x="158" y="1131"/>
      <point x="265" y="1310"/>
      <point x="427" y="1440"/>
      <point x="632" y="1510"/>
      <point x="750" y="1510" type="qcurve" smooth="yes"/>
      <point x="942" y="1510"/>
      <point x="1238" y="1324"/>
      <point x="1406" y="981"/>
      <point x="1406" y="744" type="qcurve" smooth="yes"/>
      <point x="1406" y="509"/>
      <point x="1246" y="166"/>
      <point x="953" y="-20"/>
    </contour>
  </outline>
</glyph>
<glyph name="Epsilon1" format="2">
  <advance width="1314"/>
  <unicode hex="0190"/>
  <anchor x="787" y="1490" name="m.uni030F_1"/>
  <outline>
    <contour>
      <point x="652" y="-20" type="qcurve" smooth="yes"/>
      <point x="506" y="-20"/>
      <point x="276" y="91"/>
      <point x="144" y="283"/>
      <point x="144" y="405" type="qcurve" smooth="yes"/>
      <point x="144" y="499"/>
      <point x="215" y="649"/>
      <point x="350" y="747"/>
      <point x="445" y="762" type="qcurve"/>
      <point x="445" y="774" type="line"/>
      <point x="331" y="808"/>
      <point x="198" y="984"/>
      <point x="198" y="1110" type="qcurve" smooth="yes"/>
      <point x="198" y="1216"/>
      <point x="306" y="1398"/>
      <point x="507" y="1510"/>
      <point x="646" y="1510" type="qcurve" smooth="yes"/>
      <point x="777" y="1510"/>
      <point x="994" y="1410"/>
      <point x="1126" y="1232"/>
      <point x="1130" y="1115" type="qcurve"/>
      <point x="947" y="1115" type="line"/>
      <point x="944" y="1188"/>
      <point x="859" y="1290"/>
      <point x="726" y="1345"/>
      <point x="650" y="1345" type="qcurve" smooth="yes"/>
      <point x="569" y="1345"/>
      <point x="450" y="1284"/>
      <point x="384" y="1174"/>
      <point x="384" y="1100" type="qcurve" smooth="yes"/>
      <point x="384" y="1023"/>
      <point x="459" y="909"/>
      <point x="591" y="846"/>
      <point x="678" y="846" type="qcurve" smooth="yes"/>
      <point x="799" y="846" type="line"/>
      <point x="799" y="681" type="line"/>
      <point x="678" y="681" type="line" smooth="yes"/>
      <point x="568" y="681"/>
      <point x="413" y="611"/>
      <point x="332" y="488"/>
      <point x="332" y="407" type="qcurve" smooth="yes"/>
      <point x="332" y="330"/>
      <point x="416" y="212"/>
      <point x="562" y="147"/>
      <point x="655" y="147" type="qcurve" smooth="yes"/>
      <point x="740" y="147"/>
      <point x="879" y="202"/>
      <point x="965" y="305"/>
      <point x="970" y="376" type="qcurve"/>
      <point x="1162" y="376" type="line"/>
      <point x="1157" y="258"/>
      <point x="1025" y="80"/>
      <point x="798" y="-20"/>
    </contour>
  </outline>
</glyph>
<glyph name="florin" format="2">
  <advance width="798"/>
  <unicode hex="0192"/>
  <outline>
    <contour>
      <point x="672" y="1082" type="line"/>
      <point x="672" y="929" type="line"/>
      <point x="467" y="929" type="line"/>
      <point x="467" y="-69" type="line" smooth="yes"/>
      <point x="467" y="-239"/>
      <point x="300" y="-418"/>
      <point x="145" y="-418" type="qcurve" smooth="yes"/>
      <point x="114" y="-418"/>
      <point x="59" y="-413"/>
      <point x="30" y="-404" type="qcurve"/>
      <point x="44" y="-242" type="line"/>
      <point x="60" y="-248"/>
      <point x="130" y="-252"/>
      <point x="142" y="-252" type="qcurve" smooth="yes"/>
      <point x="201" y="-252"/>
      <point x="278" y="-155"/>
      <point x="278" y="-69" type="qcurve" smooth="yes"/>
      <point x="278" y="929" type="line"/>
      <point x="97" y="929" type="line"/>
      <point x="97" y="1082" type="line"/>
      <point x="278" y="1082" type="line"/>
      <point x="278" y="1191" type="line" smooth="yes"/>
      <point x="278" y="1369"/>
      <point x="457" y="1556"/>
      <point x="596" y="1556" type="qcurve" smooth="yes"/>
      <point x="638" y="1556"/>
      <point x="739" y="1541"/>
      <point x="768" y="1530" type="qcurve"/>
      <point x="725" y="1369" type="line"/>
      <point x="710" y="1373"/>
      <point x="669" y="1379"/>
      <point x="643" y="1379" type="qcurve" smooth="yes"/>
      <point x="557" y="1379"/>
      <point x="467" y="1286"/>
      <point x="467" y="1191" type="qcurve" smooth="yes"/>
      <point x="467" y="1082" type="line"/>
    </contour>
  </outline>
</glyph>
<glyph name="uni0198" format="2">
  <advance width="1389"/>
  <unicode hex="0198"/>
  <outline>
    <contour>
      <point x="180" y="0" type="line"/>
      <point x="180" y="1490" type="line"/>
      <point x="370" y="1490" type="line"/>
      <point x="370" y="757" type="line"/>
      <point x="388" y="757" type="line"/>
      <point x="971" y="1399" type="line" smooth="yes"/>
      <point x="1030" y="1464"/>
      <point x="1168" y="1515"/>
      <point x="1309" y="1495"/>
      <point x="1371" y="1451" type="qcurve"/>
      <point x="1297" y="1311" type="line"/>
      <point x="1247" y="1343"/>
      <point x="1147" y="1324"/>
      <point x="1093" y="1266" type="qcurve" smooth="yes"/>
      <point x="674" y="817" type="line"/>
      <point x="1298" y="0" type="line"/>
      <point x="1068" y="0" type="line"/>
      <point x="556" y="684" type="line"/>
      <point x="370" y="475" type="line"/>
      <point x="370" y="0" type="line"/>
    </contour>
  </outline>
</glyph>
<glyph name="mcapturn" format="2">
  <advance width="1859"/>
  <unicode hex="019C"/>
  <outline>
    <contour>
      <point x="1487" y="215" type="line"/>
      <point x="1487" y="1490" type="line"/>
      <point x="1693" y="1490" type="line"/>
      <point x="1693" y="0" type="line"/>
      <point x="1498" y="0" type="line"/>
    </contour>
    <contour>
      <point x="1504" y="504" type="qcurve"/>
      <point x="1596" y="506" type="line"/>
      <point x="1596" y="355"/>
      <point x="1512" y="117"/>
      <point x="1331" y="-20"/>
      <point x="1183" y="-20" type="qcurve" smooth="yes"/>
      <point x="1077" y="-20"/>
      <point x="916" y="66"/>
      <point x="826" y="267"/>
      <point x="826" y="441" type="qcurve" smooth="yes"/>
      <point x="826" y="1490" type="line"/>
      <point x="1032" y="1490" type="line"/>
      <point x="1032" y="441" type="line" smooth="yes"/>
      <point x="1032" y="326"/>
      <point x="1087" y="200"/>
      <point x="1173" y="152"/>
      <point x="1220" y="152" type="qcurve" smooth="yes"/>
      <point x="1333" y="152"/>
      <point x="1456" y="255"/>
      <point x="1504" y="417"/>
    </contour>
    <contour>
      <point x="846" y="504" type="qcurve"/>
      <point x="938" y="506" type="line"/>
      <point x="939" y="355"/>
      <point x="853" y="117"/>
      <point x="669" y="-20"/>
      <point x="521" y="-20" type="qcurve" smooth="yes"/>
      <point x="413" y="-20"/>
      <point x="253" y="67"/>
      <point x="166" y="269"/>
      <point x="166" y="441" type="qcurve" smooth="yes"/>
      <point x="166" y="1490" type="line"/>
      <point x="374" y="1490" type="line"/>
      <point x="374" y="441" type="line" smooth="yes"/>
      <point x="374" y="326"/>
      <point x="427" y="200"/>
      <point x="511" y="152"/>
      <point x="557" y="152" type="qcurve" smooth="yes"/>
      <point x="653" y="152"/>
      <point x="768" y="224"/>
      <point x="827" y="334"/>
      <point x="846" y="455"/>
    </contour>
  </outline>
</glyph>
<glyph name="uni01B3" format="2">
  <advance width="1460"/>
  <unicode hex="01B3"/>
  <outline>
    <contour>
      <point x="674" y="764" type="line"/>
      <point x="674" y="798" type="line"/>
      <point x="710" y="798" type="line"/>
      <point x="710" y="764" type="line"/>
    </contour>
    <contour>
      <point x="56" y="1490" type="line"/>
      <point x="272" y="1490" type="line"/>
      <point x="692" y="784" type="line"/>
      <point x="1022" y="1339" type="line" smooth="yes"/>
      <point x="1071" y="1421"/>
      <point x="1200" y="1505"/>
      <point x="1346" y="1512"/>
      <point x="1420" y="1478" type="qcurve"/>
      <point x="1370" y="1325" type="line"/>
      <point x="1316" y="1348"/>
      <point x="1222" y="1322"/>
      <point x="1183" y="1258" type="qcurve" smooth="yes"/>
      <point x="787" y="611" type="line"/>
      <point x="787" y="0" type="line"/>
      <point x="597" y="0" type="line"/>
      <point x="597" y="611" type="line"/>
    </contour>
  </outline>
</glyph>
<glyph name="uni01B9" format="2">
  <advance width="1319"/>
  <unicode hex="01B9"/>
  <anchor x="823" y="1180" name="m.uni030F_1"/>
  <outline>
    <contour>
      <point x="659" y="-392" type="qcurve" smooth="yes"/>
      <point x="508" y="-392"/>
      <point x="276" y="-279"/>
      <point x="144" y="-81"/>
      <point x="144" y="46" type="qcurve" smooth="yes"/>
      <point x="144" y="169"/>
      <point x="264" y="366"/>
      <point x="472" y="485"/>
      <point x="602" y="491" type="qcurve"/>
      <point x="602" y="503" type="line"/>
      <point x="201" y="979" type="line"/>
      <point x="201" y="1118" type="line"/>
      <point x="1093" y="1118" type="line"/>
      <point x="1093" y="951" type="line"/>
      <point x="460" y="951" type="line"/>
      <point x="460" y="939" type="line"/>
      <point x="829" y="499" type="line"/>
      <point x="829" y="347" type="line"/>
      <point x="708" y="347" type="line" smooth="yes"/>
      <point x="574" y="347"/>
      <point x="408" y="264"/>
      <point x="333" y="128"/>
      <point x="333" y="48" type="qcurve" smooth="yes"/>
      <point x="333" y="-42"/>
      <point x="418" y="-163"/>
      <point x="564" y="-225"/>
      <point x="655" y="-225" type="qcurve" smooth="yes"/>
      <point x="741" y="-225"/>
      <point x="879" y="-172"/>
      <point x="966" y="-69"/>
      <point x="973" y="4" type="qcurve"/>
      <point x="1167" y="4" type="line"/>
      <point x="1159" y="-120"/>
      <point x="1019" y="-297"/>
      <point x="795" y="-392"/>
    </contour>
  </outline>
</glyph>
<glyph name="uni01F7" format="2">
  <advance width="1302"/>
  <unicode hex="01F7"/>
  <outline>
    <contour>
      <point x="330" y="1490" type="line"/>
      <point x="330" y="-418" type="line"/>
      <point x="114" y="-418" type="line"/>
      <point x="114" y="1490" type="line"/>
    </contour>
    <contour>
      <point x="218" y="-181" type="qcurve"/>
      <point x="218" y="-8" type="line"/>
      <point x="413" y="24"/>
      <point x="697" y="192"/>
      <point x="883" y="427"/>
      <point x="973" y="697"/>
      <point x="973" y="829" type="qcurve" smooth="yes"/>
      <point x="973" y="885" type="line" smooth="yes"/>
      <point x="973" y="1002"/>
      <point x="925" y="1172"/>
      <point x="831" y="1283"/>
      <point x="692" y="1336"/>
      <point x="601" y="1336" type="qcurve" smooth="yes"/>
      <point x="486" y="1336"/>
      <point x="348" y="1257"/>
      <point x="276" y="1112"/>
      <point x="260" y="1014" type="qcurve"/>
      <point x="260" y="1407" type="line"/>
      <point x="319" y="1454"/>
      <point x="482" y="1510"/>
      <point x="599" y="1510" type="qcurve" smooth="yes"/>
      <point x="776" y="1510"/>
      <point x="1041" y="1373"/>
      <point x="1188" y="1094"/>
      <point x="1188" y="881" type="qcurve" smooth="yes"/>
      <point x="1188" y="829" type="line" smooth="yes"/>
      <point x="1188" y="634"/>
      <point x="1041" y="291"/>
      <point x="778" y="21"/>
      <point x="425" y="-154"/>
    </contour>
  </outline>
</glyph>
<glyph name="uni0223" format="2">
  <advance width="1294"/>
  <unicode hex="0223"/>
  <outline>
    <contour>
      <point x="635" y="880" type="qcurve"/>
      <point x="659" y="880" type="line" smooth="yes"/>
      <point x="815" y="880"/>
      <point x="1065" y="782"/>
      <point x="1210" y="585"/>
      <point x="1210" y="438" type="qcurve" smooth="yes"/>
      <point x="1210" y="284"/>
      <point x="1064" y="80"/>
      <point x="815" y="-20"/>
      <point x="659" y="-20" type="qcurve" smooth="yes"/>
      <point x="635" y="-20" type="line" smooth="yes"/>
      <point x="480" y="-20"/>
      <point x="230" y="80"/>
      <point x="84" y="283"/>
      <point x="84" y="436" type="qcurve" smooth="yes"/>
      <point x="84" y="585"/>
      <point x="230" y="782"/>
      <point x="479" y="881"/>
    </contour>
    <contour>
      <point x="659" y="725" type="qcurve"/>
      <point x="635" y="725" type="line" smooth="yes"/>
      <point x="481" y="725"/>
      <point x="294" y="581"/>
      <point x="294" y="436" type="qcurve" smooth="yes"/>
      <point x="294" y="291"/>
      <point x="481" y="146"/>
      <point x="635" y="146" type="qcurve" smooth="yes"/>
      <point x="659" y="146" type="line" smooth="yes"/>
      <point x="811" y="146"/>
      <point x="1000" y="291"/>
      <point x="1000" y="438" type="qcurve" smooth="yes"/>
      <point x="1000" y="582"/>
      <point x="810" y="724"/>
    </contour>
    <contour>
      <point x="666" y="891" type="line" smooth="yes"/>
      <point x="755" y="891"/>
      <point x="907" y="933"/>
      <point x="1000" y="1043"/>
      <point x="1000" y="1144" type="qcurve" smooth="yes"/>
      <point x="1000" y="1251"/>
      <point x="905" y="1367"/>
      <point x="813" y="1402" type="qcurve"/>
      <point x="813" y="1556" type="line"/>
      <point x="925" y="1552"/>
      <point x="1104" y="1454"/>
      <point x="1210" y="1273"/>
      <point x="1210" y="1144" type="qcurve" smooth="yes"/>
      <point x="1210" y="994"/>
      <point x="1059" y="815"/>
      <point x="812" y="737"/>
      <point x="666" y="737" type="qcurve" smooth="yes"/>
      <point x="627" y="737" type="line" smooth="yes"/>
      <point x="482" y="737"/>
      <point x="234" y="815"/>
      <point x="84" y="994"/>
      <point x="84" y="1144" type="qcurve" smooth="yes"/>
      <point x="84" y="1274"/>
      <point x="190" y="1455"/>
      <point x="371" y="1552"/>
      <point x="481" y="1556" type="qcurve"/>
      <point x="481" y="1402" type="line"/>
      <point x="390" y="1367"/>
      <point x="294" y="1251"/>
      <point x="294" y="1144" type="qcurve" smooth="yes"/>
      <point x="294" y="1044"/>
      <point x="386" y="934"/>
      <point x="538" y="891"/>
      <point x="627" y="891" type="qcurve" smooth="yes"/>
    </contour>
  </outline>
</glyph>
<glyph name="uni023B" format="2">
  <advance width="1496"/>
  <unicode hex="023B"/>
  <anchor x="813" y="1490" name="m.uni030F_1"/>
  <anchor x="796" y="1" name="m.uni0327_3"/>
  <outline>
    <contour>
      <point x="338" y="-190" type="line"/>
      <point x="1000" y="1678" type="line"/>
      <point x="1166" y="1678" type="line"/>
      <point x="504" y="-190" type="line"/>
    </contour>
    <contour>
      <point x="783" y="-20" type="qcurve" smooth="yes"/>
      <point x="592" y="-20"/>
      <point x="293" y="165"/>
      <point x="122" y="508"/>
      <point x="122" y="744" type="qcurve" smooth="yes"/>
      <point x="122" y="981"/>
      <point x="293" y="1324"/>
      <point x="592" y="1510"/>
      <point x="783" y="1510" type="qcurve" smooth="yes"/>
      <point x="896" y="1510"/>
      <point x="1097" y="1444"/>
      <point x="1257" y="1317"/>
      <point x="1364" y="1136"/>
      <point x="1384" y="1021" type="qcurve"/>
      <point x="1194" y="1021" type="line"/>
      <point x="1178" y="1098"/>
      <point x="1101" y="1214"/>
      <point x="990" y="1294"/>
      <point x="856" y="1334"/>
      <point x="783" y="1334" type="qcurve" smooth="yes"/>
      <point x="649" y="1334"/>
      <point x="433" y="1198"/>
      <point x="307" y="935"/>
      <point x="307" y="744" type="qcurve" smooth="yes"/>
      <point x="307" y="554"/>
      <point x="434" y="291"/>
      <point x="650" y="156"/>
      <point x="783" y="156" type="qcurve" smooth="yes"/>
      <point x="856" y="156"/>
      <point x="990" y="197"/>
      <point x="1101" y="276"/>
      <point x="1178" y="393"/>
      <point x="1194" y="469" type="qcurve"/>
      <point x="1384" y="469" type="line"/>
      <point x="1365" y="355"/>
      <point x="1258" y="175"/>
      <point x="1098" y="47"/>
      <point x="897" y="-20"/>
    </contour>
  </outline>
</glyph>
<glyph name="uni023E" format="2">
  <advance width="1322"/>
  <unicode hex="023E"/>
  <anchor x="784" y="0" name="m.uni0326"/>
  <anchor x="786" y="1490" name="m.uni030F_1"/>
  <anchor x="786" y="0" name="m.uni0327_3"/>
  <outline>
    <contour>
      <point x="208" y="-209" type="line"/>
      <point x="970" y="1699" type="line"/>
      <point x="1110" y="1699" type="line"/>
      <point x="348" y="-209" type="line"/>
    </contour>
    <contour>
      <point x="98" y="1322" type="line"/>
      <point x="98" y="1490" type="line"/>
      <point x="1224" y="1490" type="line"/>
      <point x="1224" y="1322" type="line"/>
      <point x="757" y="1322" type="line"/>
      <point x="757" y="0" type="line"/>
      <point x="567" y="0" type="line"/>
      <point x="567" y="1322" type="line"/>
    </contour>
  </outline>
</glyph>
<glyph name="uni0240" format="2">
  <advance width="1131"/>
  <unicode hex="0240"/>
  <outline>
    <contour>
      <point x="126" y="0" type="line"/>
      <point x="126" y="134" type="line"/>
      <point x="753" y="940" type="line"/>
      <point x="753" y="951" type="line"/>
      <point x="146" y="951" type="line"/>
      <point x="146" y="1118" type="line"/>
      <point x="985" y="1118" type="line"/>
      <point x="985" y="975" type="line"/>
      <point x="376" y="178" type="line"/>
      <point x="376" y="0" type="line"/>
    </contour>
    <contour>
      <point x="1024" y="-418" type="qcurve" smooth="yes"/>
      <point x="971" y="-418"/>
      <point x="875" y="-371"/>
      <point x="773" y="-265"/>
      <point x="712" y="-175" type="qcurve" smooth="yes"/>
      <point x="660" y="-97"/>
      <point x="586" y="-23"/>
      <point x="498" y="0"/>
      <point x="423" y="0" type="qcurve" smooth="yes"/>
      <point x="299" y="0" type="line"/>
      <point x="299" y="167" type="line"/>
      <point x="426" y="167" type="line" smooth="yes"/>
      <point x="529" y="167"/>
      <point x="666" y="123"/>
      <point x="778" y="13"/>
      <point x="845" y="-87" type="qcurve" smooth="yes"/>
      <point x="897" y="-163"/>
      <point x="960" y="-241"/>
      <point x="1006" y="-267"/>
      <point x="1032" y="-267" type="qcurve" smooth="yes"/>
      <point x="1063" y="-267"/>
      <point x="1108" y="-256"/>
      <point x="1136" y="-240" type="qcurve"/>
      <point x="1199" y="-370" type="line"/>
      <point x="1157" y="-393"/>
      <point x="1065" y="-418"/>
    </contour>
  </outline>
</glyph>
<glyph name="uni0241" format="2">
  <advance width="1112"/>
  <unicode hex="0241"/>
  <outline>
    <contour>
      <point x="481" y="458" type="line"/>
      <point x="530" y="458" type="line" smooth="yes"/>
      <point x="641" y="458"/>
      <point x="762" y="562"/>
      <point x="809" y="728"/>
      <point x="809" y="819" type="qcurve" smooth="yes"/>
      <point x="809" y="967" type="line" smooth="yes"/>
      <point x="809" y="1055"/>
      <point x="762" y="1222"/>
      <point x="641" y="1330"/>
      <point x="530" y="1330" type="qcurve" smooth="yes"/>
      <point x="421" y="1330"/>
      <point x="296" y="1201"/>
      <point x="290" y="1099" type="qcurve"/>
      <point x="88" y="1099" type="line"/>
      <point x="92" y="1216"/>
      <point x="203" y="1402"/>
      <point x="399" y="1510"/>
      <point x="529" y="1510" type="qcurve" smooth="yes"/>
      <point x="696" y="1510"/>
      <point x="915" y="1359"/>
      <point x="1024" y="1112"/>
      <point x="1024" y="967" type="qcurve" smooth="yes"/>
      <point x="1024" y="819" type="line" smooth="yes"/>
      <point x="1024" y="674"/>
      <point x="915" y="428"/>
      <point x="696" y="278"/>
      <point x="529" y="278" type="qcurve" smooth="yes"/>
      <point x="481" y="278" type="line"/>
    </contour>
    <contour>
      <point x="648" y="458" type="line"/>
      <point x="648" y="0" type="line"/>
      <point x="430" y="0" type="line"/>
      <point x="430" y="458" type="line"/>
    </contour>
  </outline>
</glyph>
<glyph name="uni0242" format="2">
  <advance width="1113"/>
  <unicode hex="0242"/>
  <outline>
    <contour>
      <point x="140" y="701" type="line"/>
      <point x="140" y="839"/>
      <point x="248" y="1031"/>
      <point x="440" y="1132"/>
      <point x="565" y="1132" type="qcurve" smooth="yes"/>
      <point x="754" y="1132"/>
      <point x="973" y="916"/>
      <point x="973" y="710" type="qcurve" smooth="yes"/>
      <point x="973" y="598"/>
      <point x="894" y="422"/>
      <point x="716" y="322"/>
      <point x="569" y="322" type="qcurve" smooth="yes"/>
      <point x="513" y="322" type="line"/>
      <point x="513" y="451" type="line"/>
      <point x="559" y="451" type="line" smooth="yes"/>
      <point x="674" y="451"/>
      <point x="767" y="588"/>
      <point x="767" y="700" type="qcurve" smooth="yes"/>
      <point x="767" y="814"/>
      <point x="673" y="966"/>
      <point x="563" y="966" type="qcurve" smooth="yes"/>
      <point x="460" y="966"/>
      <point x="348" y="823"/>
      <point x="348" y="701" type="qcurve"/>
    </contour>
    <contour>
      <point x="465" y="451" type="line"/>
      <point x="673" y="451" type="line"/>
      <point x="673" y="0" type="line"/>
      <point x="465" y="0" type="line"/>
    </contour>
  </outline>
</glyph>
<glyph name="uni024C" format="2">
  <advance width="1326"/>
  <unicode hex="024C"/>
  <anchor x="831" y="0" name="m.uni0326"/>
  <anchor x="791" y="1490" name="m.uni030F_1"/>
  <outline>
    <contour>
      <point x="300" y="582" type="line"/>
      <point x="24" y="582" type="line"/>
      <point x="24" y="744" type="line"/>
      <point x="300" y="744" type="line"/>
    </contour>
    <contour>
      <point x="198" y="0" type="line"/>
      <point x="198" y="1490" type="line"/>
      <point x="708" y="1490" type="line" smooth="yes"/>
      <point x="882" y="1490"/>
      <point x="1107" y="1371"/>
      <point x="1216" y="1163"/>
      <point x="1216" y="1030" type="qcurve" smooth="yes"/>
      <point x="1216" y="897"/>
      <point x="1107" y="693"/>
      <point x="883" y="578"/>
      <point x="709" y="578" type="qcurve" smooth="yes"/>
      <point x="304" y="578" type="line"/>
      <point x="304" y="747" type="line"/>
      <point x="700" y="747" type="line" smooth="yes"/>
      <point x="818" y="747"/>
      <point x="961" y="816"/>
      <point x="1027" y="943"/>
      <point x="1027" y="1030" type="qcurve" smooth="yes"/>
      <point x="1027" y="1119"/>
      <point x="961" y="1250"/>
      <point x="817" y="1323"/>
      <point x="698" y="1323" type="qcurve" smooth="yes"/>
      <point x="388" y="1323" type="line"/>
      <point x="388" y="0" type="line"/>
    </contour>
    <contour>
      <point x="1054" y="0" type="line"/>
      <point x="694" y="671" type="line"/>
      <point x="908" y="671" type="line"/>
      <point x="1274" y="0" type="line"/>
    </contour>
  </outline>
</glyph>
<glyph name="epsilon1rev" format="2">
  <advance width="1100"/>
  <unicode hex="025C"/>
  <anchor x="709" y="1180" name="m.uni030F_1"/>
  <outline>
    <contour>
      <point x="536" y="-20" type="qcurve" smooth="yes"/>
      <point x="411" y="-20"/>
      <point x="232" y="55"/>
      <point x="124" y="193"/>
      <point x="102" y="287" type="qcurve"/>
      <point x="279" y="327" type="line"/>
      <point x="294" y="266"/>
      <point x="349" y="183"/>
      <point x="448" y="141"/>
      <point x="528" y="141" type="qcurve" smooth="yes"/>
      <point x="653" y="141"/>
      <point x="802" y="237"/>
      <point x="802" y="314" type="qcurve" smooth="yes"/>
      <point x="802" y="366"/>
      <point x="741" y="449"/>
      <point x="627" y="498"/>
      <point x="549" y="498" type="qcurve" smooth="yes"/>
      <point x="415" y="498" type="line"/>
      <point x="415" y="582" type="line"/>
      <point x="571" y="582" type="line" smooth="yes"/>
      <point x="700" y="582"/>
      <point x="865" y="530"/>
      <point x="956" y="446"/>
      <point x="992" y="348"/>
      <point x="992" y="302" type="qcurve" smooth="yes"/>
      <point x="992" y="205"/>
      <point x="873" y="60"/>
      <point x="667" y="-20"/>
    </contour>
    <contour>
      <point x="571" y="536" type="qcurve" smooth="yes"/>
      <point x="415" y="536" type="line"/>
      <point x="415" y="649" type="line"/>
      <point x="549" y="649" type="line" smooth="yes"/>
      <point x="668" y="649"/>
      <point x="787" y="733"/>
      <point x="787" y="800" type="qcurve" smooth="yes"/>
      <point x="787" y="877"/>
      <point x="653" y="973"/>
      <point x="540" y="973" type="qcurve" smooth="yes"/>
      <point x="433" y="973"/>
      <point x="317" y="884"/>
      <point x="294" y="806" type="qcurve"/>
      <point x="122" y="853" type="line"/>
      <point x="147" y="942"/>
      <point x="253" y="1066"/>
      <point x="422" y="1132"/>
      <point x="539" y="1132" type="qcurve" smooth="yes"/>
      <point x="667" y="1132"/>
      <point x="861" y="1054"/>
      <point x="970" y="907"/>
      <point x="970" y="803" type="qcurve" smooth="yes"/>
      <point x="970" y="758"/>
      <point x="939" y="663"/>
      <point x="855" y="584"/>
      <point x="697" y="536"/>
    </contour>
  </outline>
</glyph>
<glyph name="uni0260" format="2">
  <advance width="1256"/>
  <unicode hex="0260"/>
  <anchor x="762" y="-411" name="m.uni0326"/>
  <anchor x="768" y="1180" name="m.uni030F_1"/>
  <outline>
    <contour>
      <point x="918" y="894" type="line"/>
      <point x="918" y="1249" type="line" smooth="yes"/>
      <point x="918" y="1373"/>
      <point x="1072" y="1504"/>
      <point x="1214" y="1504" type="qcurve" smooth="yes"/>
      <point x="1247" y="1504"/>
      <point x="1303" y="1499"/>
      <point x="1318" y="1495" type="qcurve"/>
      <point x="1318" y="1346" type="line"/>
      <point x="1303" y="1348"/>
      <point x="1272" y="1350"/>
      <point x="1260" y="1350" type="qcurve" smooth="yes"/>
      <point x="1176" y="1350"/>
      <point x="1098" y="1301"/>
      <point x="1098" y="1249" type="qcurve" smooth="yes"/>
      <point x="1098" y="894" type="line"/>
    </contour>
    <contour>
      <point x="611" y="-442" type="qcurve" smooth="yes"/>
      <point x="487" y="-442"/>
      <point x="306" y="-379"/>
      <point x="186" y="-275"/>
      <point x="151" y="-214" type="qcurve"/>
      <point x="297" y="-120" type="line"/>
      <point x="321" y="-152"/>
      <point x="392" y="-230"/>
      <point x="513" y="-285"/>
      <point x="611" y="-285" type="qcurve" smooth="yes"/>
      <point x="745" y="-285"/>
      <point x="918" y="-157"/>
      <point x="918" y="-19" type="qcurve" smooth="yes"/>
      <point x="918" y="205" type="line"/>
      <point x="901" y="205" type="line"/>
      <point x="882" y="173"/>
      <point x="813" y="85"/>
      <point x="684" y="18"/>
      <point x="576" y="18" type="qcurve" smooth="yes"/>
      <point x="442" y="18"/>
      <point x="228" y="145"/>
      <point x="104" y="389"/>
      <point x="104" y="564" type="qcurve" smooth="yes"/>
      <point x="104" y="737"/>
      <point x="226" y="992"/>
      <point x="441" y="1132"/>
      <point x="580" y="1132" type="qcurve" smooth="yes"/>
      <point x="688" y="1132"/>
      <point x="817" y="1061"/>
      <point x="887" y="969"/>
      <point x="906" y="939" type="qcurve"/>
      <point x="923" y="939" type="line"/>
      <point x="923" y="1118" type="line"/>
      <point x="1098" y="1118" type="line"/>
      <point x="1098" y="-29" type="line" smooth="yes"/>
      <point x="1098" y="-173"/>
      <point x="968" y="-356"/>
      <point x="747" y="-442"/>
    </contour>
    <contour>
      <point x="606" y="178" type="qcurve" smooth="yes"/>
      <point x="708" y="178"/>
      <point x="848" y="271"/>
      <point x="920" y="446"/>
      <point x="920" y="568" type="qcurve" smooth="yes"/>
      <point x="920" y="687"/>
      <point x="849" y="868"/>
      <point x="709" y="971"/>
      <point x="606" y="971" type="qcurve" smooth="yes"/>
      <point x="500" y="971"/>
      <point x="358" y="862"/>
      <point x="287" y="680"/>
      <point x="287" y="568" type="qcurve" smooth="yes"/>
      <point x="287" y="453"/>
      <point x="359" y="277"/>
      <point x="501" y="178"/>
    </contour>
  </outline>
</glyph>
<glyph name="iota" format="2">
  <advance width="564"/>
  <unicode hex="0269"/>
  <unicode hex="03B9"/>
  <anchor x="417" y="1180" name="m.uni030F_1"/>
  <outline>
    <contour>
      <point x="409" y="-8" type="qcurve" smooth="yes"/>
      <point x="283" y="-8"/>
      <point x="158" y="127"/>
      <point x="158" y="248" type="qcurve" smooth="yes"/>
      <point x="158" y="1118" type="line"/>
      <point x="338" y="1118" type="line"/>
      <point x="338" y="293" type="line" smooth="yes"/>
      <point x="338" y="216"/>
      <point x="375" y="153"/>
      <point x="431" y="153" type="qcurve" smooth="yes"/>
      <point x="460" y="153"/>
      <point x="490" y="157"/>
      <point x="503" y="161" type="qcurve"/>
      <point x="539" y="9" type="line"/>
      <point x="515" y="2"/>
      <point x="445" y="-8"/>
    </contour>
  </outline>
</glyph>
<glyph name="rturn" format="2">
  <advance width="785"/>
  <unicode hex="0279"/>
  <outline>
    <contour>
      <point x="628" y="1118" type="line"/>
      <point x="628" y="1" type="line"/>
      <point x="462" y="1" type="line"/>
      <point x="462" y="170" type="line"/>
      <point x="450" y="170" type="line"/>
      <point x="421" y="87"/>
      <point x="261" y="-17"/>
      <point x="160" y="-17" type="qcurve" smooth="yes"/>
      <point x="113" y="-17"/>
      <point x="43" y="5"/>
      <point x="17" y="24" type="qcurve"/>
      <point x="75" y="170" type="line"/>
      <point x="93" y="160"/>
      <point x="142" y="149"/>
      <point x="174" y="149" type="qcurve" smooth="yes"/>
      <point x="256" y="149"/>
      <point x="383" y="218"/>
      <point x="456" y="335"/>
      <point x="456" y="411" type="qcurve" smooth="yes"/>
      <point x="456" y="1118" type="line"/>
    </contour>
  </outline>
</glyph>
<glyph name="uni027E" format="2">
  <advance width="704"/>
  <unicode hex="027E"/>
  <outline>
    <contour>
      <point x="158" y="0" type="line"/>
      <point x="158" y="748" type="line" smooth="yes"/>
      <point x="158" y="892"/>
      <point x="271" y="1059"/>
      <point x="447" y="1129"/>
      <point x="539" y="1129" type="qcurve" smooth="yes"/>
      <point x="571" y="1129"/>
      <point x="619" y="1127"/>
      <point x="651" y="1124"/>
      <point x="658" y="1123" type="qcurve"/>
      <point x="658" y="954" type="line"/>
      <point x="642" y="956"/>
      <point x="591" y="958"/>
      <point x="554" y="958" type="qcurve" smooth="yes"/>
      <point x="496" y="958"/>
      <point x="397" y="924"/>
      <point x="338" y="833"/>
      <point x="338" y="745" type="qcurve" smooth="yes"/>
      <point x="338" y="0" type="line"/>
    </contour>
  </outline>
</glyph>
<glyph name="tturn" format="2">
  <advance width="670"/>
  <unicode hex="0287"/>
  <anchor x="604" y="-246" name="m.uni0326"/>
  <anchor x="551" y="1180" name="m.uni030F_1"/>
  <anchor x="406" y="1180" name="m.uni0327_3"/>
  <outline>
    <contour>
      <point x="482" y="-266" type="line"/>
      <point x="302" y="-266" type="line"/>
      <point x="302" y="828" type="line" smooth="yes"/>
      <point x="302" y="903"/>
      <point x="241" y="972"/>
      <point x="170" y="972" type="qcurve" smooth="yes"/>
      <point x="153" y="972"/>
      <point x="101" y="965"/>
      <point x="78" y="960" type="qcurve"/>
      <point x="41" y="1112" type="line"/>
      <point x="69" y="1122"/>
      <point x="141" y="1132"/>
      <point x="175" y="1132" type="qcurve" smooth="yes"/>
      <point x="320" y="1132"/>
      <point x="482" y="979"/>
      <point x="482" y="842" type="qcurve" smooth="yes"/>
    </contour>
    <contour>
      <point x="72" y="0" type="line"/>
      <point x="72" y="154" type="line"/>
      <point x="650" y="154" type="line"/>
      <point x="650" y="0" type="line"/>
    </contour>
  </outline>
</glyph>
<glyph name="vturn" format="2">
  <advance width="1151"/>
  <unicode hex="028C"/>
  <anchor x="773" y="0" name="m.uni0326"/>
  <anchor x="773" y="1180" name="m.uni030F_1"/>
  <outline>
    <contour>
      <point x="670" y="1118" type="line"/>
      <point x="1097" y="0" type="line"/>
      <point x="900" y="0" type="line"/>
      <point x="662" y="663" type="line" smooth="yes"/>
      <point x="625" y="767"/>
      <point x="571" y="971"/>
      <point x="542" y="1067" type="qcurve"/>
      <point x="608" y="1067" type="line"/>
      <point x="579" y="971"/>
      <point x="527" y="767"/>
      <point x="489" y="663" type="qcurve" smooth="yes"/>
      <point x="251" y="0" type="line"/>
      <point x="54" y="0" type="line"/>
      <point x="481" y="1118" type="line"/>
    </contour>
  </outline>
</glyph>
<glyph name="glottalstoprevinv" format="2">
  <advance width="1111"/>
  <unicode hex="0295"/>
  <outline>
    <contour>
      <point x="580" y="547" type="qcurve" smooth="yes"/>
      <point x="629" y="547" type="line"/>
      <point x="629" y="381" type="line"/>
      <point x="580" y="381" type="line" smooth="yes"/>
      <point x="414" y="381"/>
      <point x="199" y="530"/>
      <point x="94" y="777"/>
      <point x="94" y="922" type="qcurve" smooth="yes"/>
      <point x="94" y="971" type="line" smooth="yes"/>
      <point x="94" y="1116"/>
      <point x="200" y="1361"/>
      <point x="416" y="1510"/>
      <point x="580" y="1510" type="qcurve" smooth="yes"/>
      <point x="710" y="1510"/>
      <point x="904" y="1407"/>
      <point x="1014" y="1228"/>
      <point x="1017" y="1115" type="qcurve"/>
      <point x="821" y="1115" type="line"/>
      <point x="815" y="1209"/>
      <point x="688" y="1344"/>
      <point x="580" y="1344" type="qcurve" smooth="yes"/>
      <point x="470" y="1344"/>
      <point x="349" y="1231"/>
      <point x="302" y="1059"/>
      <point x="302" y="971" type="qcurve" smooth="yes"/>
      <point x="302" y="922" type="line" smooth="yes"/>
      <point x="302" y="874"/>
      <point x="320" y="747"/>
      <point x="375" y="627"/>
      <point x="487" y="547"/>
    </contour>
    <contour>
      <point x="470" y="0" type="line"/>
      <point x="470" y="551" type="line"/>
      <point x="676" y="551" type="line"/>
      <point x="676" y="0" type="line"/>
    </contour>
  </outline>
</glyph>
<glyph name="uni02BB" format="2">
  <advance width="549"/>
  <unicode hex="02BB"/>
  <outline>
    <contour>
      <point x="126" y="987" type="line"/>
      <point x="126" y="1172" type="line" smooth="yes"/>
      <point x="126" y="1238"/>
      <point x="170" y="1381"/>
      <point x="252" y="1514"/>
      <point x="308" y="1563" type="qcurve"/>
      <point x="425" y="1486" type="line"/>
      <point x="379" y="1417"/>
      <point x="326" y="1265"/>
      <point x="326" y="1174" type="qcurve" smooth="yes"/>
      <point x="326" y="987" type="line"/>
    </contour>
  </outline>
</glyph>
<glyph name="uni02BD" format="2">
  <advance width="551"/>
  <unicode hex="02BD"/>
  <outline>
    <contour>
      <point x="280" y="992" type="line"/>
      <point x="263" y="1042"/>
      <point x="209" y="1208"/>
      <point x="159" y="1397"/>
      <point x="147" y="1480" type="qcurve" smooth="yes"/>
      <point x="136" y="1560" type="line"/>
      <point x="327" y="1560" type="line"/>
      <point x="335" y="1478" type="line" smooth="yes"/>
      <point x="345" y="1380"/>
      <point x="375" y="1195"/>
      <point x="407" y="1042"/>
      <point x="417" y="992" type="qcurve"/>
    </contour>
  </outline>
</glyph>
<glyph name="hungarumlaut" format="2">
  <advance width="1016"/>
  <unicode hex="02DD"/>
  <outline>
    <contour>
      <point x="317" y="1264" type="line"/>
      <point x="170" y="1264" type="line"/>
      <point x="287" y="1558" type="line"/>
      <point x="487" y="1558" type="line"/>
    </contour>
    <contour>
      <point x="645" y="1264" type="line"/>
      <point x="497" y="1264" type="line"/>
      <point x="665" y="1558" type="line"/>
      <point x="866" y="1558" type="line"/>
    </contour>
  </outline>
</glyph>
<glyph name="acutecomb" format="2">
  <unicode hex="0301"/>
  <anchor x="441" y="1180" name="_m.uni030F_1"/>
  <anchor x="441" y="1180" name="_t.uni030F"/>
  <anchor x="441" y="1667" name="t.uni030F"/>
  <outline>
    <contour>
      <point x="168" y="1264" type="line"/>
      <point x="308" y="1558" type="line"/>
      <point x="509" y="1558" type="line"/>
      <point x="315" y="1264" type="line"/>
    </contour>
  </outline>
</glyph>
<glyph name="hookabovecomb" format="2">
  <unicode hex="0309"/>
  <anchor x="374" y="1180" name="_m.uni030F_1"/>
  <anchor x="374" y="1180" name="_t.uni030F"/>
  <outline>
    <contour>
      <point x="326" y="1264" type="line"/>
      <point x="190" y="1264" type="line"/>
      <point x="261" y="1401" type="line" smooth="yes"/>
      <point x="272" y="1421"/>
      <point x="259" y="1440"/>
      <point x="239" y="1440" type="qcurve" smooth="yes"/>
      <point x="100" y="1440" type="line"/>
      <point x="100" y="1558" type="line"/>
      <point x="239" y="1558" type="line" smooth="yes"/>
      <point x="301" y="1558"/>
      <point x="380" y="1525"/>
      <point x="416" y="1468"/>
      <point x="407" y="1392"/>
      <point x="380" y="1350" type="qcurve" smooth="yes"/>
    </contour>
  </outline>
</glyph>
<glyph name="uni0315" format="2">
  <unicode hex="0315"/>
  <outline>
    <contour>
      <point x="690" y="997" type="line"/>
      <point x="690" y="812" type="line" smooth="yes"/>
      <point x="690" y="748"/>
      <point x="647" y="605"/>
      <point x="567" y="472"/>
      <point x="509" y="421" type="qcurve"/>
      <point x="393" y="498" type="line"/>
      <point x="440" y="572"/>
      <point x="488" y="724"/>
      <point x="488" y="810" type="qcurve" smooth="yes"/>
      <point x="488" y="997" type="line"/>
    </contour>
  </outline>
</glyph>
<glyph name="commabelowcmb" format="2">
  <unicode hex="0326"/>
  <anchor x="-607" y="0" name="_m.uni0326"/>
  <outline>
    <contour>
      <point x="-514" y="-146" type="line"/>
      <point x="-514" y="-223" type="line" smooth="yes"/>
      <point x="-514" y="-305"/>
      <point x="-590" y="-492"/>
      <point x="-665" y="-556" type="qcurve"/>
      <point x="-782" y="-478" type="line"/>
      <point x="-744" y="-419"/>
      <point x="-691" y="-299"/>
      <point x="-691" y="-228" type="qcurve" smooth="yes"/>
      <point x="-691" y="-146" type="line"/>
    </contour>
  </outline>
</glyph>
<glyph name="uni0327" format="2">
  <unicode hex="0327"/>
  <anchor x="670" y="0" name="_m.uni0327_3"/>
  <outline>
    <contour>
      <point x="155" y="-418" type="line"/>
      <point x="155" y="-313" type="line"/>
      <point x="273" y="-313" type="line" smooth="yes"/>
      <point x="328" y="-313"/>
      <point x="371" y="-284"/>
      <point x="371" y="-247" type="qcurve" smooth="yes"/>
      <point x="371" y="-210"/>
      <point x="328" y="-182"/>
      <point x="273" y="-182" type="qcurve" smooth="yes"/>
      <point x="191" y="-182" type="line"/>
      <point x="221" y="48" type="line"/>
      <point x="316" y="48" type="line"/>
      <point x="316" y="0" type="line"/>
      <point x="316" y="-86" type="line"/>
      <point x="414" y="-90"/>
      <point x="505" y="-167"/>
      <point x="505" y="-248" type="qcurve" smooth="yes"/>
      <point x="505" y="-336"/>
      <point x="394" y="-418"/>
      <point x="274" y="-418" type="qcurve" smooth="yes"/>
    </contour>
  </outline>
</glyph>
<glyph name="uni0360" format="2">
  <unicode hex="0360"/>
  <outline>
    <contour>
      <point x="-836" y="1246" type="qcurve"/>
      <point x="-948" y="1274" type="line"/>
      <point x="-937" y="1336"/>
      <point x="-856" y="1444"/>
      <point x="-724" y="1510"/>
      <point x="-638" y="1510" type="qcurve" smooth="yes"/>
      <point x="-543" y="1510"/>
      <point x="-282" y="1489"/>
      <point x="12" y="1459"/>
      <point x="304" y="1429"/>
      <point x="559" y="1408"/>
      <point x="648" y="1408" type="qcurve" smooth="yes"/>
      <point x="720" y="1408"/>
      <point x="832" y="1465"/>
      <point x="849" y="1528" type="qcurve"/>
      <point x="963" y="1491" type="line"/>
      <point x="948" y="1390"/>
      <point x="777" y="1265"/>
      <point x="651" y="1265" type="qcurve" smooth="yes"/>
      <point x="540" y="1265"/>
      <point x="271" y="1285"/>
      <point x="-15" y="1315"/>
      <point x="-295" y="1345"/>
      <point x="-542" y="1365"/>
      <point x="-635" y="1365" type="qcurve" smooth="yes"/>
      <point x="-707" y="1365"/>
      <point x="-813" y="1307"/>
    </contour>
  </outline>
</glyph>
<glyph name="uni0361" format="2">
  <unicode hex="0361"/>
  <outline>
    <contour>
      <point x="710" y="1181" type="qcurve"/>
      <point x="546" y="1181" type="line"/>
      <point x="518" y="1208"/>
      <point x="411" y="1270"/>
      <point x="267" y="1324"/>
      <point x="97" y="1358"/>
      <point x="4" y="1358" type="qcurve" smooth="yes"/>
      <point x="-89" y="1358"/>
      <point x="-259" y="1324"/>
      <point x="-403" y="1270"/>
      <point x="-509" y="1208"/>
      <point x="-538" y="1181" type="qcurve"/>
      <point x="-702" y="1181" type="line"/>
      <point x="-661" y="1241"/>
      <point x="-525" y="1351"/>
      <point x="-343" y="1436"/>
      <point x="-122" y="1486"/>
      <point x="4" y="1486" type="qcurve" smooth="yes"/>
      <point x="131" y="1486"/>
      <point x="352" y="1436"/>
      <point x="534" y="1351"/>
      <point x="670" y="1241"/>
    </contour>
  </outline>
</glyph>
<glyph name="uni0364" format="2">
  <unicode hex="0364"/>
  <outline>
    <contour>
      <point x="-545" y="1186" type="qcurve" smooth="yes"/>
      <point x="-630" y="1186"/>
      <point x="-749" y="1256"/>
      <point x="-812" y="1378"/>
      <point x="-812" y="1454" type="qcurve" smooth="yes"/>
      <point x="-812" y="1474" type="line" smooth="yes"/>
      <point x="-812" y="1567"/>
      <point x="-744" y="1694"/>
      <point x="-630" y="1760"/>
      <point x="-561" y="1760" type="qcurve" smooth="yes"/>
      <point x="-439" y="1760"/>
      <point x="-318" y="1603"/>
      <point x="-318" y="1486" type="qcurve" smooth="yes"/>
      <point x="-318" y="1439" type="line"/>
      <point x="-742" y="1439" type="line"/>
      <point x="-742" y="1524" type="line"/>
      <point x="-446" y="1524" type="line"/>
      <point x="-446" y="1531" type="line" smooth="yes"/>
      <point x="-446" y="1583"/>
      <point x="-499" y="1650"/>
      <point x="-561" y="1650" type="qcurve" smooth="yes"/>
      <point x="-619" y="1650"/>
      <point x="-678" y="1560"/>
      <point x="-678" y="1474" type="qcurve" smooth="yes"/>
      <point x="-678" y="1454" type="line" smooth="yes"/>
      <point x="-678" y="1379"/>
      <point x="-606" y="1296"/>
      <point x="-540" y="1296" type="qcurve" smooth="yes"/>
      <point x="-487" y="1296"/>
      <point x="-423" y="1331"/>
      <point x="-400" y="1363" type="qcurve"/>
      <point x="-330" y="1293" type="line"/>
      <point x="-355" y="1258"/>
      <point x="-457" y="1186"/>
    </contour>
  </outline>
</glyph>
<glyph name="uni0368" format="2">
  <unicode hex="0368"/>
  <outline>
    <contour>
      <point x="-561" y="1186" type="qcurve" smooth="yes"/>
      <point x="-651" y="1186"/>
      <point x="-765" y="1264"/>
      <point x="-820" y="1391"/>
      <point x="-820" y="1464" type="qcurve" smooth="yes"/>
      <point x="-820" y="1484" type="line" smooth="yes"/>
      <point x="-820" y="1596"/>
      <point x="-694" y="1760"/>
      <point x="-561" y="1760" type="qcurve" smooth="yes"/>
      <point x="-451" y="1760"/>
      <point x="-331" y="1640"/>
      <point x="-327" y="1559" type="qcurve"/>
      <point x="-455" y="1559" type="line"/>
      <point x="-457" y="1590"/>
      <point x="-508" y="1650"/>
      <point x="-562" y="1650" type="qcurve" smooth="yes"/>
      <point x="-603" y="1650"/>
      <point x="-659" y="1605"/>
      <point x="-687" y="1530"/>
      <point x="-687" y="1484" type="qcurve" smooth="yes"/>
      <point x="-687" y="1464" type="line" smooth="yes"/>
      <point x="-687" y="1417"/>
      <point x="-659" y="1340"/>
      <point x="-604" y="1296"/>
      <point x="-562" y="1296" type="qcurve" smooth="yes"/>
      <point x="-515" y="1296"/>
      <point x="-461" y="1343"/>
      <point x="-455" y="1375" type="qcurve"/>
      <point x="-327" y="1375" type="line"/>
      <point x="-332" y="1299"/>
      <point x="-466" y="1186"/>
    </contour>
  </outline>
</glyph>
<glyph name="uni0369" format="2">
  <unicode hex="0369"/>
  <anchor x="-760" y="2018" name="_t.uni0367_2"/>
  <outline>
    <contour>
      <point x="-455" y="1306" type="line"/>
      <point x="-455" y="1992" type="line"/>
      <point x="-321" y="1992" type="line"/>
      <point x="-321" y="1202" type="line"/>
      <point x="-437" y="1202" type="line"/>
    </contour>
    <contour>
      <point x="-606" y="1186" type="qcurve" smooth="yes"/>
      <point x="-708" y="1186"/>
      <point x="-832" y="1346"/>
      <point x="-832" y="1466" type="qcurve" smooth="yes"/>
      <point x="-832" y="1478" type="line" smooth="yes"/>
      <point x="-832" y="1603"/>
      <point x="-710" y="1760"/>
      <point x="-606" y="1760" type="qcurve" smooth="yes"/>
      <point x="-498" y="1760"/>
      <point x="-392" y="1630"/>
      <point x="-383" y="1508" type="qcurve"/>
      <point x="-383" y="1439" type="line"/>
      <point x="-389" y="1358"/>
      <point x="-440" y="1245"/>
      <point x="-534" y="1186"/>
    </contour>
    <contour>
      <point x="-577" y="1296" type="qcurve" smooth="yes"/>
      <point x="-526" y="1296"/>
      <point x="-456" y="1356"/>
      <point x="-441" y="1416" type="qcurve"/>
      <point x="-441" y="1528" type="line"/>
      <point x="-451" y="1586"/>
      <point x="-521" y="1651"/>
      <point x="-577" y="1651" type="qcurve" smooth="yes"/>
      <point x="-636" y="1651"/>
      <point x="-700" y="1555"/>
      <point x="-700" y="1478" type="qcurve" smooth="yes"/>
      <point x="-700" y="1466" type="line" smooth="yes"/>
      <point x="-700" y="1389"/>
      <point x="-637" y="1296"/>
    </contour>
  </outline>
</glyph>
<glyph name="uni036C" format="2">
  <unicode hex="036C"/>
  <outline>
    <contour>
      <point x="-568" y="1626" type="line"/>
      <point x="-568" y="1202" type="line"/>
      <point x="-702" y="1202" type="line"/>
      <point x="-702" y="1754" type="line"/>
      <point x="-599" y="1754" type="line"/>
    </contour>
    <contour>
      <point x="-396" y="1754" type="qcurve"/>
      <point x="-396" y="1629" type="line"/>
      <point x="-409" y="1638"/>
      <point x="-445" y="1647"/>
      <point x="-459" y="1647" type="qcurve" smooth="yes"/>
      <point x="-520" y="1647"/>
      <point x="-580" y="1566"/>
      <point x="-580" y="1492" type="qcurve"/>
      <point x="-632" y="1492" type="line"/>
      <point x="-632" y="1606"/>
      <point x="-540" y="1760"/>
      <point x="-441" y="1760" type="qcurve" smooth="yes"/>
      <point x="-414" y="1760"/>
    </contour>
  </outline>
</glyph>
<glyph name="uni036D" format="2">
  <unicode hex="036D"/>
  <outline>
    <contour>
      <point x="-423" y="1760" type="line"/>
      <point x="-423" y="1651" type="line"/>
      <point x="-756" y="1651" type="line"/>
      <point x="-756" y="1760" type="line"/>
    </contour>
    <contour>
      <point x="-659" y="1894" type="line"/>
      <point x="-523" y="1894" type="line"/>
      <point x="-523" y="1388" type="line" smooth="yes"/>
      <point x="-523" y="1349"/>
      <point x="-500" y="1307"/>
      <point x="-476" y="1307" type="qcurve" smooth="yes"/>
      <point x="-464" y="1307"/>
      <point x="-436" y="1311"/>
      <point x="-432" y="1313" type="qcurve"/>
      <point x="-432" y="1208" type="line"/>
      <point x="-440" y="1204"/>
      <point x="-481" y="1198"/>
      <point x="-510" y="1198" type="qcurve" smooth="yes"/>
      <point x="-592" y="1198"/>
      <point x="-659" y="1296"/>
      <point x="-659" y="1382" type="qcurve" smooth="yes"/>
    </contour>
  </outline>
</glyph>
<glyph name="Theta" format="2">
  <advance width="1566"/>
  <unicode hex="0398"/>
  <anchor x="808" y="0" name="m.uni0326"/>
  <anchor x="808" y="1490" name="m.uni030F_1"/>
  <anchor x="1562" y="744" name="m.uni0328_4"/>
  <outline>
    <contour>
      <point x="1094" y="824" type="line"/>
      <point x="1094" y="664" type="line"/>
      <point x="466" y="664" type="line"/>
      <point x="466" y="824" type="line"/>
    </contour>
    <contour>
      <point x="784" y="-20" type="qcurve" smooth="yes"/>
      <point x="593" y="-20"/>
      <point x="294" y="165"/>
      <point x="122" y="508"/>
      <point x="122" y="744" type="qcurve" smooth="yes"/>
      <point x="122" y="981"/>
      <point x="294" y="1324"/>
      <point x="593" y="1510"/>
      <point x="784" y="1510" type="qcurve" smooth="yes"/>
      <point x="975" y="1510"/>
      <point x="1273" y="1324"/>
      <point x="1444" y="981"/>
      <point x="1444" y="744" type="qcurve" smooth="yes"/>
      <point x="1444" y="508"/>
      <point x="1273" y="165"/>
      <point x="975" y="-20"/>
    </contour>
    <contour>
      <point x="784" y="156" type="qcurve" smooth="yes"/>
      <point x="917" y="156"/>
      <point x="1132" y="291"/>
      <point x="1259" y="554"/>
      <point x="1259" y="744" type="qcurve" smooth="yes"/>
      <point x="1259" y="936"/>
      <point x="1132" y="1199"/>
      <point x="917" y="1334"/>
      <point x="784" y="1334" type="qcurve" smooth="yes"/>
      <point x="650" y="1334"/>
      <point x="434" y="1198"/>
      <point x="307" y="935"/>
      <point x="307" y="744" type="qcurve" smooth="yes"/>
      <point x="307" y="554"/>
      <point x="434" y="292"/>
      <point x="650" y="156"/>
    </contour>
  </outline>
</glyph>
<glyph name="Sigma" format="2">
  <advance width="1411"/>
  <unicode hex="03A3"/>
  <outline>
    <contour>
      <point x="134" y="0" type="line"/>
      <point x="134" y="147" type="line"/>
      <point x="557" y="590" type="line" smooth="yes"/>
      <point x="600" y="635"/>
      <point x="688" y="716"/>
      <point x="764" y="784"/>
      <point x="790" y="807" type="qcurve"/>
      <point x="790" y="727" type="line"/>
      <point x="764" y="751"/>
      <point x="689" y="815"/>
      <point x="602" y="895"/>
      <point x="557" y="941" type="qcurve" smooth="yes"/>
      <point x="168" y="1343" type="line"/>
      <point x="168" y="1490" type="line"/>
      <point x="1267" y="1490" type="line"/>
      <point x="1267" y="1323" type="line"/>
      <point x="669" y="1323" type="line" smooth="yes"/>
      <point x="577" y="1323"/>
      <point x="431" y="1326"/>
      <point x="369" y="1331" type="qcurve"/>
      <point x="353" y="1367" type="line"/>
      <point x="387" y="1339"/>
      <point x="464" y="1275"/>
      <point x="556" y="1190"/>
      <point x="612" y="1132" type="qcurve" smooth="yes"/>
      <point x="930" y="801" type="line"/>
      <point x="930" y="734" type="line"/>
      <point x="611" y="397" type="line" smooth="yes"/>
      <point x="550" y="333"/>
      <point x="443" y="230"/>
      <point x="353" y="151"/>
      <point x="319" y="123" type="qcurve"/>
      <point x="335" y="159" type="line"/>
      <point x="406" y="164"/>
      <point x="565" y="167"/>
      <point x="669" y="167" type="qcurve" smooth="yes"/>
      <point x="1277" y="167" type="line"/>
      <point x="1277" y="0" type="line"/>
    </contour>
  </outline>
</glyph>
<glyph name="Psi" format="2">
  <advance width="1802"/>
  <unicode hex="03A8"/>
  <outline>
    <contour>
      <point x="1438" y="1490" type="line"/>
      <point x="1622" y="1490" type="line"/>
      <point x="1622" y="1105" type="line" smooth="yes"/>
      <point x="1622" y="936"/>
      <point x="1540" y="685"/>
      <point x="1376" y="518"/>
      <point x="1131" y="435"/>
      <point x="968" y="435" type="qcurve" smooth="yes"/>
      <point x="834" y="435" type="line" smooth="yes"/>
      <point x="672" y="435"/>
      <point x="427" y="518"/>
      <point x="263" y="685"/>
      <point x="180" y="936"/>
      <point x="180" y="1105" type="qcurve" smooth="yes"/>
      <point x="180" y="1490" type="line"/>
      <point x="364" y="1490" type="line"/>
      <point x="364" y="1116" type="line" smooth="yes"/>
      <point x="364" y="927"/>
      <point x="457" y="698"/>
      <point x="663" y="595"/>
      <point x="833" y="595" type="qcurve" smooth="yes"/>
      <point x="969" y="595" type="line" smooth="yes"/>
      <point x="1140" y="595"/>
      <point x="1346" y="698"/>
      <point x="1438" y="927"/>
      <point x="1438" y="1116" type="qcurve" smooth="yes"/>
    </contour>
    <contour>
      <point x="809" y="1490" type="line"/>
      <point x="993" y="1490" type="line"/>
      <point x="993" y="0" type="line"/>
      <point x="809" y="0" type="line"/>
    </contour>
  </outline>
</glyph>
<glyph name="theta" format="2">
  <advance width="1272"/>
  <unicode hex="03B8"/>
  <outline>
    <contour>
      <point x="636" y="-24" type="qcurve" smooth="yes"/>
      <point x="478" y="-24"/>
      <point x="247" y="156"/>
      <point x="122" y="485"/>
      <point x="122" y="711" type="qcurve" smooth="yes"/>
      <point x="122" y="779" type="line" smooth="yes"/>
      <point x="122" y="1005"/>
      <point x="247" y="1334"/>
      <point x="478" y="1514"/>
      <point x="636" y="1514" type="qcurve" smooth="yes"/>
      <point x="794" y="1514"/>
      <point x="1025" y="1334"/>
      <point x="1150" y="1005"/>
      <point x="1150" y="779" type="qcurve" smooth="yes"/>
      <point x="1150" y="711" type="line" smooth="yes"/>
      <point x="1150" y="485"/>
      <point x="1025" y="156"/>
      <point x="794" y="-24"/>
    </contour>
    <contour>
      <point x="636" y="137" type="qcurve" smooth="yes"/>
      <point x="796" y="137"/>
      <point x="968" y="418"/>
      <point x="968" y="678" type="qcurve" smooth="yes"/>
      <point x="968" y="812" type="line" smooth="yes"/>
      <point x="968" y="1072"/>
      <point x="796" y="1353"/>
      <point x="636" y="1353" type="qcurve" smooth="yes"/>
      <point x="476" y="1353"/>
      <point x="304" y="1072"/>
      <point x="304" y="812" type="qcurve" smooth="yes"/>
      <point x="304" y="678" type="line" smooth="yes"/>
      <point x="304" y="418"/>
      <point x="476" y="137"/>
    </contour>
    <contour>
      <point x="255" y="670" type="line"/>
      <point x="255" y="820" type="line"/>
      <point x="1023" y="820" type="line"/>
      <point x="1023" y="670" type="line"/>
    </contour>
  </outline>
</glyph>
<glyph name="pi" format="2">
  <advance width="1239"/>
  <unicode hex="03C0"/>
  <outline>
    <contour>
      <point x="1067" y="-8" type="qcurve" smooth="yes"/>
      <point x="941" y="-8"/>
      <point x="817" y="127"/>
      <point x="817" y="248" type="qcurve" smooth="yes"/>
      <point x="817" y="1061" type="line"/>
      <point x="997" y="1061" type="line"/>
      <point x="997" y="293" type="line" smooth="yes"/>
      <point x="997" y="215"/>
      <point x="1034" y="152"/>
      <point x="1090" y="152" type="qcurve" smooth="yes"/>
      <point x="1119" y="152"/>
      <point x="1149" y="156"/>
      <point x="1162" y="160" type="qcurve"/>
      <point x="1198" y="9" type="line"/>
      <point x="1176" y="3"/>
      <point x="1107" y="-8"/>
    </contour>
    <contour>
      <point x="222" y="0" type="line"/>
      <point x="222" y="1061" type="line"/>
      <point x="402" y="1061" type="line"/>
      <point x="402" y="0" type="line"/>
    </contour>
    <contour>
      <point x="41" y="965" type="line"/>
      <point x="41" y="1118" type="line"/>
      <point x="1194" y="1118" type="line"/>
      <point x="1194" y="965" type="line"/>
    </contour>
  </outline>
</glyph>
<glyph name="uni03C2" format="2">
  <advance width="1166"/>
  <unicode hex="03C2"/>
  <outline>
    <contour>
      <point x="859" y="-287" type="line"/>
      <point x="859" y="-126" type="line" smooth="yes"/>
      <point x="859" y="-67"/>
      <point x="780" y="0"/>
      <point x="712" y="0" type="qcurve" smooth="yes"/>
      <point x="613" y="0" type="line" smooth="yes"/>
      <point x="461" y="0"/>
      <point x="232" y="132"/>
      <point x="104" y="380"/>
      <point x="104" y="552" type="qcurve" smooth="yes"/>
      <point x="104" y="727"/>
      <point x="232" y="988"/>
      <point x="461" y="1132"/>
      <point x="613" y="1132" type="qcurve" smooth="yes"/>
      <point x="694" y="1132"/>
      <point x="838" y="1090"/>
      <point x="957" y="1011"/>
      <point x="1043" y="896"/>
      <point x="1066" y="823" type="qcurve"/>
      <point x="893" y="774" type="line"/>
      <point x="881" y="817"/>
      <point x="831" y="889"/>
      <point x="760" y="942"/>
      <point x="668" y="971"/>
      <point x="613" y="971" type="qcurve" smooth="yes"/>
      <point x="501" y="971"/>
      <point x="357" y="854"/>
      <point x="287" y="664"/>
      <point x="287" y="552" type="qcurve" smooth="yes"/>
      <point x="287" y="442"/>
      <point x="357" y="262"/>
      <point x="501" y="157"/>
      <point x="613" y="157" type="qcurve" smooth="yes"/>
      <point x="713" y="157" type="line" smooth="yes"/>
      <point x="809" y="157"/>
      <point x="952" y="89"/>
      <point x="1032" y="-37"/>
      <point x="1032" y="-124" type="qcurve" smooth="yes"/>
      <point x="1032" y="-287" type="line"/>
    </contour>
  </outline>
</glyph>
<glyph name="tau" format="2">
  <advance width="954"/>
  <unicode hex="03C4"/>
  <outline>
    <contour>
      <point x="695" y="-14" type="qcurve" smooth="yes"/>
      <point x="550" y="-14"/>
      <point x="388" y="139"/>
      <point x="388" y="276" type="qcurve" smooth="yes"/>
      <point x="388" y="957" type="line"/>
      <point x="20" y="957" type="line"/>
      <point x="20" y="1118" type="line"/>
      <point x="934" y="1118" type="line"/>
      <point x="934" y="957" type="line"/>
      <point x="568" y="957" type="line"/>
      <point x="568" y="290" type="line" smooth="yes"/>
      <point x="568" y="215"/>
      <point x="629" y="146"/>
      <point x="699" y="146" type="qcurve" smooth="yes"/>
      <point x="717" y="146"/>
      <point x="770" y="154"/>
      <point x="792" y="158" type="qcurve"/>
      <point x="828" y="6" type="line"/>
      <point x="803" y="-3"/>
      <point x="732" y="-14"/>
    </contour>
  </outline>
</glyph>
<glyph name="phi" format="2">
  <advance width="1476"/>
  <unicode hex="03C6"/>
  <outline>
    <contour>
      <point x="646" y="-418" type="line"/>
      <point x="646" y="798" type="line" smooth="yes"/>
      <point x="646" y="906"/>
      <point x="715" y="1058"/>
      <point x="847" y="1138"/>
      <point x="942" y="1138" type="qcurve" smooth="yes"/>
      <point x="1070" y="1138"/>
      <point x="1263" y="998"/>
      <point x="1372" y="748"/>
      <point x="1372" y="583" type="qcurve" smooth="yes"/>
      <point x="1372" y="387"/>
      <point x="1217" y="116"/>
      <point x="931" y="-24"/>
      <point x="734" y="-24" type="qcurve" smooth="yes"/>
      <point x="709" y="-24" type="line" smooth="yes"/>
      <point x="524" y="-24"/>
      <point x="252" y="118"/>
      <point x="104" y="379"/>
      <point x="104" y="555" type="qcurve" smooth="yes"/>
      <point x="104" y="685"/>
      <point x="185" y="922"/>
      <point x="340" y="1094"/>
      <point x="450" y="1125" type="qcurve"/>
      <point x="497" y="971" type="line"/>
      <point x="431" y="952"/>
      <point x="336" y="846"/>
      <point x="284" y="681"/>
      <point x="284" y="574" type="qcurve" smooth="yes"/>
      <point x="284" y="431"/>
      <point x="380" y="236"/>
      <point x="569" y="137"/>
      <point x="709" y="137" type="qcurve" smooth="yes"/>
      <point x="734" y="137" type="line" smooth="yes"/>
      <point x="887" y="137"/>
      <point x="1091" y="233"/>
      <point x="1192" y="432"/>
      <point x="1192" y="585" type="qcurve" smooth="yes"/>
      <point x="1192" y="700"/>
      <point x="1137" y="877"/>
      <point x="1032" y="977"/>
      <point x="957" y="977" type="qcurve" smooth="yes"/>
      <point x="914" y="977"/>
      <point x="855" y="941"/>
      <point x="826" y="874"/>
      <point x="826" y="826" type="qcurve" smooth="yes"/>
      <point x="826" y="-418" type="line"/>
    </contour>
  </outline>
</glyph>
<glyph name="phigreek" format="2">
  <advance width="1403"/>
  <unicode hex="03D5"/>
  <outline>
    <contour>
      <point x="613" y="-24" type="line" smooth="yes"/>
      <point x="461" y="-24"/>
      <point x="232" y="120"/>
      <point x="104" y="380"/>
      <point x="104" y="552" type="qcurve" smooth="yes"/>
      <point x="104" y="727"/>
      <point x="232" y="988"/>
      <point x="461" y="1132"/>
      <point x="613" y="1132" type="qcurve" smooth="yes"/>
      <point x="790" y="1132" type="line" smooth="yes"/>
      <point x="943" y="1132"/>
      <point x="1172" y="987"/>
      <point x="1299" y="727"/>
      <point x="1299" y="552" type="qcurve" smooth="yes"/>
      <point x="1299" y="380"/>
      <point x="1172" y="120"/>
      <point x="943" y="-24"/>
      <point x="790" y="-24" type="qcurve" smooth="yes"/>
    </contour>
    <contour>
      <point x="613" y="137" type="qcurve" smooth="yes"/>
      <point x="790" y="137" type="line" smooth="yes"/>
      <point x="902" y="137"/>
      <point x="1047" y="253"/>
      <point x="1117" y="442"/>
      <point x="1117" y="552" type="qcurve" smooth="yes"/>
      <point x="1117" y="664"/>
      <point x="1046" y="854"/>
      <point x="902" y="971"/>
      <point x="790" y="971" type="qcurve" smooth="yes"/>
      <point x="613" y="971" type="line" smooth="yes"/>
      <point x="501" y="971"/>
      <point x="357" y="854"/>
      <point x="287" y="664"/>
      <point x="287" y="552" type="qcurve" smooth="yes"/>
      <point x="287" y="442"/>
      <point x="357" y="252"/>
      <point x="501" y="137"/>
    </contour>
    <contour>
      <point x="613" y="-418" type="line"/>
      <point x="613" y="1491" type="line"/>
      <point x="790" y="1491" type="line"/>
      <point x="790" y="-418" type="line"/>
    </contour>
  </outline>
</glyph>
<glyph name="uni03F6" format="2">
  <advance width="922"/>
  <unicode hex="03F6"/>
  <outline>
    <contour>
      <point x="64" y="165" type="line"/>
      <point x="370" y="165" type="line" smooth="yes"/>
      <point x="475" y="165"/>
      <point x="601" y="260"/>
      <point x="656" y="421"/>
      <point x="653" y="521" type="qcurve" smooth="yes"/>
      <point x="652" y="561" type="line" smooth="yes"/>
      <point x="650" y="661"/>
      <point x="595" y="822"/>
      <point x="474" y="917"/>
      <point x="370" y="917" type="qcurve" smooth="yes"/>
      <point x="64" y="917" type="line"/>
      <point x="64" y="1083" type="line"/>
      <point x="370" y="1083" type="line" smooth="yes"/>
      <point x="536" y="1083"/>
      <point x="752" y="942"/>
      <point x="858" y="706"/>
      <point x="858" y="561" type="qcurve" smooth="yes"/>
      <point x="858" y="521" type="line" smooth="yes"/>
      <point x="858" y="377"/>
      <point x="752" y="140"/>
      <point x="536" y="-1"/>
      <point x="370" y="-1" type="qcurve" smooth="yes"/>
      <point x="64" y="-1" type="line"/>
    </contour>
    <contour>
      <point x="254" y="458" type="line"/>
      <point x="254" y="622" type="line"/>
      <point x="799" y="622" type="line"/>
      <point x="799" y="458" type="line"/>
    </contour>
  </outline>
</glyph>
<glyph name="uni040A" format="2">
  <advance width="2304"/>
  <unicode hex="040A"/>
  <outline>
    <contour>
      <point x="180" y="0" type="line"/>
      <point x="180" y="1490" type="line"/>
      <point x="360" y="1490" type="line"/>
      <point x="360" y="896" type="line"/>
      <point x="1242" y="896" type="line"/>
      <point x="1242" y="736" type="line"/>
      <point x="360" y="736" type="line"/>
      <point x="360" y="0" type="line"/>
    </contour>
    <contour>
      <point x="1293" y="902" type="line"/>
      <point x="1698" y="902" type="line" smooth="yes"/>
      <point x="1852" y="902"/>
      <point x="2077" y="794"/>
      <point x="2200" y="595"/>
      <point x="2200" y="459" type="qcurve" smooth="yes"/>
      <point x="2200" y="318"/>
      <point x="2078" y="112"/>
      <point x="1853" y="0"/>
      <point x="1698" y="0" type="qcurve" smooth="yes"/>
      <point x="1154" y="0" type="line"/>
      <point x="1154" y="1490" type="line"/>
      <point x="1344" y="1490" type="line"/>
      <point x="1344" y="165" type="line"/>
      <point x="1698" y="165" type="line" smooth="yes"/>
      <point x="1843" y="165"/>
      <point x="2012" y="325"/>
      <point x="2012" y="461" type="qcurve" smooth="yes"/>
      <point x="2012" y="546"/>
      <point x="1935" y="668"/>
      <point x="1795" y="735"/>
      <point x="1698" y="735" type="qcurve" smooth="yes"/>
      <point x="1293" y="735" type="line"/>
    </contour>
  </outline>
</glyph>
<glyph name="uni0427" format="2">
  <advance width="1434"/>
  <unicode hex="0427"/>
  <anchor x="818" y="1490" name="m.uni030F_1"/>
  <outline>
    <contour>
      <point x="657" y="556" type="qcurve" smooth="yes"/>
      <point x="502" y="556"/>
      <point x="278" y="656"/>
      <point x="158" y="867"/>
      <point x="158" y="1032" type="qcurve" smooth="yes"/>
      <point x="158" y="1490" type="line"/>
      <point x="348" y="1490" type="line"/>
      <point x="348" y="1033" type="line" smooth="yes"/>
      <point x="348" y="870"/>
      <point x="536" y="725"/>
      <point x="681" y="725" type="qcurve" smooth="yes"/>
      <point x="804" y="725"/>
      <point x="1024" y="807"/>
      <point x="1121" y="877" type="qcurve"/>
      <point x="1121" y="691" type="line"/>
      <point x="1025" y="631"/>
      <point x="798" y="556"/>
    </contour>
    <contour>
      <point x="1064" y="0" type="line"/>
      <point x="1064" y="1490" type="line"/>
      <point x="1254" y="1490" type="line"/>
      <point x="1254" y="0" type="line"/>
    </contour>
  </outline>
</glyph>
<glyph name="uni043D" format="2">
  <advance width="1211"/>
  <unicode hex="043D"/>
  <anchor x="783" y="1180" name="m.uni030F_1"/>
  <outline>
    <contour>
      <point x="914" y="641" type="line"/>
      <point x="914" y="475" type="line"/>
      <point x="295" y="475" type="line"/>
      <point x="295" y="641" type="line"/>
    </contour>
    <contour>
      <point x="338" y="1118" type="line"/>
      <point x="338" y="0" type="line"/>
      <point x="158" y="0" type="line"/>
      <point x="158" y="1118" type="line"/>
    </contour>
    <contour>
      <point x="1053" y="1118" type="line"/>
      <point x="1053" y="0" type="line"/>
      <point x="872" y="0" type="line"/>
      <point x="872" y="1118" type="line"/>
    </contour>
  </outline>
</glyph>
<glyph name="uni043F" format="2">
  <advance width="1204"/>
  <unicode hex="043F"/>
  <outline>
    <contour>
      <point x="1046" y="1118" type="line"/>
      <point x="1046" y="0" type="line"/>
      <point x="866" y="0" type="line"/>
      <point x="866" y="952" type="line"/>
      <point x="339" y="952" type="line"/>
      <point x="339" y="0" type="line"/>
      <point x="158" y="0" type="line"/>
      <point x="158" y="1118" type="line"/>
    </contour>
  </outline>
</glyph>
<glyph name="uni0447" format="2">
  <advance width="1183"/>
  <unicode hex="0447"/>
  <anchor x="735" y="1180" name="m.uni030F_1"/>
  <outline>
    <contour>
      <point x="583" y="350" type="qcurve" smooth="yes"/>
      <point x="389" y="350"/>
      <point x="158" y="555"/>
      <point x="158" y="760" type="qcurve" smooth="yes"/>
      <point x="158" y="1118" type="line"/>
      <point x="338" y="1118" type="line"/>
      <point x="338" y="760" type="line" smooth="yes"/>
      <point x="338" y="634"/>
      <point x="478" y="516"/>
      <point x="583" y="516" type="qcurve" smooth="yes"/>
      <point x="690" y="516"/>
      <point x="866" y="556"/>
      <point x="954" y="587" type="qcurve"/>
      <point x="954" y="421" type="line"/>
      <point x="896" y="400"/>
      <point x="781" y="368"/>
      <point x="656" y="350"/>
    </contour>
    <contour>
      <point x="845" y="0" type="line"/>
      <point x="845" y="1118" type="line"/>
      <point x="1025" y="1118" type="line"/>
      <point x="1025" y="0" type="line"/>
    </contour>
  </outline>
</glyph>
<glyph name="uni045A" format="2">
  <advance width="1836"/>
  <unicode hex="045A"/>
  <outline>
    <contour>
      <point x="1021" y="0" type="line"/>
      <point x="1021" y="166" type="line"/>
      <point x="1338" y="166" type="line" smooth="yes"/>
      <point x="1441" y="166"/>
      <point x="1550" y="247"/>
      <point x="1550" y="323" type="qcurve" smooth="yes"/>
      <point x="1550" y="402"/>
      <point x="1441" y="487"/>
      <point x="1338" y="487" type="qcurve" smooth="yes"/>
      <point x="1017" y="487" type="line"/>
      <point x="1017" y="653" type="line"/>
      <point x="1338" y="653" type="line" smooth="yes"/>
      <point x="1520" y="653"/>
      <point x="1732" y="479"/>
      <point x="1732" y="330" type="qcurve" smooth="yes"/>
      <point x="1732" y="179"/>
      <point x="1520" y="0"/>
      <point x="1338" y="0" type="qcurve" smooth="yes"/>
    </contour>
    <contour>
      <point x="158" y="0" type="line"/>
      <point x="158" y="1118" type="line"/>
      <point x="338" y="1118" type="line"/>
      <point x="338" y="0" type="line"/>
    </contour>
    <contour>
      <point x="295" y="485" type="line"/>
      <point x="295" y="652" type="line"/>
      <point x="908" y="652" type="line"/>
      <point x="908" y="485" type="line"/>
    </contour>
    <contour>
      <point x="866" y="0" type="line"/>
      <point x="866" y="1118" type="line"/>
      <point x="1046" y="1118" type="line"/>
      <point x="1046" y="0" type="line"/>
    </contour>
  </outline>
</glyph>
<glyph name="uni0461" format="2">
  <advance width="1652"/>
  <unicode hex="0461"/>
  <outline>
    <contour>
      <point x="505" y="-20" type="qcurve" smooth="yes"/>
      <point x="403" y="-20"/>
      <point x="246" y="75"/>
      <point x="158" y="244"/>
      <point x="158" y="354" type="qcurve" smooth="yes"/>
      <point x="158" y="1118" type="line"/>
      <point x="338" y="1118" type="line"/>
      <point x="338" y="355" type="line" smooth="yes"/>
      <point x="338" y="259"/>
      <point x="446" y="146"/>
      <point x="538" y="146" type="qcurve" smooth="yes"/>
      <point x="631" y="146"/>
      <point x="738" y="259"/>
      <point x="738" y="355" type="qcurve" smooth="yes"/>
      <point x="738" y="1118" type="line"/>
      <point x="918" y="1118" type="line"/>
      <point x="918" y="355" type="line" smooth="yes"/>
      <point x="918" y="259"/>
      <point x="1025" y="146"/>
      <point x="1116" y="146" type="qcurve" smooth="yes"/>
      <point x="1208" y="146"/>
      <point x="1314" y="259"/>
      <point x="1314" y="355" type="qcurve" smooth="yes"/>
      <point x="1314" y="1118" type="line"/>
      <point x="1494" y="1118" type="line"/>
      <point x="1494" y="354" type="line" smooth="yes"/>
      <point x="1494" y="244"/>
      <point x="1406" y="75"/>
      <point x="1251" y="-20"/>
      <point x="1149" y="-20" type="qcurve" smooth="yes"/>
      <point x="1040" y="-20"/>
      <point x="885" y="78"/>
      <point x="802" y="248"/>
      <point x="801" y="354" type="qcurve"/>
      <point x="855" y="354" type="line"/>
      <point x="855" y="249"/>
      <point x="772" y="79"/>
      <point x="616" y="-20"/>
    </contour>
  </outline>
</glyph>
<glyph name="uni0465" format="2">
  <advance width="1601"/>
  <unicode hex="0465"/>
  <outline>
    <contour>
      <point x="1172" y="640" type="line"/>
      <point x="1172" y="478" type="line"/>
      <point x="293" y="478" type="line"/>
      <point x="293" y="640" type="line"/>
    </contour>
    <contour>
      <point x="338" y="1118" type="line"/>
      <point x="338" y="0" type="line"/>
      <point x="158" y="0" type="line"/>
      <point x="158" y="1118" type="line"/>
    </contour>
    <contour>
      <point x="1057" y="-24" type="qcurve" smooth="yes"/>
      <point x="899" y="-24"/>
      <point x="670" y="125"/>
      <point x="547" y="385"/>
      <point x="547" y="552" type="qcurve" smooth="yes"/>
      <point x="547" y="723"/>
      <point x="674" y="984"/>
      <point x="902" y="1132"/>
      <point x="1055" y="1132" type="qcurve" smooth="yes"/>
      <point x="1174" y="1132"/>
      <point x="1366" y="1044"/>
      <point x="1487" y="884"/>
      <point x="1501" y="776" type="qcurve"/>
      <point x="1320" y="776" type="line"/>
      <point x="1308" y="826"/>
      <point x="1241" y="915"/>
      <point x="1132" y="971"/>
      <point x="1056" y="971" type="qcurve" smooth="yes"/>
      <point x="959" y="971"/>
      <point x="811" y="869"/>
      <point x="729" y="684"/>
      <point x="729" y="558" type="qcurve" smooth="yes"/>
      <point x="729" y="431"/>
      <point x="810" y="241"/>
      <point x="957" y="137"/>
      <point x="1056" y="137" type="qcurve" smooth="yes"/>
      <point x="1156" y="137"/>
      <point x="1298" y="241"/>
      <point x="1320" y="332" type="qcurve"/>
      <point x="1501" y="332" type="line"/>
      <point x="1487" y="230"/>
      <point x="1372" y="69"/>
      <point x="1183" y="-24"/>
    </contour>
  </outline>
</glyph>
<glyph name="uni0467" format="2">
  <advance width="1169"/>
  <unicode hex="0467"/>
  <outline>
    <contour>
      <point x="920" y="0" type="line"/>
      <point x="621" y="787" type="line"/>
      <point x="518" y="1118" type="line"/>
      <point x="675" y="1118" type="line"/>
      <point x="1115" y="0" type="line"/>
    </contour>
    <contour>
      <point x="499" y="0" type="line"/>
      <point x="499" y="245" type="line" smooth="yes"/>
      <point x="499" y="314"/>
      <point x="439" y="385"/>
      <point x="369" y="388" type="qcurve"/>
      <point x="369" y="543" type="line"/>
      <point x="434" y="543"/>
      <point x="551" y="491"/>
      <point x="585" y="412" type="qcurve"/>
      <point x="620" y="491"/>
      <point x="736" y="543"/>
      <point x="801" y="543" type="qcurve"/>
      <point x="801" y="388" type="line"/>
      <point x="732" y="385"/>
      <point x="670" y="316"/>
      <point x="670" y="245" type="qcurve" smooth="yes"/>
      <point x="670" y="0" type="line"/>
    </contour>
    <contour>
      <point x="54" y="0" type="line"/>
      <point x="492" y="1118" type="line"/>
      <point x="647" y="1118" type="line"/>
      <point x="541" y="787" type="line"/>
      <point x="246" y="0" type="line"/>
    </contour>
  </outline>
</glyph>
<glyph name="uni0481" format="2">
  <advance width="1158"/>
  <unicode hex="0481"/>
  <outline>
    <contour>
      <point x="719" y="137" type="line"/>
      <point x="719" y="-359" type="line"/>
      <point x="540" y="-359" type="line"/>
      <point x="540" y="137" type="line"/>
    </contour>
    <contour>
      <point x="613" y="-24" type="line"/>
      <point x="456" y="-24"/>
      <point x="227" y="125"/>
      <point x="104" y="385"/>
      <point x="104" y="552" type="qcurve" smooth="yes"/>
      <point x="104" y="723"/>
      <point x="230" y="985"/>
      <point x="459" y="1132"/>
      <point x="611" y="1132" type="qcurve" smooth="yes"/>
      <point x="731" y="1132"/>
      <point x="922" y="1044"/>
      <point x="1044" y="884"/>
      <point x="1058" y="776" type="qcurve"/>
      <point x="877" y="776" type="line"/>
      <point x="865" y="827"/>
      <point x="798" y="916"/>
      <point x="689" y="971"/>
      <point x="613" y="971" type="qcurve" smooth="yes"/>
      <point x="516" y="971"/>
      <point x="369" y="869"/>
      <point x="287" y="683"/>
      <point x="287" y="558" type="qcurve" smooth="yes"/>
      <point x="287" y="431"/>
      <point x="368" y="242"/>
      <point x="514" y="137"/>
      <point x="613" y="137" type="qcurve"/>
    </contour>
  </outline>
</glyph>
<glyph name="uni048F" format="2">
  <advance width="1248"/>
  <unicode hex="048F"/>
  <anchor x="443" y="-401" name="m.uni0326"/>
  <anchor x="763" y="1180" name="m.uni030F_1"/>
  <outline>
    <contour>
      <point x="788" y="390" type="line"/>
      <point x="1126" y="14" type="line"/>
      <point x="1010" y="-96" type="line"/>
      <point x="672" y="280" type="line"/>
    </contour>
    <contour>
      <point x="158" y="-418" type="line"/>
      <point x="158" y="1118" type="line"/>
      <point x="332" y="1118" type="line"/>
      <point x="332" y="939" type="line"/>
      <point x="352" y="939" type="line"/>
      <point x="371" y="969"/>
      <point x="439" y="1060"/>
      <point x="567" y="1132"/>
      <point x="676" y="1132" type="qcurve" smooth="yes"/>
      <point x="816" y="1132"/>
      <point x="1029" y="992"/>
      <point x="1150" y="733"/>
      <point x="1150" y="556" type="qcurve" smooth="yes"/>
      <point x="1150" y="378"/>
      <point x="1030" y="118"/>
      <point x="817" y="-24"/>
      <point x="677" y="-24" type="qcurve" smooth="yes"/>
      <point x="571" y="-24"/>
      <point x="441" y="49"/>
      <point x="371" y="142"/>
      <point x="352" y="173" type="qcurve"/>
      <point x="338" y="173" type="line"/>
      <point x="338" y="-418" type="line"/>
    </contour>
    <contour>
      <point x="650" y="137" type="qcurve" smooth="yes"/>
      <point x="755" y="137"/>
      <point x="896" y="250"/>
      <point x="967" y="441"/>
      <point x="967" y="558" type="qcurve" smooth="yes"/>
      <point x="967" y="674"/>
      <point x="897" y="861"/>
      <point x="756" y="971"/>
      <point x="650" y="971" type="qcurve" smooth="yes"/>
      <point x="547" y="971"/>
      <point x="407" y="867"/>
      <point x="336" y="682"/>
      <point x="336" y="558" type="qcurve" smooth="yes"/>
      <point x="336" y="434"/>
      <point x="408" y="244"/>
      <point x="549" y="137"/>
    </contour>
  </outline>
</glyph>
<glyph name="uni0490" format="2">
  <advance width="1185"/>
  <unicode hex="0490"/>
  <anchor x="696" y="1490" name="m.uni030F_1"/>
  <outline>
    <contour>
      <point x="908" y="1330" type="line"/>
      <point x="908" y="1792" type="line"/>
      <point x="1080" y="1792" type="line"/>
      <point x="1080" y="1330" type="line"/>
    </contour>
    <contour>
      <point x="1087" y="1490" type="line"/>
      <point x="1087" y="1323" type="line"/>
      <point x="370" y="1323" type="line"/>
      <point x="370" y="0" type="line"/>
      <point x="180" y="0" type="line"/>
      <point x="180" y="1490" type="line"/>
    </contour>
  </outline>
</glyph>
<glyph name="uni04A7" format="2">
  <advance width="1888"/>
  <unicode hex="04A7"/>
  <outline>
    <contour>
      <point x="972" y="488" type="line"/>
      <point x="972" y="648" type="line"/>
      <point x="1250" y="648" type="line"/>
      <point x="1405" y="649"/>
      <point x="1646" y="534"/>
      <point x="1784" y="320"/>
      <point x="1784" y="172" type="qcurve" smooth="yes"/>
      <point x="1784" y="116"/>
      <point x="1742" y="-25"/>
      <point x="1650" y="-163"/>
      <point x="1502" y="-267"/>
      <point x="1396" y="-286" type="qcurve"/>
      <point x="1344" y="-130" type="line"/>
      <point x="1479" y="-95"/>
      <point x="1612" y="65"/>
      <point x="1612" y="172" type="qcurve" smooth="yes"/>
      <point x="1612" y="270"/>
      <point x="1513" y="411"/>
      <point x="1348" y="488"/>
      <point x="1250" y="488" type="qcurve" smooth="yes"/>
    </contour>
    <contour>
      <point x="1046" y="1118" type="line"/>
      <point x="1046" y="0" type="line"/>
      <point x="866" y="0" type="line"/>
      <point x="866" y="952" type="line"/>
      <point x="339" y="952" type="line"/>
      <point x="339" y="0" type="line"/>
      <point x="158" y="0" type="line"/>
      <point x="158" y="1118" type="line"/>
    </contour>
  </outline>
</glyph>
<glyph name="uni04BC" format="2">
  <advance width="1719"/>
  <unicode hex="04BC"/>
  <outline>
    <contour>
      <point x="969" y="-20" type="qcurve" smooth="yes"/>
      <point x="778" y="-20"/>
      <point x="482" y="166"/>
      <point x="314" y="510"/>
      <point x="314" y="746" type="qcurve" smooth="yes"/>
      <point x="314" y="923"/>
      <point x="410" y="1205"/>
      <point x="587" y="1404"/>
      <point x="832" y="1510"/>
      <point x="981" y="1510" type="qcurve" smooth="yes"/>
      <point x="1174" y="1510"/>
      <point x="1446" y="1335"/>
      <point x="1591" y="1026"/>
      <point x="1591" y="824" type="qcurve" smooth="yes"/>
      <point x="1591" y="661" type="line"/>
      <point x="457" y="661" type="line"/>
      <point x="457" y="827" type="line"/>
      <point x="1463" y="827" type="line"/>
      <point x="1406" y="816" type="line"/>
      <point x="1406" y="966"/>
      <point x="1311" y="1200"/>
      <point x="1122" y="1334"/>
      <point x="981" y="1334" type="qcurve" smooth="yes"/>
      <point x="844" y="1334"/>
      <point x="626" y="1198"/>
      <point x="499" y="936"/>
      <point x="499" y="746" type="qcurve" smooth="yes"/>
      <point x="499" y="555"/>
      <point x="625" y="291"/>
      <point x="839" y="156"/>
      <point x="969" y="156" type="qcurve" smooth="yes"/>
      <point x="1049" y="156"/>
      <point x="1181" y="199"/>
      <point x="1286" y="281"/>
      <point x="1362" y="395"/>
      <point x="1385" y="467" type="qcurve"/>
      <point x="1581" y="467" type="line"/>
      <point x="1561" y="359"/>
      <point x="1454" y="180"/>
      <point x="1293" y="51"/>
      <point x="1088" y="-20"/>
    </contour>
    <contour>
      <point x="20" y="1057" type="line"/>
      <point x="197" y="1057" type="line"/>
      <point x="197" y="980" type="line" smooth="yes"/>
      <point x="197" y="908"/>
      <point x="215" y="844"/>
      <point x="276" y="828"/>
      <point x="339" y="828" type="qcurve" smooth="yes"/>
      <point x="382" y="828" type="line"/>
      <point x="382" y="662" type="line"/>
      <point x="337" y="662" type="line" smooth="yes"/>
      <point x="178" y="662"/>
      <point x="20" y="828"/>
      <point x="20" y="994" type="qcurve" smooth="yes"/>
    </contour>
  </outline>
</glyph>
<glyph name="g.sups" format="2">
  <advance width="850"/>
  <unicode hex="1D4D"/>
  <outline>
    <contour>
      <point x="410" y="454" type="qcurve" smooth="yes"/>
      <point x="275" y="454"/>
      <point x="112" y="560"/>
      <point x="90" y="639" type="qcurve"/>
      <point x="236" y="666" type="line"/>
      <point x="253" y="626"/>
      <point x="341" y="571"/>
      <point x="412" y="571" type="qcurve" smooth="yes"/>
      <point x="491" y="571"/>
      <point x="593" y="651"/>
      <point x="593" y="736" type="qcurve" smooth="yes"/>
      <point x="593" y="888" type="line"/>
      <point x="583" y="888" type="line"/>
      <point x="570" y="853"/>
      <point x="512" y="791"/>
      <point x="424" y="754"/>
      <point x="364" y="754" type="qcurve" smooth="yes"/>
      <point x="280" y="754"/>
      <point x="144" y="836"/>
      <point x="64" y="998"/>
      <point x="64" y="1118" type="qcurve" smooth="yes"/>
      <point x="64" y="1239"/>
      <point x="144" y="1409"/>
      <point x="280" y="1498"/>
      <point x="364" y="1498" type="qcurve" smooth="yes"/>
      <point x="425" y="1498"/>
      <point x="513" y="1455"/>
      <point x="569" y="1386"/>
      <point x="583" y="1348" type="qcurve"/>
      <point x="593" y="1348" type="line"/>
      <point x="593" y="1490" type="line"/>
      <point x="752" y="1490" type="line"/>
      <point x="752" y="734" type="line" smooth="yes"/>
      <point x="752" y="642"/>
      <point x="664" y="517"/>
      <point x="510" y="454"/>
    </contour>
    <contour>
      <point x="410" y="876" type="qcurve" smooth="yes"/>
      <point x="496" y="876"/>
      <point x="594" y="1006"/>
      <point x="594" y="1118" type="qcurve" smooth="yes"/>
      <point x="594" y="1227"/>
      <point x="499" y="1370"/>
      <point x="410" y="1370" type="qcurve" smooth="yes"/>
      <point x="351" y="1370"/>
      <point x="269" y="1304"/>
      <point x="227" y="1190"/>
      <point x="227" y="1118" type="qcurve" smooth="yes"/>
      <point x="227" y="1008"/>
      <point x="324" y="876"/>
    </contour>
  </outline>
</glyph>
<glyph name="k.sups" format="2">
  <advance width="762"/>
  <unicode hex="1D4F"/>
  <outline>
    <contour>
      <point x="241" y="984" type="line"/>
      <point x="241" y="1179" type="line"/>
      <point x="267" y="1179" type="line"/>
      <point x="545" y="1490" type="line"/>
      <point x="734" y="1490" type="line"/>
      <point x="405" y="1125" type="line"/>
      <point x="369" y="1125" type="line"/>
    </contour>
    <contour>
      <point x="96" y="744" type="line"/>
      <point x="96" y="1736" type="line"/>
      <point x="255" y="1736" type="line"/>
      <point x="255" y="744" type="line"/>
    </contour>
    <contour>
      <point x="557" y="744" type="line"/>
      <point x="309" y="1092" type="line"/>
      <point x="417" y="1203" type="line"/>
      <point x="744" y="744" type="line"/>
    </contour>
  </outline>
</glyph>
<glyph name="p.sups" format="2">
  <advance width="844"/>
  <unicode hex="1D56"/>
  <outline>
    <contour>
      <point x="96" y="466" type="line"/>
      <point x="96" y="1490" type="line"/>
      <point x="255" y="1490" type="line"/>
      <point x="255" y="1348" type="line"/>
      <point x="261" y="1348" type="line"/>
      <point x="277" y="1386"/>
      <point x="334" y="1455"/>
      <point x="422" y="1498"/>
      <point x="484" y="1498" type="qcurve" smooth="yes"/>
      <point x="567" y="1498"/>
      <point x="701" y="1409"/>
      <point x="780" y="1238"/>
      <point x="780" y="1114" type="qcurve" smooth="yes"/>
      <point x="780" y="996"/>
      <point x="703" y="824"/>
      <point x="570" y="730"/>
      <point x="484" y="730" type="qcurve" smooth="yes"/>
      <point x="421" y="730"/>
      <point x="333" y="775"/>
      <point x="277" y="844"/>
      <point x="261" y="880" type="qcurve"/>
      <point x="255" y="880" type="line"/>
      <point x="255" y="466" type="line"/>
    </contour>
    <contour>
      <point x="253" y="1118" type="qcurve" smooth="yes"/>
      <point x="253" y="1006"/>
      <point x="350" y="862"/>
      <point x="436" y="862" type="qcurve" smooth="yes"/>
      <point x="495" y="862"/>
      <point x="576" y="929"/>
      <point x="619" y="1045"/>
      <point x="619" y="1118" type="qcurve" smooth="yes"/>
      <point x="619" y="1227"/>
      <point x="524" y="1370"/>
      <point x="436" y="1370" type="qcurve" smooth="yes"/>
      <point x="350" y="1370"/>
      <point x="253" y="1229"/>
    </contour>
  </outline>
</glyph>
<glyph name="u.sups" format="2">
  <advance width="829"/>
  <unicode hex="1D58"/>
  <outline>
    <contour>
      <point x="574" y="1044" type="qcurve" smooth="yes"/>
      <point x="574" y="1490" type="line"/>
      <point x="733" y="1490" type="line"/>
      <point x="733" y="744" type="line"/>
      <point x="578" y="744" type="line"/>
      <point x="578" y="876" type="line"/>
      <point x="574" y="876" type="line"/>
      <point x="547" y="812"/>
      <point x="429" y="736"/>
      <point x="346" y="736" type="qcurve" smooth="yes"/>
      <point x="235" y="736"/>
      <point x="96" y="884"/>
      <point x="96" y="1011" type="qcurve" smooth="yes"/>
      <point x="96" y="1490" type="line"/>
      <point x="255" y="1490" type="line"/>
      <point x="255" y="1034" type="line" smooth="yes"/>
      <point x="255" y="961"/>
      <point x="341" y="870"/>
      <point x="410" y="870" type="qcurve" smooth="yes"/>
      <point x="472" y="870"/>
      <point x="574" y="962"/>
    </contour>
  </outline>
</glyph>
<glyph name="c.sups" format="2">
  <advance width="789"/>
  <unicode hex="1D9C"/>
  <outline>
    <contour>
      <point x="412" y="730" type="qcurve" smooth="yes"/>
      <point x="305" y="730"/>
      <point x="148" y="829"/>
      <point x="62" y="1002"/>
      <point x="62" y="1114" type="qcurve" smooth="yes"/>
      <point x="62" y="1226"/>
      <point x="148" y="1399"/>
      <point x="305" y="1498"/>
      <point x="412" y="1498" type="qcurve" smooth="yes"/>
      <point x="544" y="1498"/>
      <point x="717" y="1352"/>
      <point x="727" y="1232" type="qcurve"/>
      <point x="575" y="1232" type="line"/>
      <point x="566" y="1288"/>
      <point x="484" y="1372"/>
      <point x="416" y="1372" type="qcurve" smooth="yes"/>
      <point x="360" y="1372"/>
      <point x="272" y="1309"/>
      <point x="223" y="1195"/>
      <point x="223" y="1118" type="qcurve" smooth="yes"/>
      <point x="223" y="1039"/>
      <point x="271" y="923"/>
      <point x="358" y="860"/>
      <point x="416" y="860" type="qcurve" smooth="yes"/>
      <point x="471" y="860"/>
      <point x="564" y="928"/>
      <point x="575" y="999" type="qcurve"/>
      <point x="727" y="999" type="line"/>
      <point x="717" y="877"/>
      <point x="547" y="730"/>
    </contour>
  </outline>
</glyph>
<glyph name="uni1DC0" format="2">
  <unicode hex="1DC0"/>
  <outline>
    <contour>
      <point x="-627" y="1536" type="line"/>
      <point x="-432" y="1239" type="line"/>
      <point x="-610" y="1239" type="line"/>
      <point x="-876" y="1536" type="line"/>
    </contour>
    <contour>
      <point x="-1022" y="1288" type="qcurve" smooth="yes"/>
      <point x="-1022" y="1338"/>
      <point x="-958" y="1403"/>
      <point x="-900" y="1403" type="qcurve" smooth="yes"/>
      <point x="-842" y="1403"/>
      <point x="-784" y="1336"/>
      <point x="-784" y="1288" type="qcurve" smooth="yes"/>
      <point x="-784" y="1242"/>
      <point x="-844" y="1180"/>
      <point x="-900" y="1180" type="qcurve" smooth="yes"/>
      <point x="-958" y="1180"/>
      <point x="-1022" y="1242"/>
    </contour>
    <contour>
      <point x="-434" y="1388" type="qcurve" smooth="yes"/>
      <point x="-434" y="1438"/>
      <point x="-372" y="1501"/>
      <point x="-316" y="1501" type="qcurve" smooth="yes"/>
      <point x="-256" y="1501"/>
      <point x="-196" y="1435"/>
      <point x="-196" y="1388" type="qcurve" smooth="yes"/>
      <point x="-196" y="1342"/>
      <point x="-258" y="1278"/>
      <point x="-316" y="1278" type="qcurve" smooth="yes"/>
      <point x="-372" y="1278"/>
      <point x="-434" y="1342"/>
    </contour>
  </outline>
</glyph>
<glyph name="uni1DD4" format="2">
  <unicode hex="1DD4"/>
  <outline>
    <contour>
      <point x="-667" y="1462" type="line"/>
      <point x="-667" y="1560" type="line" smooth="yes"/>
      <point x="-667" y="1604"/>
      <point x="-707" y="1651"/>
      <point x="-751" y="1651" type="qcurve" smooth="yes"/>
      <point x="-797" y="1651"/>
      <point x="-849" y="1614"/>
      <point x="-849" y="1582" type="qcurve"/>
      <point x="-975" y="1591" type="line"/>
      <point x="-976" y="1663"/>
      <point x="-850" y="1760"/>
      <point x="-750" y="1760" type="qcurve" smooth="yes"/>
      <point x="-655" y="1760"/>
      <point x="-531" y="1658"/>
      <point x="-531" y="1560" type="qcurve" smooth="yes"/>
      <point x="-531" y="1479" type="line"/>
    </contour>
    <contour>
      <point x="-653" y="1525" type="line"/>
      <point x="-653" y="1441" type="line"/>
      <point x="-765" y="1441" type="line" smooth="yes"/>
      <point x="-816" y="1441"/>
      <point x="-876" y="1393"/>
      <point x="-876" y="1362" type="qcurve" smooth="yes"/>
      <point x="-876" y="1332"/>
      <point x="-833" y="1299"/>
      <point x="-791" y="1299" type="qcurve" smooth="yes"/>
      <point x="-748" y="1299"/>
      <point x="-659" y="1350"/>
      <point x="-649" y="1390" type="qcurve"/>
      <point x="-628" y="1317" type="line"/>
      <point x="-650" y="1265"/>
      <point x="-751" y="1192"/>
      <point x="-824" y="1192" type="qcurve" smooth="yes"/>
      <point x="-909" y="1192"/>
      <point x="-1010" y="1282"/>
      <point x="-1010" y="1358" type="qcurve" smooth="yes"/>
      <point x="-1010" y="1437"/>
      <point x="-880" y="1525"/>
      <point x="-765" y="1525" type="qcurve" smooth="yes"/>
    </contour>
    <contour>
      <point x="-401" y="1186" type="qcurve" smooth="yes"/>
      <point x="-484" y="1186"/>
      <point x="-602" y="1255"/>
      <point x="-665" y="1376"/>
      <point x="-665" y="1454" type="qcurve" smooth="yes"/>
      <point x="-665" y="1474" type="line" smooth="yes"/>
      <point x="-665" y="1567"/>
      <point x="-597" y="1694"/>
      <point x="-483" y="1760"/>
      <point x="-414" y="1760" type="qcurve" smooth="yes"/>
      <point x="-291" y="1760"/>
      <point x="-173" y="1603"/>
      <point x="-173" y="1486" type="qcurve" smooth="yes"/>
      <point x="-173" y="1439" type="line"/>
      <point x="-595" y="1439" type="line"/>
      <point x="-595" y="1524" type="line"/>
      <point x="-301" y="1524" type="line"/>
      <point x="-301" y="1531" type="line" smooth="yes"/>
      <point x="-301" y="1582"/>
      <point x="-351" y="1650"/>
      <point x="-414" y="1650" type="qcurve" smooth="yes"/>
      <point x="-475" y="1650"/>
      <point x="-531" y="1557"/>
      <point x="-531" y="1474" type="qcurve" smooth="yes"/>
      <point x="-531" y="1454" type="line" smooth="yes"/>
      <point x="-531" y="1378"/>
      <point x="-460" y="1296"/>
      <point x="-395" y="1296" type="qcurve" smooth="yes"/>
      <point x="-348" y="1296"/>
      <point x="-279" y="1327"/>
      <point x="-254" y="1363" type="qcurve"/>
      <point x="-183" y="1293" type="line"/>
      <point x="-210" y="1253"/>
      <point x="-317" y="1186"/>
    </contour>
  </outline>
</glyph>
<glyph name="uni1DDA" format="2">
  <unicode hex="1DDA"/>
  <outline>
    <contour>
      <point x="-590" y="984" type="qcurve" smooth="yes"/>
      <point x="-649" y="984"/>
      <point x="-776" y="1031"/>
      <point x="-817" y="1081" type="qcurve"/>
      <point x="-753" y="1167" type="line"/>
      <point x="-719" y="1126"/>
      <point x="-636" y="1092"/>
      <point x="-596" y="1092" type="qcurve" smooth="yes"/>
      <point x="-525" y="1092"/>
      <point x="-455" y="1148"/>
      <point x="-455" y="1209" type="qcurve" smooth="yes"/>
      <point x="-455" y="1632" type="line"/>
      <point x="-441" y="1754" type="line"/>
      <point x="-321" y="1754" type="line"/>
      <point x="-321" y="1215" type="line" smooth="yes"/>
      <point x="-321" y="1132"/>
      <point x="-397" y="1030"/>
      <point x="-519" y="984"/>
    </contour>
    <contour>
      <point x="-606" y="1192" type="qcurve" smooth="yes"/>
      <point x="-673" y="1192"/>
      <point x="-781" y="1266"/>
      <point x="-844" y="1393"/>
      <point x="-844" y="1472" type="qcurve" smooth="yes"/>
      <point x="-844" y="1484" type="line" smooth="yes"/>
      <point x="-844" y="1608"/>
      <point x="-706" y="1766"/>
      <point x="-606" y="1766" type="qcurve" smooth="yes"/>
      <point x="-537" y="1766"/>
      <point x="-443" y="1701"/>
      <point x="-390" y="1579"/>
      <point x="-383" y="1492" type="qcurve"/>
      <point x="-383" y="1465" type="line"/>
      <point x="-390" y="1384"/>
      <point x="-440" y="1261"/>
      <point x="-534" y="1192"/>
    </contour>
    <contour>
      <point x="-577" y="1300" type="qcurve" smooth="yes"/>
      <point x="-510" y="1300"/>
      <point x="-446" y="1366"/>
      <point x="-431" y="1422" type="qcurve"/>
      <point x="-431" y="1534" type="line"/>
      <point x="-442" y="1593"/>
      <point x="-514" y="1657"/>
      <point x="-577" y="1657" type="qcurve" smooth="yes"/>
      <point x="-644" y="1657"/>
      <point x="-710" y="1561"/>
      <point x="-710" y="1484" type="qcurve" smooth="yes"/>
      <point x="-710" y="1472" type="line" smooth="yes"/>
      <point x="-710" y="1394"/>
      <point x="-648" y="1300"/>
    </contour>
  </outline>
</glyph>
<glyph name="uni1DE4" format="2">
  <unicode hex="1DE4"/>
  <outline>
    <contour>
      <point x="-498" y="1352" type="qcurve" smooth="yes"/>
      <point x="-498" y="1381"/>
      <point x="-552" y="1417"/>
      <point x="-622" y="1433" type="qcurve" smooth="yes"/>
      <point x="-695" y="1450"/>
      <point x="-818" y="1526"/>
      <point x="-818" y="1605" type="qcurve" smooth="yes"/>
      <point x="-818" y="1679"/>
      <point x="-694" y="1766"/>
      <point x="-601" y="1766" type="qcurve" smooth="yes"/>
      <point x="-502" y="1766"/>
      <point x="-368" y="1663"/>
      <point x="-368" y="1591" type="qcurve"/>
      <point x="-493" y="1591" type="line"/>
      <point x="-499" y="1626"/>
      <point x="-550" y="1663"/>
      <point x="-601" y="1663" type="qcurve" smooth="yes"/>
      <point x="-641" y="1663"/>
      <point x="-684" y="1634"/>
      <point x="-684" y="1605" type="qcurve" smooth="yes"/>
      <point x="-684" y="1575"/>
      <point x="-630" y="1547"/>
      <point x="-578" y="1533" type="qcurve" smooth="yes"/>
      <point x="-475" y="1507"/>
      <point x="-363" y="1434"/>
      <point x="-363" y="1358" type="qcurve" smooth="yes"/>
      <point x="-363" y="1276"/>
      <point x="-500" y="1192"/>
      <point x="-594" y="1192" type="qcurve" smooth="yes"/>
      <point x="-671" y="1192"/>
      <point x="-780" y="1247"/>
      <point x="-838" y="1331"/>
      <point x="-838" y="1376" type="qcurve"/>
      <point x="-714" y="1376" type="line"/>
      <point x="-712" y="1327"/>
      <point x="-628" y="1294"/>
      <point x="-589" y="1294" type="qcurve" smooth="yes"/>
      <point x="-542" y="1294"/>
      <point x="-498" y="1327"/>
    </contour>
  </outline>
</glyph>
<glyph name="uni1DE9" format="2">
  <unicode hex="1DE9"/>
  <outline>
    <contour>
      <point x="-639" y="1623" type="line"/>
      <point x="-564" y="1623" type="line" smooth="yes"/>
      <point x="-448" y="1623"/>
      <point x="-319" y="1507"/>
      <point x="-319" y="1419" type="qcurve" smooth="yes"/>
      <point x="-319" y="1310"/>
      <point x="-456" y="1192"/>
      <point x="-574" y="1192" type="qcurve" smooth="yes"/>
      <point x="-626" y="1192"/>
      <point x="-730" y="1229"/>
      <point x="-799" y="1312"/>
      <point x="-799" y="1380" type="qcurve"/>
      <point x="-752" y="1408" type="line"/>
      <point x="-746" y="1370"/>
      <point x="-659" y="1294"/>
      <point x="-584" y="1294" type="qcurve" smooth="yes"/>
      <point x="-518" y="1294"/>
      <point x="-451" y="1357"/>
      <point x="-451" y="1416" type="qcurve" smooth="yes"/>
      <point x="-451" y="1488"/>
      <point x="-524" y="1548"/>
      <point x="-577" y="1548" type="qcurve" smooth="yes"/>
      <point x="-639" y="1548" type="line"/>
    </contour>
    <contour>
      <point x="-596" y="1954" type="qcurve" smooth="yes"/>
      <point x="-496" y="1954"/>
      <point x="-362" y="1853"/>
      <point x="-362" y="1765" type="qcurve" smooth="yes"/>
      <point x="-362" y="1672"/>
      <point x="-495" y="1575"/>
      <point x="-594" y="1575" type="qcurve" smooth="yes"/>
      <point x="-639" y="1575" type="line"/>
      <point x="-639" y="1649" type="line"/>
      <point x="-596" y="1649" type="line" smooth="yes"/>
      <point x="-540" y="1649"/>
      <point x="-484" y="1699"/>
      <point x="-484" y="1753" type="qcurve" smooth="yes"/>
      <point x="-484" y="1798"/>
      <point x="-550" y="1852"/>
      <point x="-600" y="1852" type="qcurve" smooth="yes"/>
      <point x="-642" y="1852"/>
      <point x="-722" y="1797"/>
      <point x="-722" y="1720" type="qcurve" smooth="yes"/>
      <point x="-722" y="1005" type="line"/>
      <point x="-856" y="1005" type="line"/>
      <point x="-856" y="1720" type="line" smooth="yes"/>
      <point x="-856" y="1805"/>
      <point x="-778" y="1907"/>
      <point x="-658" y="1954"/>
    </contour>
  </outline>
</glyph>
<glyph name="uni1DEC" format="2">
  <unicode hex="1DEC"/>
  <outline>
    <contour>
      <point x="-466" y="1747" type="qcurve"/>
      <point x="-410" y="1728" type="line"/>
      <point x="-409" y="1680"/>
      <point x="-471" y="1612"/>
      <point x="-516" y="1612" type="qcurve" smooth="yes"/>
      <point x="-551" y="1612"/>
      <point x="-594" y="1635"/>
      <point x="-631" y="1658"/>
      <point x="-659" y="1658" type="qcurve" smooth="yes"/>
      <point x="-680" y="1658"/>
      <point x="-710" y="1625"/>
      <point x="-710" y="1602" type="qcurve"/>
      <point x="-768" y="1619" type="line"/>
      <point x="-768" y="1663"/>
      <point x="-708" y="1737"/>
      <point x="-660" y="1737" type="qcurve" smooth="yes"/>
      <point x="-632" y="1737"/>
      <point x="-588" y="1713"/>
      <point x="-543" y="1689"/>
      <point x="-517" y="1689" type="qcurve" smooth="yes"/>
      <point x="-497" y="1689"/>
      <point x="-466" y="1722"/>
    </contour>
    <contour>
      <point x="-466" y="1594" type="qcurve"/>
      <point x="-410" y="1580" type="line"/>
      <point x="-409" y="1534"/>
      <point x="-469" y="1463"/>
      <point x="-516" y="1463" type="qcurve" smooth="yes"/>
      <point x="-551" y="1463"/>
      <point x="-594" y="1486"/>
      <point x="-631" y="1509"/>
      <point x="-659" y="1509" type="qcurve" smooth="yes"/>
      <point x="-680" y="1509"/>
      <point x="-710" y="1473"/>
      <point x="-710" y="1453" type="qcurve"/>
      <point x="-768" y="1466" type="line"/>
      <point x="-768" y="1512"/>
      <point x="-708" y="1586"/>
      <point x="-660" y="1586" type="qcurve" smooth="yes"/>
      <point x="-632" y="1586"/>
      <point x="-588" y="1562"/>
      <point x="-543" y="1538"/>
      <point x="-517" y="1538" type="qcurve" smooth="yes"/>
      <point x="-497" y="1538"/>
      <point x="-466" y="1572"/>
    </contour>
    <contour>
      <point x="-653" y="1992" type="line"/>
      <point x="-521" y="1992" type="line"/>
      <point x="-521" y="1202" type="line"/>
      <point x="-653" y="1202" type="line"/>
    </contour>
  </outline>
</glyph>
<glyph name="uni1FBE" format="2">
  <advance width="549"/>
  <unicode hex="1FBE"/>
  <outline>
    <contour>
      <point x="322" y="-494" type="qcurve" smooth="yes"/>
      <point x="247" y="-494"/>
      <point x="152" y="-406"/>
      <point x="152" y="-308" type="qcurve" smooth="yes"/>
      <point x="152" y="-89" type="line"/>
      <point x="305" y="-89" type="line"/>
      <point x="305" y="-306" type="line" smooth="yes"/>
      <point x="305" y="-349"/>
      <point x="333" y="-383"/>
      <point x="355" y="-383" type="qcurve" smooth="yes"/>
      <point x="366" y="-383"/>
      <point x="392" y="-381"/>
      <point x="399" y="-381" type="qcurve"/>
      <point x="399" y="-482" type="line"/>
      <point x="386" y="-488"/>
      <point x="348" y="-494"/>
    </contour>
  </outline>
</glyph>
<glyph name="uni1FCD" format="2">
  <advance width="851"/>
  <unicode hex="1FCD"/>
  <outline>
    <contour>
      <point x="117" y="1255" type="qcurve" smooth="yes"/>
      <point x="104" y="1255" type="line"/>
      <point x="104" y="1327" type="line"/>
      <point x="117" y="1327" type="line" smooth="yes"/>
      <point x="168" y="1327"/>
      <point x="219" y="1363"/>
      <point x="219" y="1399" type="qcurve" smooth="yes"/>
      <point x="219" y="1430"/>
      <point x="168" y="1461"/>
      <point x="117" y="1461" type="qcurve" smooth="yes"/>
      <point x="80" y="1461" type="line"/>
      <point x="80" y="1568" type="line"/>
      <point x="117" y="1568" type="line" smooth="yes"/>
      <point x="236" y="1568"/>
      <point x="354" y="1492"/>
      <point x="354" y="1415" type="qcurve" smooth="yes"/>
      <point x="354" y="1335"/>
      <point x="236" y="1255"/>
    </contour>
    <contour>
      <point x="689" y="1264" type="line"/>
      <point x="564" y="1264" type="line"/>
      <point x="462" y="1558" type="line"/>
      <point x="655" y="1558" type="line"/>
    </contour>
  </outline>
</glyph>
<glyph name="uni1FCF" format="2">
  <advance width="582"/>
  <unicode hex="1FCF"/>
  <outline>
    <contour>
      <point x="191" y="1255" type="qcurve" smooth="yes"/>
      <point x="178" y="1255" type="line"/>
      <point x="178" y="1327" type="line"/>
      <point x="191" y="1327" type="line" smooth="yes"/>
      <point x="242" y="1327"/>
      <point x="293" y="1363"/>
      <point x="293" y="1399" type="qcurve" smooth="yes"/>
      <point x="293" y="1430"/>
      <point x="242" y="1461"/>
      <point x="191" y="1461" type="qcurve" smooth="yes"/>
      <point x="154" y="1461" type="line"/>
      <point x="154" y="1568" type="line"/>
      <point x="191" y="1568" type="line" smooth="yes"/>
      <point x="310" y="1568"/>
      <point x="428" y="1492"/>
      <point x="428" y="1415" type="qcurve" smooth="yes"/>
      <point x="428" y="1335"/>
      <point x="310" y="1255"/>
    </contour>
    <contour>
      <point x="422" y="1669" type="qcurve" smooth="yes"/>
      <point x="385" y="1669"/>
      <point x="314" y="1694"/>
      <point x="251" y="1727"/>
      <point x="198" y="1752"/>
      <point x="179" y="1752" type="qcurve" smooth="yes"/>
      <point x="153" y="1752"/>
      <point x="128" y="1702"/>
      <point x="126" y="1673" type="qcurve"/>
      <point x="0" y="1673" type="line"/>
      <point x="3" y="1763"/>
      <point x="82" y="1881"/>
      <point x="162" y="1881" type="qcurve" smooth="yes"/>
      <point x="201" y="1881"/>
      <point x="267" y="1855"/>
      <point x="325" y="1822"/>
      <point x="378" y="1796"/>
      <point x="403" y="1796" type="qcurve" smooth="yes"/>
      <point x="428" y="1796"/>
      <point x="454" y="1834"/>
      <point x="459" y="1877" type="qcurve"/>
      <point x="582" y="1877" type="line"/>
      <point x="579" y="1783"/>
      <point x="496" y="1669"/>
    </contour>
  </outline>
</glyph>
<glyph name="uni203B" format="2">
  <advance width="1310"/>
  <unicode hex="203B"/>
  <outline>
    <contour>
      <point x="338" y="222" type="line"/>
      <point x="206" y="356" type="line"/>
      <point x="988" y="1152" type="line"/>
      <point x="1119" y="1016" type="line"/>
    </contour>
    <contour>
      <point x="988" y="222" type="line"/>
      <point x="206" y="1016" type="line"/>
      <point x="338" y="1152" type="line"/>
      <point x="1119" y="356" type="line"/>
    </contour>
    <contour>
      <point x="104" y="692" type="qcurve" smooth="yes"/>
      <point x="104" y="741"/>
      <point x="164" y="808"/>
      <point x="222" y="808" type="qcurve" smooth="yes"/>
      <point x="283" y="808"/>
      <point x="342" y="741"/>
      <point x="342" y="692" type="qcurve" smooth="yes"/>
      <point x="342" y="646"/>
      <point x="283" y="581"/>
      <point x="222" y="581" type="qcurve" smooth="yes"/>
      <point x="165" y="581"/>
      <point x="104" y="645"/>
    </contour>
    <contour>
      <point x="537" y="250" type="qcurve" smooth="yes"/>
      <point x="537" y="297"/>
      <point x="597" y="363"/>
      <point x="655" y="363" type="qcurve" smooth="yes"/>
      <point x="713" y="363"/>
      <point x="775" y="297"/>
      <point x="775" y="250" type="qcurve" smooth="yes"/>
      <point x="775" y="203"/>
      <point x="713" y="136"/>
      <point x="655" y="136" type="qcurve" smooth="yes"/>
      <point x="597" y="136"/>
      <point x="537" y="203"/>
    </contour>
    <contour>
      <point x="537" y="1124" type="qcurve" smooth="yes"/>
      <point x="537" y="1171"/>
      <point x="597" y="1236"/>
      <point x="655" y="1236" type="qcurve" smooth="yes"/>
      <point x="713" y="1236"/>
      <point x="775" y="1171"/>
      <point x="775" y="1124" type="qcurve" smooth="yes"/>
      <point x="775" y="1077"/>
      <point x="713" y="1011"/>
      <point x="655" y="1011" type="qcurve" smooth="yes"/>
      <point x="597" y="1011"/>
      <point x="537" y="1077"/>
    </contour>
    <contour>
      <point x="968" y="692" type="qcurve" smooth="yes"/>
      <point x="968" y="741"/>
      <point x="1030" y="808"/>
      <point x="1088" y="808" type="qcurve" smooth="yes"/>
      <point x="1146" y="808"/>
      <point x="1208" y="741"/>
      <point x="1208" y="692" type="qcurve" smooth="yes"/>
      <point x="1208" y="645"/>
      <point x="1146" y="581"/>
      <point x="1088" y="581" type="qcurve" smooth="yes"/>
      <point x="1030" y="581"/>
      <point x="968" y="645"/>
    </contour>
  </outline>
</glyph>
<glyph name="bracketright_quill" format="2">
  <advance width="747"/>
  <unicode hex="2046"/>
  <outline>
    <contour>
      <point x="438" y="727" type="line"/>
      <point x="438" y="575" type="line"/>
      <point x="126" y="575" type="line"/>
      <point x="126" y="727" type="line"/>
    </contour>
    <contour>
      <point x="123" y="-279" type="line"/>
      <point x="123" y="-126" type="line"/>
      <point x="349" y="-126" type="line"/>
      <point x="349" y="1428" type="line"/>
      <point x="123" y="1428" type="line"/>
      <point x="123" y="1581" type="line"/>
      <point x="521" y="1581" type="line"/>
      <point x="521" y="-279" type="line"/>
    </contour>
  </outline>
</glyph>
<glyph name="uni204B" format="2">
  <advance width="1234"/>
  <unicode hex="204B"/>
  <outline>
    <contour>
      <point x="189" y="1324" type="line"/>
      <point x="189" y="1490" type="line"/>
      <point x="631" y="1490" type="line" smooth="yes"/>
      <point x="790" y="1490"/>
      <point x="1010" y="1367"/>
      <point x="1124" y="1156"/>
      <point x="1124" y="1022" type="qcurve" smooth="yes"/>
      <point x="1124" y="887"/>
      <point x="1010" y="674"/>
      <point x="790" y="552"/>
      <point x="631" y="552" type="qcurve" smooth="yes"/>
      <point x="547" y="552" type="line"/>
      <point x="547" y="1324" type="line"/>
    </contour>
    <contour>
      <point x="367" y="0" type="line"/>
      <point x="180" y="0" type="line"/>
      <point x="180" y="1490" type="line"/>
      <point x="367" y="1490" type="line"/>
    </contour>
  </outline>
</glyph>
<glyph name="zero.sups" format="2">
  <advance width="907"/>
  <unicode hex="2070"/>
  <outline>
    <contour>
      <point x="453" y="728" type="qcurve" smooth="yes"/>
      <point x="278" y="728"/>
      <point x="78" y="974"/>
      <point x="78" y="1190" type="qcurve" smooth="yes"/>
      <point x="78" y="1406"/>
      <point x="278" y="1650"/>
      <point x="453" y="1650" type="qcurve" smooth="yes"/>
      <point x="627" y="1650"/>
      <point x="829" y="1408"/>
      <point x="829" y="1190" type="qcurve" smooth="yes"/>
      <point x="829" y="972"/>
      <point x="627" y="728"/>
    </contour>
    <contour>
      <point x="453" y="862" type="qcurve" smooth="yes"/>
      <point x="548" y="862"/>
      <point x="664" y="1028"/>
      <point x="664" y="1190" type="qcurve" smooth="yes"/>
      <point x="664" y="1352"/>
      <point x="548" y="1518"/>
      <point x="453" y="1518" type="qcurve" smooth="yes"/>
      <point x="359" y="1518"/>
      <point x="243" y="1351"/>
      <point x="243" y="1190" type="qcurve" smooth="yes"/>
      <point x="243" y="1030"/>
      <point x="356" y="862"/>
    </contour>
  </outline>
</glyph>
<glyph name="nine.sups" format="2">
  <advance width="875"/>
  <unicode hex="2079"/>
  <outline>
    <contour>
      <point x="427" y="1652" type="qcurve" smooth="yes"/>
      <point x="499" y="1652"/>
      <point x="632" y="1604"/>
      <point x="736" y="1501"/>
      <point x="797" y="1335"/>
      <point x="797" y="1217" type="qcurve" smooth="yes"/>
      <point x="797" y="1076"/>
      <point x="709" y="858"/>
      <point x="542" y="734"/>
      <point x="421" y="734" type="qcurve" smooth="yes"/>
      <point x="330" y="734"/>
      <point x="188" y="802"/>
      <point x="103" y="920"/>
      <point x="94" y="995" type="qcurve"/>
      <point x="253" y="995" type="line"/>
      <point x="266" y="934"/>
      <point x="357" y="870"/>
      <point x="421" y="870" type="qcurve" smooth="yes"/>
      <point x="527" y="870"/>
      <point x="639" y="1044"/>
      <point x="639" y="1195" type="qcurve"/>
      <point x="632" y="1195" type="line"/>
      <point x="601" y="1135"/>
      <point x="466" y="1062"/>
      <point x="383" y="1062" type="qcurve" smooth="yes"/>
      <point x="298" y="1062"/>
      <point x="161" y="1136"/>
      <point x="82" y="1266"/>
      <point x="82" y="1349" type="qcurve" smooth="yes"/>
      <point x="82" y="1437"/>
      <point x="169" y="1573"/>
      <point x="325" y="1652"/>
    </contour>
    <contour>
      <point x="431" y="1526" type="qcurve" smooth="yes"/>
      <point x="349" y="1526"/>
      <point x="241" y="1425"/>
      <point x="241" y="1351" type="qcurve" smooth="yes"/>
      <point x="241" y="1279"/>
      <point x="348" y="1180"/>
      <point x="430" y="1180" type="qcurve" smooth="yes"/>
      <point x="487" y="1180"/>
      <point x="576" y="1232"/>
      <point x="625" y="1313"/>
      <point x="620" y="1358" type="qcurve" smooth="yes"/>
      <point x="613" y="1432"/>
      <point x="506" y="1526"/>
    </contour>
  </outline>
</glyph>
<glyph name="minus.sups" format="2">
  <advance width="901"/>
  <unicode hex="207B"/>
  <outline>
    <contour>
      <point x="773" y="1186" type="line"/>
      <point x="773" y="1052" type="line"/>
      <point x="128" y="1052" type="line"/>
      <point x="128" y="1186" type="line"/>
    </contour>
  </outline>
</glyph>
<glyph name="Euro" format="2">
  <advance width="1365"/>
  <unicode hex="20AC"/>
  <outline>
    <contour>
      <point x="1070" y="963" type="line"/>
      <point x="1002" y="818" type="line"/>
      <point x="52" y="818" type="line"/>
      <point x="105" y="963" type="line"/>
    </contour>
    <contour>
      <point x="943" y="672" type="line"/>
      <point x="876" y="525" type="line"/>
      <point x="52" y="525" type="line"/>
      <point x="105" y="672" type="line"/>
    </contour>
    <contour>
      <point x="1243" y="1357" type="qcurve"/>
      <point x="1170" y="1198" type="line"/>
      <point x="1126" y="1238"/>
      <point x="1025" y="1299"/>
      <point x="911" y="1334"/>
      <point x="847" y="1334" type="qcurve" smooth="yes"/>
      <point x="725" y="1334"/>
      <point x="531" y="1199"/>
      <point x="419" y="937"/>
      <point x="419" y="744" type="qcurve" smooth="yes"/>
      <point x="419" y="553"/>
      <point x="531" y="290"/>
      <point x="725" y="156"/>
      <point x="847" y="156" type="qcurve" smooth="yes"/>
      <point x="912" y="156"/>
      <point x="1025" y="190"/>
      <point x="1123" y="248"/>
      <point x="1164" y="282" type="qcurve"/>
      <point x="1239" y="125" type="line"/>
      <point x="1163" y="53"/>
      <point x="959" y="-20"/>
      <point x="847" y="-20" type="qcurve" smooth="yes"/>
      <point x="668" y="-20"/>
      <point x="390" y="165"/>
      <point x="233" y="508"/>
      <point x="233" y="744" type="qcurve" smooth="yes"/>
      <point x="233" y="981"/>
      <point x="390" y="1324"/>
      <point x="668" y="1510"/>
      <point x="847" y="1510" type="qcurve" smooth="yes"/>
      <point x="960" y="1510"/>
      <point x="1162" y="1433"/>
    </contour>
  </outline>
</glyph>
<glyph name="uni20AE" format="2">
  <advance width="1322"/>
  <unicode hex="20AE"/>
  <anchor x="784" y="0" name="m.uni0326"/>
  <anchor x="786" y="1490" name="m.uni030F_1"/>
  <anchor x="786" y="0" name="m.uni0327_3"/>
  <outline>
    <contour>
      <point x="1012" y="1086" type="line"/>
      <point x="1012" y="930" type="line"/>
      <point x="302" y="652" type="line"/>
      <point x="302" y="800" type="line"/>
    </contour>
    <contour>
      <point x="1012" y="780" type="line"/>
      <point x="1012" y="626" type="line"/>
      <point x="302" y="346" type="line"/>
      <point x="302" y="494" type="line"/>
    </contour>
    <contour>
      <point x="98" y="1322" type="line"/>
      <point x="98" y="1490" type="line"/>
      <point x="1224" y="1490" type="line"/>
      <point x="1224" y="1322" type="line"/>
      <point x="757" y="1322" type="line"/>
      <point x="757" y="0" type="line"/>
      <point x="567" y="0" type="line"/>
      <point x="567" y="1322" type="line"/>
    </contour>
  </outline>
</glyph>
<glyph name="uni20B0" format="2">
  <advance width="1301"/>
  <unicode hex="20B0"/>
  <outline>
    <contour>
      <point x="72" y="0" type="line"/>
      <point x="412" y="642" type="line"/>
      <point x="658" y="321" type="line"/>
      <point x="789" y="577" type="line" smooth="yes"/>
      <point x="862" y="721"/>
      <point x="960" y="924"/>
      <point x="1017" y="1068"/>
      <point x="1041" y="1177"/>
      <point x="1041" y="1226" type="qcurve" smooth="yes"/>
      <point x="1041" y="1306"/>
      <point x="962" y="1394"/>
      <point x="901" y="1394" type="qcurve" smooth="yes"/>
      <point x="838" y="1394"/>
      <point x="757" y="1305"/>
      <point x="757" y="1225" type="qcurve" smooth="yes"/>
      <point x="757" y="1148"/>
      <point x="816" y="965"/>
      <point x="840" y="894" type="qcurve" smooth="yes"/>
      <point x="1088" y="156" type="line" smooth="yes"/>
      <point x="1117" y="70"/>
      <point x="1151" y="-58"/>
      <point x="1166" y="-156"/>
      <point x="1166" y="-198" type="qcurve" smooth="yes"/>
      <point x="1166" y="-302"/>
      <point x="1005" y="-436"/>
      <point x="863" y="-436" type="qcurve" smooth="yes"/>
      <point x="796" y="-436"/>
      <point x="700" y="-415"/>
      <point x="649" y="-396" type="qcurve"/>
      <point x="649" y="-232" type="line"/>
      <point x="706" y="-257"/>
      <point x="809" y="-270"/>
      <point x="846" y="-270" type="qcurve" smooth="yes"/>
      <point x="900" y="-270"/>
      <point x="958" y="-211"/>
      <point x="958" y="-162" type="qcurve" smooth="yes"/>
      <point x="958" y="-107"/>
      <point x="935" y="-2"/>
      <point x="919" y="44" type="qcurve" smooth="yes"/>
      <point x="647" y="850" type="line" smooth="yes"/>
      <point x="630" y="901"/>
      <point x="594" y="1015"/>
      <point x="570" y="1149"/>
      <point x="570" y="1227" type="qcurve" smooth="yes"/>
      <point x="570" y="1317"/>
      <point x="641" y="1468"/>
      <point x="788" y="1560"/>
      <point x="901" y="1560" type="qcurve" smooth="yes"/>
      <point x="1021" y="1560"/>
      <point x="1164" y="1467"/>
      <point x="1227" y="1316"/>
      <point x="1227" y="1228" type="qcurve" smooth="yes"/>
      <point x="1227" y="1142"/>
      <point x="1166" y="938"/>
      <point x="1035" y="658"/>
      <point x="829" y="261"/>
      <point x="684" y="-20" type="qcurve"/>
      <point x="439" y="314" type="line"/>
      <point x="279" y="0" type="line"/>
    </contour>
  </outline>
</glyph>
<glyph name="uni20B9" format="2">
  <advance width="1109"/>
  <unicode hex="20B9"/>
  <outline>
    <contour>
      <point x="1053" y="1137" type="line"/>
      <point x="1002" y="964" type="line"/>
      <point x="58" y="964" type="line"/>
      <point x="108" y="1137" type="line"/>
    </contour>
    <contour>
      <point x="606" y="0" type="line"/>
      <point x="77" y="648" type="line"/>
      <point x="73" y="774" type="line"/>
      <point x="337" y="774" type="line" smooth="yes"/>
      <point x="439" y="774"/>
      <point x="582" y="833"/>
      <point x="658" y="951"/>
      <point x="658" y="1039" type="qcurve" smooth="yes"/>
      <point x="658" y="1170"/>
      <point x="501" y="1319"/>
      <point x="337" y="1319" type="qcurve" smooth="yes"/>
      <point x="58" y="1319" type="line"/>
      <point x="109" y="1490" type="line"/>
      <point x="337" y="1490" type="line" smooth="yes"/>
      <point x="515" y="1490"/>
      <point x="744" y="1373"/>
      <point x="855" y="1170"/>
      <point x="855" y="1041" type="qcurve" smooth="yes"/>
      <point x="855" y="923"/>
      <point x="755" y="727"/>
      <point x="537" y="610"/>
      <point x="359" y="610" type="qcurve" smooth="yes"/>
      <point x="354" y="610" type="line"/>
      <point x="841" y="12" type="line"/>
      <point x="841" y="0" type="line"/>
    </contour>
    <contour>
      <point x="1053" y="1490" type="line"/>
      <point x="1002" y="1317" type="line"/>
      <point x="256" y="1323" type="line"/>
      <point x="306" y="1490" type="line"/>
    </contour>
  </outline>
</glyph>
<glyph name="uni20BD" format="2">
  <advance width="1436"/>
  <unicode hex="20BD"/>
  <outline>
    <contour>
      <point x="835" y="601" type="qcurve" smooth="yes"/>
      <point x="76" y="601" type="line"/>
      <point x="76" y="768" type="line"/>
      <point x="834" y="768" type="line" smooth="yes"/>
      <point x="938" y="768"/>
      <point x="1072" y="839"/>
      <point x="1138" y="965"/>
      <point x="1138" y="1045" type="qcurve" smooth="yes"/>
      <point x="1138" y="1125"/>
      <point x="1072" y="1250"/>
      <point x="938" y="1323"/>
      <point x="835" y="1323" type="qcurve" smooth="yes"/>
      <point x="500" y="1323" type="line"/>
      <point x="500" y="0" type="line"/>
      <point x="310" y="0" type="line"/>
      <point x="310" y="1490" type="line"/>
      <point x="835" y="1490" type="line" smooth="yes"/>
      <point x="1002" y="1490"/>
      <point x="1219" y="1369"/>
      <point x="1326" y="1167"/>
      <point x="1326" y="1045" type="qcurve" smooth="yes"/>
      <point x="1326" y="923"/>
      <point x="1219" y="720"/>
      <point x="1002" y="601"/>
    </contour>
    <contour>
      <point x="828" y="464" type="line"/>
      <point x="828" y="297" type="line"/>
      <point x="76" y="297" type="line"/>
      <point x="76" y="464" type="line"/>
    </contour>
  </outline>
</glyph>
<glyph name="uni2113" format="2">
  <advance width="932"/>
  <unicode hex="2113"/>
  <outline>
    <contour>
      <point x="693" y="155" type="qcurve"/>
      <point x="693" y="-20" type="line"/>
      <point x="478" y="-20"/>
      <point x="269" y="225"/>
      <point x="269" y="430" type="qcurve" smooth="yes"/>
      <point x="269" y="1167" type="line"/>
      <point x="270" y="1349"/>
      <point x="434" y="1551"/>
      <point x="576" y="1551" type="qcurve" smooth="yes"/>
      <point x="659" y="1551"/>
      <point x="788" y="1475"/>
      <point x="862" y="1333"/>
      <point x="862" y="1234" type="qcurve" smooth="yes"/>
      <point x="862" y="1190" type="line" smooth="yes"/>
      <point x="862" y="1064"/>
      <point x="756" y="795"/>
      <point x="554" y="563"/>
      <point x="259" y="419"/>
      <point x="70" y="419" type="qcurve"/>
      <point x="70" y="607" type="line"/>
      <point x="224" y="607"/>
      <point x="445" y="720"/>
      <point x="587" y="899"/>
      <point x="654" y="1102"/>
      <point x="654" y="1190" type="qcurve" smooth="yes"/>
      <point x="654" y="1234" type="line" smooth="yes"/>
      <point x="654" y="1308"/>
      <point x="611" y="1379"/>
      <point x="577" y="1379" type="qcurve" smooth="yes"/>
      <point x="528" y="1379"/>
      <point x="480" y="1276"/>
      <point x="480" y="1170" type="qcurve" smooth="yes"/>
      <point x="480" y="435" type="line" smooth="yes"/>
      <point x="480" y="347"/>
      <point x="518" y="221"/>
      <point x="611" y="155"/>
    </contour>
  </outline>
</glyph>
<glyph name="uni2116" format="2">
  <advance width="2237"/>
  <unicode hex="2116"/>
  <outline>
    <contour>
      <point x="180" y="0" type="line"/>
      <point x="180" y="1490" type="line"/>
      <point x="360" y="1490" type="line"/>
      <point x="1025" y="355" type="line"/>
      <point x="1039" y="355" type="line"/>
      <point x="1039" y="1490" type="line"/>
      <point x="1223" y="1490" type="line"/>
      <point x="1223" y="0" type="line"/>
      <point x="1043" y="0" type="line"/>
      <point x="382" y="1126" type="line"/>
      <point x="366" y="1126" type="line"/>
      <point x="366" y="0" type="line"/>
    </contour>
    <contour>
      <point x="1408" y="449" type="line"/>
      <point x="1408" y="600" type="line"/>
      <point x="2043" y="600" type="line"/>
      <point x="2043" y="449" type="line"/>
    </contour>
    <contour>
      <point x="1724" y="728" type="qcurve" smooth="yes"/>
      <point x="1617" y="728"/>
      <point x="1460" y="814"/>
      <point x="1375" y="968"/>
      <point x="1375" y="1071" type="qcurve" smooth="yes"/>
      <point x="1375" y="1168" type="line" smooth="yes"/>
      <point x="1375" y="1272"/>
      <point x="1459" y="1426"/>
      <point x="1616" y="1512"/>
      <point x="1722" y="1512" type="qcurve" smooth="yes"/>
      <point x="1830" y="1512"/>
      <point x="1986" y="1426"/>
      <point x="2069" y="1271"/>
      <point x="2069" y="1168" type="qcurve" smooth="yes"/>
      <point x="2069" y="1071" type="line" smooth="yes"/>
      <point x="2069" y="967"/>
      <point x="1985" y="813"/>
      <point x="1830" y="728"/>
    </contour>
    <contour>
      <point x="1724" y="874" type="qcurve" smooth="yes"/>
      <point x="1808" y="874"/>
      <point x="1892" y="982"/>
      <point x="1892" y="1071" type="qcurve" smooth="yes"/>
      <point x="1892" y="1168" type="line"/>
      <point x="1891" y="1255"/>
      <point x="1808" y="1361"/>
      <point x="1722" y="1361" type="qcurve" smooth="yes"/>
      <point x="1636" y="1361"/>
      <point x="1552" y="1255"/>
      <point x="1552" y="1168" type="qcurve" smooth="yes"/>
      <point x="1552" y="1071" type="line" smooth="yes"/>
      <point x="1552" y="981"/>
      <point x="1637" y="874"/>
    </contour>
  </outline>
</glyph>
<glyph name="uni2117" format="2">
  <advance width="1374"/>
  <unicode hex="2117"/>
  <outline>
    <contour>
      <point x="509" y="666" type="line"/>
      <point x="509" y="1202" type="line"/>
      <point x="757" y="1202" type="line" smooth="yes"/>
      <point x="831" y="1202"/>
      <point x="936" y="1101"/>
      <point x="936" y="1021" type="qcurve" smooth="yes"/>
      <point x="936" y="938"/>
      <point x="826" y="835"/>
      <point x="749" y="835" type="qcurve" smooth="yes"/>
      <point x="578" y="835" type="line"/>
      <point x="578" y="928" type="line"/>
      <point x="737" y="928" type="line" smooth="yes"/>
      <point x="770" y="928"/>
      <point x="817" y="981"/>
      <point x="817" y="1021" type="qcurve" smooth="yes"/>
      <point x="817" y="1059"/>
      <point x="771" y="1115"/>
      <point x="739" y="1115" type="qcurve" smooth="yes"/>
      <point x="629" y="1115" type="line"/>
      <point x="629" y="666" type="line"/>
    </contour>
    <contour>
      <point x="686" y="346" type="qcurve" smooth="yes"/>
      <point x="566" y="346"/>
      <point x="355" y="437"/>
      <point x="195" y="597"/>
      <point x="104" y="808"/>
      <point x="104" y="928" type="qcurve" smooth="yes"/>
      <point x="104" y="1048"/>
      <point x="195" y="1259"/>
      <point x="355" y="1419"/>
      <point x="566" y="1510"/>
      <point x="686" y="1510" type="qcurve" smooth="yes"/>
      <point x="807" y="1510"/>
      <point x="1018" y="1419"/>
      <point x="1178" y="1259"/>
      <point x="1268" y="1048"/>
      <point x="1268" y="928" type="qcurve" smooth="yes"/>
      <point x="1268" y="808"/>
      <point x="1178" y="597"/>
      <point x="1018" y="437"/>
      <point x="807" y="346"/>
    </contour>
    <contour>
      <point x="686" y="487" type="qcurve" smooth="yes"/>
      <point x="809" y="487"/>
      <point x="1009" y="606"/>
      <point x="1127" y="807"/>
      <point x="1127" y="928" type="qcurve" smooth="yes"/>
      <point x="1127" y="1050"/>
      <point x="1008" y="1250"/>
      <point x="808" y="1369"/>
      <point x="686" y="1369" type="qcurve" smooth="yes"/>
      <point x="565" y="1369"/>
      <point x="364" y="1250"/>
      <point x="245" y="1050"/>
      <point x="245" y="928" type="qcurve" smooth="yes"/>
      <point x="245" y="806"/>
      <point x="364" y="606"/>
      <point x="565" y="487"/>
    </contour>
  </outline>
</glyph>
<glyph name="uni2123" format="2">
  <advance width="1382"/>
  <unicode hex="2123"/>
  <outline>
    <contour>
      <point x="999" y="1620" type="line"/>
      <point x="247" y="-360" type="line"/>
      <point x="79" y="-360" type="line"/>
      <point x="788" y="1530" type="line"/>
      <point x="593" y="1627" type="line"/>
      <point x="676" y="1790" type="line"/>
    </contour>
    <contour>
      <point x="252" y="1490" type="line"/>
      <point x="691" y="248" type="line"/>
      <point x="709" y="248" type="line"/>
      <point x="1147" y="1490" type="line"/>
      <point x="1346" y="1490" type="line"/>
      <point x="798" y="0" type="line"/>
      <point x="601" y="0" type="line"/>
      <point x="52" y="1490" type="line"/>
    </contour>
  </outline>
</glyph>
<glyph name="estimated" format="2">
  <advance width="1294"/>
  <unicode hex="212E"/>
  <outline>
    <contour>
      <point x="1032" y="198" type="qcurve"/>
      <point x="1032" y="94" type="line"/>
      <point x="951" y="42"/>
      <point x="762" y="-20"/>
      <point x="661" y="-20" type="qcurve" smooth="yes"/>
      <point x="552" y="-20"/>
      <point x="361" y="68"/>
      <point x="217" y="223"/>
      <point x="136" y="426"/>
      <point x="136" y="542" type="qcurve" smooth="yes"/>
      <point x="136" y="657"/>
      <point x="225" y="860"/>
      <point x="376" y="1014"/>
      <point x="563" y="1102"/>
      <point x="661" y="1102" type="qcurve" smooth="yes"/>
      <point x="798" y="1102"/>
      <point x="1023" y="962"/>
      <point x="1156" y="718"/>
      <point x="1156" y="562" type="qcurve" smooth="yes"/>
      <point x="1156" y="560"/>
      <point x="1156" y="541"/>
      <point x="1156" y="514" type="qcurve"/>
      <point x="387" y="514" type="line"/>
      <point x="387" y="186" type="line"/>
      <point x="442" y="137"/>
      <point x="582" y="76"/>
      <point x="661" y="76" type="qcurve" smooth="yes"/>
      <point x="753" y="76"/>
      <point x="941" y="133"/>
    </contour>
    <contour>
      <point x="661" y="1010" type="qcurve"/>
      <point x="587" y="1009"/>
      <point x="445" y="942"/>
      <point x="387" y="888" type="qcurve"/>
      <point x="387" y="608" type="line"/>
      <point x="930" y="608" type="line"/>
      <point x="930" y="896" type="line"/>
      <point x="878" y="949"/>
      <point x="738" y="1009"/>
    </contour>
  </outline>
</glyph>
<glyph name="arrowdown" format="2">
  <advance width="1708"/>
  <unicode hex="2193"/>
  <outline>
    <contour>
      <point x="1506" y="628" type="line"/>
      <point x="854" y="-24" type="line"/>
      <point x="202" y="628" type="line"/>
      <point x="318" y="744" type="line"/>
      <point x="528" y="533" type="line" smooth="yes"/>
      <point x="579" y="482"/>
      <point x="692" y="351"/>
      <point x="796" y="221"/>
      <point x="835" y="169" type="qcurve"/>
      <point x="803" y="197" type="line"/>
      <point x="795" y="239"/>
      <point x="780" y="322"/>
      <point x="771" y="405"/>
      <point x="771" y="446" type="qcurve" smooth="yes"/>
      <point x="771" y="1490" type="line"/>
      <point x="937" y="1490" type="line"/>
      <point x="937" y="446" type="line" smooth="yes"/>
      <point x="937" y="405"/>
      <point x="928" y="322"/>
      <point x="914" y="239"/>
      <point x="905" y="197" type="qcurve"/>
      <point x="873" y="169" type="line"/>
      <point x="902" y="208"/>
      <point x="976" y="301"/>
      <point x="1059" y="401"/>
      <point x="1142" y="494"/>
      <point x="1180" y="533" type="qcurve" smooth="yes"/>
      <point x="1390" y="744" type="line"/>
    </contour>
  </outline>
</glyph>
<glyph name="uni21AA" format="2">
  <advance width="2343"/>
  <unicode hex="21AA"/>
  <outline>
    <contour>
      <point x="1489" y="0" type="line"/>
      <point x="1373" y="116" type="line"/>
      <point x="1584" y="326" type="line" smooth="yes"/>
      <point x="1623" y="364"/>
      <point x="1716" y="447"/>
      <point x="1816" y="530"/>
      <point x="1909" y="604"/>
      <point x="1948" y="633" type="qcurve"/>
      <point x="1920" y="601" type="line"/>
      <point x="1879" y="593"/>
      <point x="1796" y="578"/>
      <point x="1713" y="569"/>
      <point x="1671" y="569" type="qcurve" smooth="yes"/>
      <point x="680" y="569" type="line" smooth="yes"/>
      <point x="542" y="569"/>
      <point x="319" y="698"/>
      <point x="188" y="917"/>
      <point x="188" y="1052" type="qcurve" smooth="yes"/>
      <point x="188" y="1188"/>
      <point x="319" y="1407"/>
      <point x="542" y="1536"/>
      <point x="680" y="1536" type="qcurve" smooth="yes"/>
      <point x="756" y="1536" type="line"/>
      <point x="756" y="1370" type="line"/>
      <point x="680" y="1370" type="line" smooth="yes"/>
      <point x="591" y="1370"/>
      <point x="447" y="1285"/>
      <point x="363" y="1141"/>
      <point x="363" y="1052" type="qcurve" smooth="yes"/>
      <point x="363" y="963"/>
      <point x="447" y="819"/>
      <point x="591" y="735"/>
      <point x="680" y="735" type="qcurve" smooth="yes"/>
      <point x="1671" y="735" type="line" smooth="yes"/>
      <point x="1713" y="735"/>
      <point x="1796" y="726"/>
      <point x="1879" y="712"/>
      <point x="1920" y="703" type="qcurve"/>
      <point x="1948" y="671" type="line"/>
      <point x="1897" y="710"/>
      <point x="1766" y="815"/>
      <point x="1636" y="927"/>
      <point x="1584" y="978" type="qcurve" smooth="yes"/>
      <point x="1373" y="1188" type="line"/>
      <point x="1489" y="1304" type="line"/>
      <point x="2141" y="652" type="line"/>
    </contour>
  </outline>
</glyph>
<glyph name="infinity" format="2">
  <advance width="1917"/>
  <unicode hex="221E"/>
  <outline>
    <contour>
      <point x="511" y="1036" type="qcurve"/>
      <point x="586" y="1037"/>
      <point x="713" y="995"/>
      <point x="820" y="926"/>
      <point x="864" y="884" type="qcurve" smooth="yes"/>
      <point x="893" y="857"/>
      <point x="940" y="805"/>
      <point x="960" y="780" type="qcurve"/>
      <point x="977" y="803"/>
      <point x="1015" y="847"/>
      <point x="1044" y="875" type="qcurve" smooth="yes"/>
      <point x="1107" y="937"/>
      <point x="1288" y="1036"/>
      <point x="1409" y="1036" type="qcurve" smooth="yes"/>
      <point x="1521" y="1036"/>
      <point x="1703" y="928"/>
      <point x="1811" y="746"/>
      <point x="1811" y="634" type="qcurve" smooth="yes"/>
      <point x="1811" y="521"/>
      <point x="1703" y="337"/>
      <point x="1521" y="228"/>
      <point x="1409" y="228" type="qcurve" smooth="yes"/>
      <point x="1331" y="228"/>
      <point x="1198" y="273"/>
      <point x="1089" y="345"/>
      <point x="1046" y="387" type="qcurve" smooth="yes"/>
      <point x="1022" y="410"/>
      <point x="977" y="463"/>
      <point x="960" y="486" type="qcurve"/>
      <point x="943" y="465"/>
      <point x="895" y="409"/>
      <point x="872" y="387" type="qcurve" smooth="yes"/>
      <point x="830" y="346"/>
      <point x="721" y="273"/>
      <point x="589" y="228"/>
      <point x="511" y="228" type="qcurve" smooth="yes"/>
      <point x="398" y="228"/>
      <point x="213" y="337"/>
      <point x="104" y="521"/>
      <point x="104" y="634" type="qcurve" smooth="yes"/>
      <point x="104" y="746"/>
      <point x="213" y="929"/>
      <point x="398" y="1037"/>
    </contour>
    <contour>
      <point x="278" y="634" type="qcurve"/>
      <point x="279" y="570"/>
      <point x="341" y="464"/>
      <point x="447" y="402"/>
      <point x="511" y="402" type="qcurve" smooth="yes"/>
      <point x="580" y="402"/>
      <point x="698" y="465"/>
      <point x="750" y="515" type="qcurve" smooth="yes"/>
      <point x="781" y="545"/>
      <point x="830" y="605"/>
      <point x="851" y="634" type="qcurve"/>
      <point x="837" y="653"/>
      <point x="785" y="719"/>
      <point x="750" y="752" type="qcurve" smooth="yes"/>
      <point x="704" y="797"/>
      <point x="583" y="862"/>
      <point x="511" y="862" type="qcurve" smooth="yes"/>
      <point x="447" y="862"/>
      <point x="341" y="801"/>
      <point x="279" y="697"/>
    </contour>
    <contour>
      <point x="1637" y="634" type="qcurve"/>
      <point x="1638" y="697"/>
      <point x="1576" y="801"/>
      <point x="1472" y="862"/>
      <point x="1409" y="862" type="qcurve" smooth="yes"/>
      <point x="1333" y="862"/>
      <point x="1213" y="796"/>
      <point x="1166" y="751" type="qcurve" smooth="yes"/>
      <point x="1126" y="712"/>
      <point x="1079" y="648"/>
      <point x="1067" y="634" type="qcurve"/>
      <point x="1088" y="603"/>
      <point x="1137" y="544"/>
      <point x="1167" y="515" type="qcurve" smooth="yes"/>
      <point x="1219" y="465"/>
      <point x="1338" y="402"/>
      <point x="1409" y="402" type="qcurve" smooth="yes"/>
      <point x="1472" y="402"/>
      <point x="1576" y="464"/>
      <point x="1638" y="569"/>
    </contour>
  </outline>
</glyph>
<glyph name="approxequal" format="2">
  <advance width="1355"/>
  <unicode hex="2248"/>
  <outline>
    <contour>
      <point x="168" y="653" type="line"/>
      <point x="167" y="776"/>
      <point x="250" y="926"/>
      <point x="383" y="994"/>
      <point x="458" y="994" type="qcurve" smooth="yes"/>
      <point x="533" y="994"/>
      <point x="655" y="928"/>
      <point x="735" y="861" type="qcurve" smooth="yes"/>
      <point x="788" y="817"/>
      <point x="851" y="777"/>
      <point x="890" y="777" type="qcurve" smooth="yes"/>
      <point x="953" y="777"/>
      <point x="1025" y="867"/>
      <point x="1023" y="954" type="qcurve"/>
      <point x="1187" y="954" type="line"/>
      <point x="1190" y="833"/>
      <point x="1107" y="683"/>
      <point x="972" y="614"/>
      <point x="896" y="614" type="qcurve" smooth="yes"/>
      <point x="824" y="614"/>
      <point x="704" y="674"/>
      <point x="623" y="744" type="qcurve" smooth="yes"/>
      <point x="571" y="790"/>
      <point x="505" y="830"/>
      <point x="465" y="830" type="qcurve" smooth="yes"/>
      <point x="407" y="830"/>
      <point x="330" y="750"/>
      <point x="332" y="653" type="qcurve"/>
    </contour>
    <contour>
      <point x="168" y="213" type="line"/>
      <point x="167" y="336"/>
      <point x="250" y="485"/>
      <point x="383" y="552"/>
      <point x="458" y="552" type="qcurve" smooth="yes"/>
      <point x="533" y="552"/>
      <point x="654" y="486"/>
      <point x="736" y="418" type="qcurve" smooth="yes"/>
      <point x="790" y="373"/>
      <point x="852" y="336"/>
      <point x="890" y="336" type="qcurve" smooth="yes"/>
      <point x="953" y="336"/>
      <point x="1025" y="425"/>
      <point x="1023" y="513" type="qcurve"/>
      <point x="1187" y="513" type="line"/>
      <point x="1190" y="393"/>
      <point x="1107" y="242"/>
      <point x="973" y="172"/>
      <point x="896" y="172" type="qcurve" smooth="yes"/>
      <point x="823" y="172"/>
      <point x="701" y="235"/>
      <point x="619" y="305" type="qcurve" smooth="yes"/>
      <point x="569" y="349"/>
      <point x="504" y="387"/>
      <point x="465" y="387" type="qcurve" smooth="yes"/>
      <point x="406" y="387"/>
      <point x="330" y="307"/>
      <point x="332" y="213" type="qcurve"/>
    </contour>
  </outline>
</glyph>
<glyph name="uni2298" format="2">
  <advance width="2846"/>
  <unicode hex="2298"/>
  <outline>
    <contour>
      <point x="1030" y="140" type="line"/>
      <point x="898" y="250" type="line"/>
      <point x="1822" y="1351" type="line"/>
      <point x="1954" y="1241" type="line"/>
    </contour>
    <contour>
      <point x="1424" y="-654" type="qcurve" smooth="yes"/>
      <point x="1192" y="-654"/>
      <point x="772" y="-513"/>
      <point x="422" y="-256"/>
      <point x="165" y="93"/>
      <point x="24" y="512"/>
      <point x="24" y="744" type="qcurve" smooth="yes"/>
      <point x="24" y="976"/>
      <point x="165" y="1396"/>
      <point x="422" y="1746"/>
      <point x="772" y="2003"/>
      <point x="1192" y="2144"/>
      <point x="1424" y="2144" type="qcurve" smooth="yes"/>
      <point x="1656" y="2144"/>
      <point x="2075" y="2003"/>
      <point x="2424" y="1746"/>
      <point x="2681" y="1396"/>
      <point x="2822" y="976"/>
      <point x="2822" y="744" type="qcurve" smooth="yes"/>
      <point x="2822" y="512"/>
      <point x="2681" y="93"/>
      <point x="2424" y="-256"/>
      <point x="2075" y="-513"/>
      <point x="1656" y="-654"/>
    </contour>
    <contour>
      <point x="1424" y="-483" type="qcurve" smooth="yes"/>
      <point x="1627" y="-483"/>
      <point x="1995" y="-359"/>
      <point x="2302" y="-134"/>
      <point x="2527" y="173"/>
      <point x="2651" y="541"/>
      <point x="2651" y="744" type="qcurve" smooth="yes"/>
      <point x="2651" y="948"/>
      <point x="2527" y="1316"/>
      <point x="2302" y="1623"/>
      <point x="1995" y="1849"/>
      <point x="1627" y="1973"/>
      <point x="1424" y="1973" type="qcurve" smooth="yes"/>
      <point x="1220" y="1973"/>
      <point x="852" y="1849"/>
      <point x="545" y="1623"/>
      <point x="319" y="1316"/>
      <point x="195" y="948"/>
      <point x="195" y="744" type="qcurve" smooth="yes"/>
      <point x="195" y="541"/>
      <point x="319" y="173"/>
      <point x="545" y="-134"/>
      <point x="852" y="-359"/>
      <point x="1220" y="-483"/>
    </contour>
  </outline>
</glyph>
<glyph name="sun" format="2">
  <advance width="2188"/>
  <unicode hex="263C"/>
  <outline>
    <contour>
      <point x="1094" y="416" type="qcurve" smooth="yes"/>
      <point x="1004" y="416"/>
      <point x="855" y="505"/>
      <point x="766" y="654"/>
      <point x="766" y="744" type="qcurve" smooth="yes"/>
      <point x="766" y="835"/>
      <point x="855" y="985"/>
      <point x="1004" y="1074"/>
      <point x="1094" y="1074" type="qcurve" smooth="yes"/>
      <point x="1185" y="1074"/>
      <point x="1333" y="985"/>
      <point x="1422" y="835"/>
      <point x="1422" y="744" type="qcurve" smooth="yes"/>
      <point x="1422" y="654"/>
      <point x="1333" y="505"/>
      <point x="1185" y="416"/>
    </contour>
    <contour>
      <point x="1094" y="564" type="qcurve" smooth="yes"/>
      <point x="1144" y="564"/>
      <point x="1227" y="613"/>
      <point x="1276" y="695"/>
      <point x="1276" y="744" type="qcurve" smooth="yes"/>
      <point x="1276" y="795"/>
      <point x="1227" y="877"/>
      <point x="1144" y="926"/>
      <point x="1094" y="926" type="qcurve" smooth="yes"/>
      <point x="1044" y="926"/>
      <point x="961" y="877"/>
      <point x="912" y="795"/>
      <point x="912" y="744" type="qcurve" smooth="yes"/>
      <point x="912" y="695"/>
      <point x="961" y="613"/>
      <point x="1044" y="564"/>
    </contour>
    <contour>
      <point x="1023" y="1218" type="line"/>
      <point x="1023" y="1662" type="line"/>
      <point x="1165" y="1662" type="line"/>
      <point x="1165" y="1218" type="line"/>
    </contour>
    <contour>
      <point x="1479" y="1029" type="line"/>
      <point x="1377" y="1129" type="line"/>
      <point x="1693" y="1443" type="line"/>
      <point x="1793" y="1343" type="line"/>
    </contour>
    <contour>
      <point x="1568" y="673" type="line"/>
      <point x="1568" y="815" type="line"/>
      <point x="2010" y="815" type="line"/>
      <point x="2010" y="673" type="line"/>
    </contour>
    <contour>
      <point x="1693" y="45" type="line"/>
      <point x="1377" y="359" type="line"/>
      <point x="1479" y="461" type="line"/>
      <point x="1793" y="147" type="line"/>
    </contour>
    <contour>
      <point x="1023" y="-172" type="line"/>
      <point x="1023" y="270" type="line"/>
      <point x="1165" y="270" type="line"/>
      <point x="1165" y="-172" type="line"/>
    </contour>
    <contour>
      <point x="495" y="45" type="line"/>
      <point x="395" y="147" type="line"/>
      <point x="709" y="461" type="line"/>
      <point x="809" y="359" type="line"/>
    </contour>
    <contour>
      <point x="178" y="673" type="line"/>
      <point x="178" y="815" type="line"/>
      <point x="620" y="815" type="line"/>
      <point x="620" y="673" type="line"/>
    </contour>
    <contour>
      <point x="709" y="1029" type="line"/>
      <point x="395" y="1343" type="line"/>
      <point x="495" y="1443" type="line"/>
      <point x="809" y="1129" type="line"/>
    </contour>
  </outline>
</glyph>
<glyph name="uni2661" format="2">
  <advance width="2094"/>
  <unicode hex="2661"/>
  <outline>
    <contour>
      <point x="1048" y="-24" type="line"/>
      <point x="300" y="724" type="line" smooth="yes"/>
      <point x="210" y="814"/>
      <point x="151" y="1051"/>
      <point x="211" y="1286"/>
      <point x="299" y="1373" type="qcurve" smooth="yes"/>
      <point x="391" y="1464"/>
      <point x="625" y="1521"/>
      <point x="858" y="1461"/>
      <point x="948" y="1374" type="qcurve" smooth="yes"/>
      <point x="1048" y="1278" type="line"/>
      <point x="1146" y="1374" type="line" smooth="yes"/>
      <point x="1236" y="1462"/>
      <point x="1467" y="1523"/>
      <point x="1700" y="1466"/>
      <point x="1791" y="1377" type="qcurve" smooth="yes"/>
      <point x="1883" y="1288"/>
      <point x="1943" y="1051"/>
      <point x="1883" y="813"/>
      <point x="1794" y="724" type="qcurve" smooth="yes"/>
    </contour>
    <contour>
      <point x="1048" y="210" type="line"/>
      <point x="1678" y="842" type="line" smooth="yes"/>
      <point x="1736" y="900"/>
      <point x="1773" y="1055"/>
      <point x="1730" y="1209"/>
      <point x="1668" y="1264" type="qcurve" smooth="yes"/>
      <point x="1612" y="1314"/>
      <point x="1468" y="1349"/>
      <point x="1322" y="1313"/>
      <point x="1262" y="1254" type="qcurve" smooth="yes"/>
      <point x="1048" y="1046" type="line"/>
      <point x="834" y="1254" type="line" smooth="yes"/>
      <point x="777" y="1310"/>
      <point x="630" y="1350"/>
      <point x="481" y="1316"/>
      <point x="420" y="1258" type="qcurve" smooth="yes"/>
      <point x="361" y="1202"/>
      <point x="323" y="1050"/>
      <point x="362" y="898"/>
      <point x="418" y="842" type="qcurve" smooth="yes"/>
    </contour>
  </outline>
</glyph>
<glyph name="uni26A0" format="2">
  <advance width="2066"/>
  <unicode hex="26A0"/>
  <outline>
    <contour>
      <point x="46" y="0" type="line"/>
      <point x="1032" y="1676" type="line"/>
      <point x="2018" y="0" type="line"/>
    </contour>
    <contour>
      <point x="1032" y="189" type="qcurve" smooth="yes"/>
      <point x="1089" y="189"/>
      <point x="1168" y="268"/>
      <point x="1168" y="323" type="qcurve" smooth="yes"/>
      <point x="1168" y="380"/>
      <point x="1089" y="460"/>
      <point x="1032" y="460" type="qcurve" smooth="yes"/>
      <point x="977" y="460"/>
      <point x="898" y="380"/>
      <point x="898" y="323" type="qcurve" smooth="yes"/>
      <point x="898" y="268"/>
      <point x="977" y="189"/>
    </contour>
    <contour>
      <point x="942" y="623" type="line"/>
      <point x="1123" y="623" type="line"/>
      <point x="1135" y="1118" type="line"/>
      <point x="929" y="1118" type="line"/>
    </contour>
  </outline>
</glyph>
<glyph name="uni2C7F" format="2">
  <advance width="1305"/>
  <unicode hex="2C7F"/>
  <outline>
    <contour>
      <point x="1048" y="-436" type="qcurve" smooth="yes"/>
      <point x="971" y="-436"/>
      <point x="842" y="-373"/>
      <point x="724" y="-274"/>
      <point x="608" y="-162"/>
      <point x="481" y="-63"/>
      <point x="332" y="0"/>
      <point x="240" y="0" type="qcurve" smooth="yes"/>
      <point x="129" y="0" type="line"/>
      <point x="129" y="133" type="line"/>
      <point x="928" y="1322" type="line"/>
      <point x="122" y="1322" type="line"/>
      <point x="122" y="1490" type="line"/>
      <point x="1158" y="1490" type="line"/>
      <point x="1158" y="1355" type="line"/>
      <point x="352" y="157" type="line"/>
      <point x="444" y="140"/>
      <point x="590" y="65"/>
      <point x="708" y="-30"/>
      <point x="809" y="-127"/>
      <point x="901" y="-210"/>
      <point x="995" y="-261"/>
      <point x="1048" y="-261" type="qcurve" smooth="yes"/>
      <point x="1076" y="-261"/>
      <point x="1123" y="-256"/>
      <point x="1164" y="-247"/>
      <point x="1183" y="-243" type="qcurve"/>
      <point x="1183" y="-410" type="line"/>
      <point x="1158" y="-421"/>
      <point x="1098" y="-436"/>
    </contour>
  </outline>
</glyph>
<glyph name="uni2E18" format="2">
  <advance width="1038"/>
  <unicode hex="2E18"/>
  <outline>
    <contour>
      <point x="562" y="1131" type="qcurve" smooth="yes"/>
      <point x="618" y="1131"/>
      <point x="696" y="1052"/>
      <point x="696" y="996" type="qcurve" smooth="yes"/>
      <point x="696" y="941"/>
      <point x="617" y="862"/>
      <point x="562" y="862" type="qcurve" smooth="yes"/>
      <point x="507" y="862"/>
      <point x="427" y="941"/>
      <point x="427" y="996" type="qcurve" smooth="yes"/>
      <point x="427" y="1052"/>
      <point x="507" y="1131"/>
    </contour>
    <contour>
      <point x="624" y="700" type="line"/>
      <point x="624" y="694" type="line" smooth="yes"/>
      <point x="624" y="625"/>
      <point x="595" y="482"/>
      <point x="517" y="351"/>
      <point x="442" y="298" type="qcurve" smooth="yes"/>
      <point x="354" y="237"/>
      <point x="276" y="101"/>
      <point x="276" y="0" type="qcurve" smooth="yes"/>
      <point x="276" y="-79"/>
      <point x="347" y="-186"/>
      <point x="461" y="-240"/>
      <point x="524" y="-240" type="qcurve" smooth="yes"/>
      <point x="583" y="-240"/>
      <point x="693" y="-191"/>
      <point x="768" y="-85"/>
      <point x="774" y="0" type="qcurve"/>
      <point x="956" y="0" type="line"/>
      <point x="951" y="-123"/>
      <point x="833" y="-298"/>
      <point x="642" y="-392"/>
      <point x="524" y="-392" type="qcurve" smooth="yes"/>
      <point x="396" y="-392"/>
      <point x="206" y="-286"/>
      <point x="102" y="-106"/>
      <point x="102" y="6" type="qcurve" smooth="yes"/>
      <point x="102" y="137"/>
      <point x="232" y="338"/>
      <point x="328" y="400" type="qcurve" smooth="yes"/>
      <point x="410" y="452"/>
      <point x="480" y="528"/>
      <point x="496" y="620"/>
      <point x="496" y="694" type="qcurve" smooth="yes"/>
      <point x="496" y="700" type="line"/>
    </contour>
    <contour>
      <point x="624" y="700" type="line"/>
      <point x="646" y="30" type="line"/>
      <point x="474" y="30" type="line"/>
      <point x="496" y="700" type="line"/>
    </contour>
  </outline>
</glyph>
<glyph name="four.dnom" format="2">
  <advance width="812"/>
  <unicode hex="E0B8"/>
  <outline>
    <contour>
      <point x="66" y="141" type="line"/>
      <point x="66" y="264" type="line"/>
      <point x="447" y="792" type="line"/>
      <point x="554" y="792" type="line"/>
      <point x="554" y="622" type="line"/>
      <point x="488" y="622" type="line"/>
      <point x="228" y="270" type="line"/>
      <point x="228" y="266" type="line"/>
      <point x="752" y="266" type="line"/>
      <point x="752" y="141" type="line"/>
    </contour>
    <contour>
      <point x="492" y="0" type="line"/>
      <point x="492" y="180" type="line"/>
      <point x="495" y="233" type="line"/>
      <point x="495" y="792" type="line"/>
      <point x="642" y="792" type="line"/>
      <point x="642" y="0" type="line"/>
    </contour>
  </outline>
</glyph>
<glyph name="six.dnom" format="2">
  <advance width="792"/>
  <unicode hex="E0BA"/>
  <outline>
    <contour>
      <point x="406" y="-12" type="qcurve" smooth="yes"/>
      <point x="339" y="-12"/>
      <point x="216" y="33"/>
      <point x="121" y="127"/>
      <point x="66" y="275"/>
      <point x="66" y="378" type="qcurve" smooth="yes"/>
      <point x="66" y="501"/>
      <point x="146" y="695"/>
      <point x="301" y="806"/>
      <point x="412" y="806" type="qcurve" smooth="yes"/>
      <point x="536" y="806"/>
      <point x="700" y="669"/>
      <point x="711" y="568" type="qcurve"/>
      <point x="557" y="568" type="line"/>
      <point x="548" y="615"/>
      <point x="473" y="671"/>
      <point x="412" y="671" type="qcurve" smooth="yes"/>
      <point x="317" y="671"/>
      <point x="221" y="518"/>
      <point x="221" y="387" type="qcurve"/>
      <point x="228" y="387" type="line"/>
      <point x="253" y="444"/>
      <point x="380" y="512"/>
      <point x="453" y="512" type="qcurve" smooth="yes"/>
      <point x="531" y="512"/>
      <point x="652" y="446"/>
      <point x="722" y="331"/>
      <point x="722" y="259" type="qcurve" smooth="yes"/>
      <point x="722" y="182"/>
      <point x="642" y="59"/>
      <point x="500" y="-12"/>
    </contour>
    <contour>
      <point x="404" y="107" type="qcurve" smooth="yes"/>
      <point x="475" y="107"/>
      <point x="571" y="195"/>
      <point x="571" y="257" type="qcurve" smooth="yes"/>
      <point x="571" y="319"/>
      <point x="474" y="403"/>
      <point x="404" y="403" type="qcurve" smooth="yes"/>
      <point x="358" y="403"/>
      <point x="281" y="364"/>
      <point x="237" y="299"/>
      <point x="239" y="259" type="qcurve" smooth="yes"/>
      <point x="244" y="188"/>
      <point x="338" y="107"/>
    </contour>
  </outline>
</glyph>
<glyph name="equal.numr" format="2">
  <advance width="822"/>
  <unicode hex="E0D9"/>
  <outline>
    <contour>
      <point x="134" y="1201" type="line"/>
      <point x="134" y="1328" type="line"/>
      <point x="688" y="1328" type="line"/>
      <point x="688" y="1201" type="line"/>
    </contour>
    <contour>
      <point x="134" y="946" type="line"/>
      <point x="134" y="1075" type="line"/>
      <point x="688" y="1075" type="line"/>
      <point x="688" y="946" type="line"/>
    </contour>
  </outline>
</glyph>
<glyph name="dotmacron.lc" format="2">
  <advance width="495"/>
  <unicode hex="E10C"/>
  <outline>
    <contour>
      <point x="247" y="1273" type="qcurve" smooth="yes"/>
      <point x="196" y="1273"/>
      <point x="122" y="1343"/>
      <point x="122" y="1392" type="qcurve" smooth="yes"/>
      <point x="122" y="1442"/>
      <point x="196" y="1511"/>
      <point x="247" y="1511" type="qcurve" smooth="yes"/>
      <point x="299" y="1511"/>
      <point x="373" y="1442"/>
      <point x="373" y="1392" type="qcurve" smooth="yes"/>
      <point x="373" y="1343"/>
      <point x="299" y="1273"/>
    </contour>
    <contour>
      <point x="522" y="1781" type="line"/>
      <point x="522" y="1653" type="line"/>
      <point x="-32" y="1653" type="line"/>
      <point x="-32" y="1781" type="line"/>
    </contour>
  </outline>
</glyph>
<glyph name="q.sups" format="2">
  <advance width="844"/>
  <unicode hex="E163"/>
  <outline>
    <contour>
      <point x="748" y="466" type="line"/>
      <point x="589" y="466" type="line"/>
      <point x="589" y="880" type="line"/>
      <point x="583" y="880" type="line"/>
      <point x="568" y="840"/>
      <point x="509" y="771"/>
      <point x="422" y="730"/>
      <point x="364" y="730" type="qcurve" smooth="yes"/>
      <point x="279" y="730"/>
      <point x="143" y="822"/>
      <point x="64" y="994"/>
      <point x="64" y="1114" type="qcurve" smooth="yes"/>
      <point x="64" y="1237"/>
      <point x="144" y="1409"/>
      <point x="280" y="1498"/>
      <point x="364" y="1498" type="qcurve" smooth="yes"/>
      <point x="425" y="1498"/>
      <point x="513" y="1455"/>
      <point x="569" y="1386"/>
      <point x="583" y="1348" type="qcurve"/>
      <point x="593" y="1348" type="line"/>
      <point x="593" y="1490" type="line"/>
      <point x="748" y="1490" type="line"/>
    </contour>
    <contour>
      <point x="594" y="1118" type="qcurve" smooth="yes"/>
      <point x="594" y="1227"/>
      <point x="499" y="1370"/>
      <point x="410" y="1370" type="qcurve" smooth="yes"/>
      <point x="351" y="1370"/>
      <point x="269" y="1304"/>
      <point x="227" y="1190"/>
      <point x="227" y="1118" type="qcurve" smooth="yes"/>
      <point x="227" y="1043"/>
      <point x="271" y="927"/>
      <point x="353" y="862"/>
      <point x="410" y="862" type="qcurve" smooth="yes"/>
      <point x="468" y="862"/>
      <point x="550" y="926"/>
      <point x="594" y="1042"/>
    </contour>
  </outline>
</glyph>
<glyph name="fraction.squared" format="2">
  <advance width="2828"/>
  <unicode hex="EE09"/>
  <outline>
    <contour>
      <point x="1021" y="140" type="line"/>
      <point x="889" y="250" type="line"/>
      <point x="1813" y="1351" type="line"/>
      <point x="1945" y="1241" type="line"/>
    </contour>
    <contour>
      <point x="314" y="-606" type="line" smooth="yes"/>
      <point x="64" y="-606"/>
      <point x="64" y="-354" type="qcurve" smooth="yes"/>
      <point x="64" y="1844" type="line" smooth="yes"/>
      <point x="64" y="1966"/>
      <point x="192" y="2094"/>
      <point x="314" y="2094" type="qcurve" smooth="yes"/>
      <point x="2514" y="2094" type="line" smooth="yes"/>
      <point x="2636" y="2094"/>
      <point x="2764" y="1966"/>
      <point x="2764" y="1844" type="qcurve" smooth="yes"/>
      <point x="2764" y="-354" type="line" smooth="yes"/>
      <point x="2764" y="-477"/>
      <point x="2636" y="-606"/>
      <point x="2514" y="-606" type="qcurve" smooth="yes"/>
    </contour>
    <contour>
      <point x="291" y="-433" type="qcurve" smooth="yes"/>
      <point x="2537" y="-433" type="line" smooth="yes"/>
      <point x="2561" y="-433"/>
      <point x="2591" y="-403"/>
      <point x="2591" y="-379" type="qcurve" smooth="yes"/>
      <point x="2591" y="1869" type="line" smooth="yes"/>
      <point x="2591" y="1893"/>
      <point x="2561" y="1923"/>
      <point x="2537" y="1923" type="qcurve" smooth="yes"/>
      <point x="291" y="1923" type="line" smooth="yes"/>
      <point x="266" y="1923"/>
      <point x="235" y="1893"/>
      <point x="235" y="1869" type="qcurve" smooth="yes"/>
      <point x="235" y="-379" type="line" smooth="yes"/>
      <point x="235" y="-403"/>
      <point x="266" y="-433"/>
    </contour>
  </outline>
</glyph>
